<?xml version="1.0" encoding="UTF-8" standalone="no"?>
<!DOCTYPE svg  PUBLIC '-//W3C//DTD SVG 20010904//EN'  'http://www.w3.org/TR/2001/REC-SVG-20010904/DTD/svg10.dtd'>
<svg xmlns="http://www.w3.org/2000/svg" height="200px" width="200px" version="1.0" preserveAspectRatio="xMidYMid meet" viewBox="0 0 2000 2000">
 <g id="layer101" fill="#47b815">
  <path d="m93 1980c-18-11-46-38-63-61l-30-42v-793-792l31-26c27-23 39-26 110-26h79v-89c0-82 2-92 26-120l26-31h551 552l208 208 207 207v158 157h50c61 0 100 18 134 63 22 29 26 44 26 104 0 38-3 73-7 77s-29 85-55 179c-27 95-68 242-92 327-120 425-122 428-213 487l-52 33h-728c-706 0-729-1-760-20zm1462-99c68-31 81-54 125-221 23-85 44-158 47-163s25-80 48-166c24-86 59-212 79-281 44-154 46-197 10-210-37-14-1317-13-1368 1-80 22-97 56-191 394-50 184-120 428-144 510-28 93-28 133 2 145 12 5 315 9 687 9 626 1 667-1 705-18zm-1351-684c14-41 16-104 16-453v-405l-57 3-58 3-2 610-1 610 42-160c24-88 51-182 60-208zm217-442l48-25h611 610v-117-118l-152 3c-131 3-158 1-186-14-55-30-62-54-62-231v-158l-485 3-485 2v371 371l26-32c15-17 48-42 75-55zm1084-474l-110-108-3 95c-1 53 0 102 2 109 4 10 33 13 113 13h108l-110-109z"/>
  <path d="m530 645v-55h475 475v55 55h-475-475v-55z"/>
 </g>
</svg>
