<!DOCTYPE svg PUBLIC "-//W3C//DTD SVG 20010904//EN" "http://www.w3.org/TR/2001/REC-SVG-20010904/DTD/svg10.dtd">
<svg version="1.0" xmlns="http://www.w3.org/2000/svg" width="50px" height="48px" viewBox="0 0 500 480" preserveAspectRatio="xMidYMid meet">
<g id="layer101" fill="#47b815" stroke="none">
 <path d="M82 397 c-52 -53 -82 -90 -82 -104 0 -26 44 -73 68 -73 9 0 39 22 67 50 l50 49 59 -87 c161 -237 157 -232 182 -232 37 0 74 28 74 57 0 14 -40 83 -97 166 -53 78 -114 168 -135 200 -34 50 -43 57 -71 57 -27 0 -45 -13 -115 -83z"/>
 </g>

</svg>