<?xml version="1.0" encoding="utf-8"?>
<!-- Generator: Adobe Illustrator 24.0.1, SVG Export Plug-In . SVG Version: 6.00 Build 0)  -->
<svg version="1.1" id="Слой_1" xmlns="http://www.w3.org/2000/svg" xmlns:xlink="http://www.w3.org/1999/xlink" x="0px" y="0px"
	 viewBox="0 0 434 533" style="enable-background:new 0 0 434 533;" xml:space="preserve">
<style type="text/css">
	.st0{fill:#E7A7A5;}
</style>
<g id="layer101">
	<path class="st0" d="M24,528c-7.4-1.6-14.9-5.1-17.5-8.2c-4.5-5.4-4.5-14.3,0-19.7c1.4-1.6,2.8-4.4,3.1-6.3
		c1.6-8.8,15.7-34.3,27.9-50.3c3.3-4.4,7.1-10.7,8.4-14c4.1-10.4,12.5-26.8,17.6-34.4c6.6-9.9,18.4-20.8,27.1-25
		c3.8-1.8,14.1-5.7,23-8.6c8.8-2.9,18.9-6.7,22.4-8.6c8.4-4.5,16-12,20-19.8c3-6.1,6.9-20.7,7-26.3c0-1.6,0.5-2.8,1-2.8
		c2.6,0-2,24.1-6.2,33c-3,6.3-15,17.9-23.2,22.5c-3.7,2.1-13,6.4-20.5,9.5s-16.3,7.1-19.6,8.7c-16,8.2-28.1,21-40,42.8l-3.9,7l5.5-5
		c14.5-13.5,26.9-22,46.4-31.8c24-12,38.3-16.6,58.1-18.7l11.1-1.2l0.6-5.2c0.3-3.3,2.5-9.4,6.2-17.1c4.3-9.3,5.5-12.7,5.1-15
		c-0.4-1.6-3.1-7-6.1-12c-6.7-11.1-9-19.7-8-29.9c0.3-3.7,0.9-7.4,1.1-8.1c0.3-0.8-0.9-1.5-3.7-1.9c-6.9-1.1-15.4-6.3-22.2-13.5
		c-7.3-7.8-10.6-14.1-11.4-21.4c-0.5-5-0.1-6,8.1-22.4c4.7-9.4,11.3-23.6,14.6-31.5c5.5-12.8,8-17.6,8-15.5
		c0,1.5-10.4,31.6-14.3,41.2c-4,10-6.7,18.7-6.7,21.5c0,1.1,2.2,2.1,7.1,3.4c9.2,2.4,19.3,9,30.2,19.8c7.8,7.9,5.5,12.8-3,6.5
		c-14.2-10.3-27.3-12.1-17.1-2.3c4.7,4.5,11.2,8,16.5,9c2.7,0.4,3.9,0,6.7-2.4c4.4-3.9,5.8-3.9,2.1,0l-2.9,3h3.5
		c5.6,0,15.7-2.5,26.6-6.6l10.1-3.7l-0.5-11.4c-0.4-8.2-0.3-11.3,0.6-11.3c0.6,0,1.1,1.7,1.1,4.3c0,4.6,1.6,15.7,2.4,16.5
		c0.8,0.7,17.8-5.4,28.6-10.4c10.1-4.6,24-8.7,26.5-7.8c4.2,1.6,0.5,4.2-11,7.7c-5.6,1.7-30.3,12.8-35.2,15.9
		c-1.8,1.1-3.3,2.4-3.3,2.9s2.4,2.4,5.3,4.4c6.1,4.1,16.6,7,28.7,7.9c7.1,0.6,9.1,0.4,12-1.1c4.1-2.1,7.5-8.3,8.5-15.8
		c0.3-2.7,1.1-5.5,1.7-6.2c0.8-1,0.7-3-0.1-7.1c-0.6-3.1-2-10.4-3-16.2c-2.4-12.8-1.7-10.7-11.1-31.5c-9.5-20.7-12-28.5-12.7-39.1
		c-1-14.1,3.1-21.5,14.9-27.5c8.1-4.1,10.4-3.6,3.2,0.7c-10.6,6.4-14.4,11.7-14.4,20.1c0,7,1.3,10.6,8.1,22.8
		c12.4,22.2,16.5,38.9,20.8,83.5c1.9,19.8,1.3,27.6-1,13.4l-1.2-7.8l-1.8,5.3c-3.9,12.1-15.9,18.7-29.1,16.2
		c-8.6-1.7-19.7-7.4-26.9-13.9l-6-5.4l-3.7,2.6c-5.4,3.7-6.4,3.1-1.7-1l4-3.4l-4,1.6c-2.2,0.9-6.1,2.7-8.7,4
		c-11.5,5.8-28.5,8-37.3,4.9c-2.2-0.8-4.2-1.5-4.4-1.5c-1.1,0,1.2,14.7,2.8,17.8c1,2,3.4,6.9,5.4,10.7c1.9,3.9,4.1,9.2,4.8,11.8
		c0.6,2.6,1.5,4.9,1.9,5.2c0.3,0.2,1.4-1.2,2.4-3.2c2.6-5.5,3.1-3.2,0.6,3.3c-1.7,4.6-2,6.9-1.4,11.3c0.4,3.8,0.3,5.3-0.4,4.6
		c-0.5-0.5-1.2-1.9-1.4-3c-0.6-2.9-4.5,10.4-5.9,20c-1.3,9.1-0.6,20.4,1.6,28.5c1.7,6.3,1.9,12.1,0.6,16.8c-0.9,3.1-0.8,3.4,2.2,5.3
		c6.4,4,20.8,1.1,42.9-8.7c14.4-6.3,24.1-9.4,32.5-10.4c4.1-0.4,7.6-1,7.9-1.3s1.3-4.5,2.4-9.5c1-5,3-11.4,4.4-14.2
		c3.4-6.7,3.3-7.8-0.7-12.6c-4.8-5.6-11.4-15.5-13.2-19.7c-1.9-4.6-1.9-13-0.1-16.6c0.8-1.5,4.5-5.4,8.3-8.7
		c3.7-3.2,7.5-6.7,8.3-7.8c1.6-2,10.7-17.2,11.3-19c0.2-0.6,0.7-0.8,1.1-0.5c0.7,0.7-12.9,27-19.8,38.3c-2.2,3.6-3.6,7.3-3.6,9.2
		c0,2.5,7.4,20.2,9.2,22c0.2,0.1,0.1-3,0-6.9c-0.4-6.7,1.2-20.8,2.6-24.8c0.4-1,0.7,6.4,0.7,16.5s0.4,18.8,0.8,19.2
		c0.5,0.5,2.4-0.9,4.2-3.1c2.6-3,3.4-5,3.5-8c0.1-6.3,3.7-34.6,4.5-35.3c0.4-0.4,0.5,7,0.3,16.5l-0.3,17.1l5.5-4.8
		c11.4-10,17.9-16.8,18.6-19.6c0.4-1.5,0.4-34.9,0-74.1c-0.4-43.4-0.3-71.3,0.3-71.3c0.7,0,2.9,30.8,2.3,33.1c0,0.4,4.7,5.8,10.6,12
		c16.1,17.1,21.7,24.1,25.9,32.6c3.7,7.5,3.8,8,3.8,18.7c0,10.6-0.2,11.4-3.3,17.4c-3.2,6.1-12.3,16.2-24.3,26.7l-5.7,5l0.9,14
		c0.5,7.7,2,34.5,3.4,59.5c1.3,25,2.7,50.5,3.1,56.5c1,17.8-1,11.1-3.5-11.5c-7.2-66.1-7.8-70-11.1-74.7c-5.4-7.5-9.3-17.1-9.4-22.9
		l-0.1-5.3l-8.3,8.2l-8.4,8.2l0.6,5c0.9,7.8,5.1,21.2,13.1,41.4c9,23,12.4,33.5,13.5,42.6c0.9,7.2,0.3,21.5-1,21.5
		c-0.4,0-1-4.8-1.3-10.7c-0.7-14.7-2.8-20.9-15.9-46.2c-11.5-22.5-13.5-28.3-13.9-40.8c-0.1-3.5-0.4-6.3-0.6-6.3s-1.5,1.2-2.7,2.7
		l-2.4,2.8l5,14c10.8,30.3,13.7,44.5,11.8,58.6c-3.5,27.1-18.9,46.8-55.2,70.6c-13.3,8.7-15.8,10.1-15.8,8.7c0-0.5,4.2-3.6,9.3-6.9
		c11.6-7.6,23.7-17.2,30.5-24.4c10.7-11.3,18.9-27.7,21.3-42.4c1.8-11.6-0.1-41.7-2.4-38c-0.5,0.9-3.2,1-9.2,0.6
		c-6.9-0.5-8.5-0.3-8.5,0.8c0,1.2-0.2,1.2-0.9,0c-0.8-1.2-1.9-1.2-7.2-0.2c-6.7,1.4-22.6,6.8-23.4,8c-0.2,0.5,4.2,2.2,9.8,4
		c5.6,1.7,10.9,3.5,11.7,4.1c2.4,1.5,0.6,2-3.5,0.9c-2.5-0.7-12.6-1-27.9-0.7c-20,0.3-24.7,0.7-27.6,2.1c-1.9,0.9-15.2,4.9-29.5,8.8
		c-65.2,17.6-95.4,29.3-124,47.7c-16.6,10.6-33.5,26-33.5,30.5c0,2.9,3.3,6.1,8.5,8.3c7.1,2.9,42.1,3.4,94.5,1.3
		c25-1,54.3-2.1,65-2.4c10.7-0.4,21.4-0.8,23.8-1c2.3-0.1,4.2,0,4.2,0.5c0,0.4-3.9,1-8.7,1.4C71,527.9,33.4,529.9,24,528z M31,481.3
		c28.7-19,66-33.2,130.5-49.3c16-4,29.5-7.8,30-8.5c0.6-0.6,3.8-2.1,7.3-3.4c3.4-1.3,6.2-2.4,6.2-2.5s-2.8-0.2-6.3-0.3
		c-3.5-0.1-8.6-1-11.5-2.1s-5.4-1.7-5.6-1.4c-0.2,0.4-0.7,3.1-1.1,5.9c-1.1,8.5-2.9,7.8-1.9-0.8c0.9-9,0.9-9.9-0.1-12.3
		c-0.6-1.5-0.5-1.7,0.5-1.1c2.1,1.3,0.5-7.8-2.9-16.6c-1.7-4.2-3.3-9.5-3.7-11.8c-0.4-2.2-0.8-4.1-1-4.1c-0.5,0-32,8.7-42.1,11.5
		c-19.4,5.6-45.6,22.5-70.5,45.6c-6.3,5.8-9.7,9.7-9.4,10.6c0.4,0.8,0.1,1.1-0.5,0.8c-1.6-1-7.8,6.8-11.7,14.8c-1.9,4-3.6,6.7-3.9,6
		c-0.2-0.6,0.3-2.7,1.2-4.5l1.6-3.3l-2.6,3c-7.9,9.2-19.3,28.2-20.9,34.8l-0.7,2.9l5.8-4.4C20.9,488.3,26.9,484.1,31,481.3z
		 M240.8,408.6c3.7-1.8,8.5-3.9,10.7-4.6s4.4-1.6,4.9-2c1.5-1.4-7.4,0.9-16.8,4.5c-15.4,5.7-14.7,5.4-9.8,5.4
		C232.7,412,236.1,411,240.8,408.6z M284.5,388.9c-4.4-19.3-4.9-20.9-5.6-20.2c-1.4,1.5-5,11.6-6.3,17.8l-1.3,6.2l5.3,1.7
		c2.9,0.9,6.3,2.5,7.6,3.5c1.3,1.1,2.4,1.8,2.5,1.7S285.9,394.7,284.5,388.9z M319.9,348.3c-1-8.2-1.8-16.1-1.9-17.6
		c0-3.4-1.4-2.8-3.7,1.6c-2.5,4.9-2,13.4,1.1,20.4c2.6,5.5,5.3,10.3,5.9,10.3C321.5,363,320.8,356.4,319.9,348.3z M339.9,291.1
		c5.1-13.2,4-19.7-6.4-39.6c-5.7-10.9-10.5-22.7-10.5-25.7c0-1.9,1.4,0.2,3.5,5.2c1.1,2.5,4.7,9.2,8,15
		c9.9,17.1,13.5,26.2,13.5,34.4l0.1,4.1l1.9-3.5c4.2-8.1,4.6-21.2,0.9-28.3c-1.8-3.3-29.8-40.7-30.5-40.7c-0.4,0-0.4,3.9-0.1,8.8
		c0.4,4.8,1.6,24.5,2.7,43.7c1.1,19.3,2.3,37.5,2.6,40.5l0.6,5.5l5.3-5.7C335.4,300.6,337.6,297,339.9,291.1z M151.2,263.1
		c-0.3-3.3,0-4.1,1.9-5.1c2.9-1.6,11.6-0.7,16,1.5l3.4,1.7l-3.5-3.7c-4.8-5.1-12.5-10-19-11.9c-2.9-0.9-5.8-1.6-6.3-1.6
		c-1.4,0-0.1,9,1.9,13.6c1.7,3.5,5.2,9.4,5.7,9.4C151.5,267,151.4,265.2,151.2,263.1z"/>
	<path class="st0" d="M417.5,498c-7.1-0.8-10.7-2.1-18-6.5c-2.2-1.3-6-2.8-8.5-3.4c-4.4-1-4.5-1-2.2,0.8c1.6,1.2,2.3,2.5,2,4.2
		c-0.4,3.3-3.7,3.5-13.4,0.9c-5.8-1.6-12.5-2.4-24.9-2.9c-23.4-1.1-31.7-4.1-34.6-12.8c-1.8-5.4-0.5-6.1,2-1
		c3.4,7,9.4,9.9,22.4,10.5l9.7,0.5v-3.7c0-4.2-2.2-4,23-2.6c9.1,0.4,17.8,1.3,19.4,1.9c1.6,0.7,5.1,3,7.7,5.2
		c5.4,4.5,7.4,5.2,20.2,7c4.8,0.7,8.7,1.6,8.7,2.1C431,499.1,427.7,499.1,417.5,498z"/>
	<path class="st0" d="M204.6,372.7c-2.8-6.1-3.2-9.2-1.6-10.2c0.6-0.4,2-2.6,3.1-5.1c1.2-2.4,2.5-4.4,2.9-4.4s1,2.8,1.4,6.3
		c0.4,4.6,0.1,7.9-1.3,12.7l-1.9,6.5L204.6,372.7z"/>
	<path class="st0" d="M148,202c0-0.6-1.6-4.6-3.6-8.8c-5.4-11.4-6.4-14.8-6.4-21.4c0-9.3,4.2-15.8,12.5-19.5c3-1.3,6.8-1.7,15.5-1.8
		c10,0,11.9-0.3,15-2.2c4.5-2.8,7.3-5.8,9.9-10.7l2.1-4l-5.3-2.8c-6.4-3.5-12.2-9.1-14.8-14.1c-1.1-2-3.7-6-5.8-8.8
		c-5.9-7.8-8.4-17.5-7.9-30.3c0.3-9.4,0.6-10.9,4-17.7c2-4.1,5.7-9.5,8.2-12.1c2.6-2.5,4.6-4.8,4.6-5.2c0-1.5,6.8-14.8,10.1-19.7
		c13.1-19.6,36-26.6,60.4-18.5c8.5,2.9,11.3,4.2,10.5,5c-0.3,0.2-3.9-0.7-8-2.1c-4.8-1.6-10.9-2.6-17-3c-15.6-0.9-25,2.1-34.9,11.2
		c-3.1,2.9-6.7,7.2-8,9.5c-2.6,4.6-2.2,4.6,4.9-0.9c10.3-7.8,23.7-12.1,32.2-10c5.6,1.3,7.2,3,6.4,6.3c-0.9,3.8-7.7,7.7-23.1,13.6
		c-30.4,11.5-40.7,19.5-45.7,35.2c-3.3,10.9-1.6,27.6,3.8,35.2c1.3,1.9,1.4,1.5,1.4-4.3c0-4.3,0.9-9,2.9-14.9
		c1.6-4.8,3.2-10.6,3.5-13c0.4-2.4,1.8-6.6,3.1-9.2c5.6-11.1,12.1-15.3,29.9-19.5c17.6-4.2,24-8,28.3-16.9c2.1-4.6,5.2-6.1,8.2-4
		c5.1,3.6-0.1,18-10.3,28.7c-3,3.1-5.1,5.7-4.7,5.7c2.2,0,11.7-7.4,19.5-15.1c4.9-4.9,9.1-8.7,9.4-8.5c0.8,0.9-10.1,12.7-17.3,18.8
		c-6.6,5.6-11.8,8.5-30.8,17.2c-7.4,3.4-15.7,5.6-15.7,4.2c0-2.3,2.7-4.9,7.3-7.2c7.3-3.7,19.5-12.5,24.2-17.5
		c5.1-5.4,2.9-4.5-8.7,3.2c-14,9.4-22.8,16.2-27.4,21c-6,6.4-11.4,13.9-11.4,16c0,4,4.4,11.5,10.7,18c3.6,3.8,6.4,7.1,6.1,7.4
		c-1,1.1-12-10-15.5-15.6c-3.3-5.5-3.8-5.9-4.5-3.9c-1.5,4-2,12.5-0.9,15.2c0.6,1.6,2.1,3,3.6,3.4c1.4,0.3,2.5,1,2.5,1.5
		s-1.2,0.6-2.6,0.3l-2.7-0.7l1.9,3.3c3.1,5.2,14.5,14.2,16.1,12.6c1.6-1.6,3.4-13.9,4-26.6c0.6-16.3,1.9-21,5.6-21
		c4.5,0,5.4,1.9,6,11.5c1,19,11.1,31,31.2,37.1c4,1.2,5.3,1.9,3.8,2.1c-2.7,0.5-16.6-4.1-21.8-7.2c-5.2-3.2-10.5-8.1-13.7-12.8
		l-2.6-3.8l-1,2.8c-0.6,1.8-0.6,6.1-0.1,11.3c1.3,13.9,1,38.8-0.5,46.1c-1.4,6.4-10.2,25.7-11.2,24.6c-0.3-0.3,0.6-4.1,2.1-8.4
		c2.3-6.6,2.7-9.4,2.6-17.8c-0.1-5.9,0.9-17.6,2.4-28.3c1.4-10.1,2.5-18.6,2.5-19c0-0.3-2,3.5-4.4,8.4c-5,10.4-11.3,18.6-15.9,21.1
		c-2,1-6.9,1.9-13.4,2.3c-13.1,0.9-15.7,2.3-20.2,11.2c-4.4,8.9-5.1,16.4-2.2,27.5c1.2,4.5,2.4,8.9,2.7,9.7c0.3,0.9,0.1,1.6-0.5,1.6
		C148.5,203,148,202.5,148,202z M182.6,70.9c2.9-3.2,9.3-7.4,25.3-16.6c8-4.5,14.1-8.3,13.5-8.3c-2.9,0-21.6,4.2-25,5.6
		c-5.8,2.4-9.8,5.7-13.2,11.1C178.2,70.5,177.8,76.2,182.6,70.9z"/>
	<path class="st0" d="M200,187.1c0-2.6,5.1-8.1,9.9-10.5c2.6-1.3,7.1-3.2,10.1-4c3-0.9,12.9-5.7,22-10.5c9.1-4.9,16.7-8.7,17-8.4
		c0.8,0.8-13.8,13.9-19.8,17.9c-6.4,4.3-13.8,6.9-22.3,7.9c-7.4,0.8-11.5,2.6-14.6,6.4C200.9,187.5,200.1,188,200,187.1z"/>
</g>
</svg>
