<svg width="46" height="45" viewBox="0 0 46 45" fill="none" xmlns="http://www.w3.org/2000/svg">
<path d="M7.00081 3.63938L5.58526 5.05226L7.00081 3.63938ZM5.58794 2.22383L7.00349 0.810958C6.62878 0.43553 6.12027 0.224335 5.58984 0.223832C5.0594 0.22333 4.5505 0.433561 4.17507 0.808279L5.58794 2.22383ZM23 19.6689L21.5844 21.0818C21.9596 21.4577 22.4689 21.6689 23 21.6689C23.5311 21.6689 24.0404 21.4577 24.4155 21.0818L23 19.6689ZM38.9991 3.63938L37.5836 2.22651L37.5836 2.22651L38.9991 3.63938ZM40.412 2.22383L41.8249 0.808279C41.0431 0.0279708 39.7768 0.0291696 38.9965 0.810956L40.412 2.22383ZM43.2431 5.04958L44.6587 6.46245C45.439 5.68066 45.4378 4.41433 44.656 3.63403L43.2431 5.04958ZM41.8303 6.46513L43.2458 7.878L43.2458 7.878L41.8303 6.46513ZM25.8257 22.5L24.4102 21.0871C23.6309 21.8679 23.6309 23.1321 24.4102 23.9129L25.8257 22.5ZM41.8303 38.5349L40.4147 39.9478L41.8303 38.5349ZM43.2431 39.9504L44.656 41.366C45.4378 40.5857 45.439 39.3193 44.6587 38.5376L43.2431 39.9504ZM40.412 42.7762L38.9965 44.189C39.7768 44.9708 41.0431 44.972 41.8249 44.1917L40.412 42.7762ZM38.9991 41.3606L37.5836 42.7735L38.9991 41.3606ZM23 25.3311L24.4155 23.9182C24.0404 23.5423 23.5311 23.3311 23 23.3311C22.4689 23.3311 21.9596 23.5423 21.5844 23.9182L23 25.3311ZM7.00081 41.3606L5.58526 39.9478H5.58526L7.00081 41.3606ZM5.58794 42.7762L4.17507 44.1917C4.5505 44.5664 5.0594 44.7767 5.58984 44.7762C6.12027 44.7757 6.62878 44.5645 7.00349 44.189L5.58794 42.7762ZM2.75684 39.9504L1.34128 38.5376C0.966567 38.913 0.756335 39.4219 0.756837 39.9523C0.757339 40.4828 0.968535 40.9913 1.34396 41.366L2.75684 39.9504ZM4.16971 38.5349L5.58526 39.9478H5.58526L4.16971 38.5349ZM20.1742 22.5L21.5898 23.9129C22.369 23.1321 22.369 21.8679 21.5898 21.0871L20.1742 22.5ZM4.16971 6.46513L2.75416 7.878L4.16971 6.46513ZM2.75684 5.04958L1.34396 3.63402C0.968535 4.00874 0.757339 4.51725 0.756837 5.04768C0.756334 5.57812 0.966566 6.08702 1.34128 6.46245L2.75684 5.04958ZM8.41637 2.22651L7.00349 0.810958L4.17239 3.6367L5.58526 5.05226L8.41637 2.22651ZM24.4155 18.256L8.41637 2.22651L5.58526 5.05226L21.5844 21.0818L24.4155 18.256ZM37.5836 2.22651L21.5844 18.256L24.4155 21.0818L40.4147 5.05226L37.5836 2.22651ZM38.9965 0.810956L37.5836 2.22651L40.4147 5.05226L41.8276 3.63671L38.9965 0.810956ZM44.656 3.63403L41.8249 0.808279L38.9992 3.63938L41.8303 6.46513L44.656 3.63403ZM43.2458 7.878L44.6587 6.46245L41.8276 3.6367L40.4147 5.05226L43.2458 7.878ZM27.2413 23.9129L43.2458 7.878L40.4147 5.05226L24.4102 21.0871L27.2413 23.9129ZM43.2458 37.122L27.2413 21.0871L24.4102 23.9129L40.4147 39.9478L43.2458 37.122ZM44.6587 38.5376L43.2458 37.122L40.4147 39.9478L41.8276 41.3633L44.6587 38.5376ZM41.8249 44.1917L44.656 41.366L41.8303 38.5349L38.9991 41.3606L41.8249 44.1917ZM37.5836 42.7735L38.9965 44.189L41.8276 41.3633L40.4147 39.9477L37.5836 42.7735ZM21.5844 26.744L37.5836 42.7735L40.4147 39.9478L24.4155 23.9182L21.5844 26.744ZM8.41637 42.7735L24.4155 26.744L21.5844 23.9182L5.58526 39.9478L8.41637 42.7735ZM7.00349 44.189L8.41637 42.7735L5.58526 39.9478L4.17239 41.3633L7.00349 44.189ZM1.34396 41.366L4.17507 44.1917L7.00081 41.3606L4.16971 38.5349L1.34396 41.366ZM2.75416 37.122L1.34128 38.5376L4.17239 41.3633L5.58526 39.9478L2.75416 37.122ZM18.7587 21.0871L2.75416 37.122L5.58526 39.9478L21.5898 23.9129L18.7587 21.0871ZM2.75416 7.878L18.7587 23.9129L21.5898 21.0871L5.58526 5.05226L2.75416 7.878ZM1.34128 6.46245L2.75416 7.878L5.58526 5.05226L4.17239 3.6367L1.34128 6.46245ZM4.17507 0.808279L1.34396 3.63402L4.16971 6.46513L7.00081 3.63938L4.17507 0.808279Z" fill="#3C3C3B"/>
</svg>
