<?xml version="1.0" encoding="UTF-8" standalone="no"?>
<!DOCTYPE svg  PUBLIC '-//W3C//DTD SVG 20010904//EN'  'http://www.w3.org/TR/2001/REC-SVG-20010904/DTD/svg10.dtd'>
<svg xmlns="http://www.w3.org/2000/svg" height="200px" width="200px" version="1.0" preserveAspectRatio="xMidYMid meet" viewBox="0 0 2000 2000">
 <g id="layer101" fill="#47b716">
  <path d="m830 1993c-67-11-183-49-255-83-262-123-464-363-546-650-22-76-24-103-23-265 0-166 2-187 27-268 104-337 356-590 693-693 83-26 101-28 274-28 172-1 191 1 270 26 118 36 190 69 284 132 200 133 347 335 418 572 21 71 23 99 23 269 0 181-1 194-29 280-108 341-383 605-720 690-85 22-119 25-245 24-80-1-157-4-171-6zm322-124c166-23 336-110 466-239 108-108 182-232 228-387 24-78 27-105 27-238 0-123-4-164-21-230-42-150-110-271-216-384-77-81-144-130-243-179-137-69-237-92-395-92-165 0-313 42-466 132-91 53-239 208-293 308-143 261-155 555-34 816 127 275 397 469 700 503 82 9 130 7 247-10z"/>
  <path d="m886 1139l-26-20v-348c0-337 1-349 21-375 28-35 70-35 98 0 20 26 21 38 21 325v299h303c291 0 304 1 325 20 22 20 29 64 14 86-20 31-54 34-390 34-328 0-340-1-366-21z"/>
 </g>
 <g id="layer102" fill="#9cc28a">
  <path d="m933 1883c9-2 25-2 35 0 9 3 1 5-18 5s-27-2-17-5z"/>
  <path d="m1033 1883c9-2 25-2 35 0 9 3 1 5-18 5s-27-2-17-5z"/>
  <path d="m1705 1710c21-22 41-40 44-40s-13 18-34 40-41 40-44 40 13-18 34-40z"/>
  <path d="m380 1635c-24-25-42-45-39-45s25 20 49 45 42 45 39 45-25-20-49-45z"/>
  <path d="m1619 373l-34-38 38 34c20 19 37 36 37 38 0 8-8 0-41-34z"/>
  <path d="m973 113c15-2 39-2 55 0 15 2 2 4-28 4s-43-2-27-4z"/>
 </g>
</svg>
