<?xml version="1.0" encoding="UTF-8" standalone="no"?>
<!DOCTYPE svg  PUBLIC '-//W3C//DTD SVG 20010904//EN'  'http://www.w3.org/TR/2001/REC-SVG-20010904/DTD/svg10.dtd'>
<svg xmlns="http://www.w3.org/2000/svg" height="200px" width="200px" version="1.0" preserveAspectRatio="xMidYMid meet" viewBox="0 0 2000 2000">
 <g id="layer101" fill="#47b815">
  <path d="m835 1921c-140-38-315-134-409-223-51-49-59-84-31-137 17-34 77-65 109-57 13 3 54 31 92 61 87 70 185 119 294 146 119 30 290 24 405-15 234-80 415-275 476-514 23-93 25-259 4-351-48-201-192-385-374-480-126-65-176-76-341-75-132 0-152 2-225 28-44 15-104 41-134 58-200 115-344 335-367 563l-7 65h46c52 0 91 30 84 65-5 30-189 284-210 291-41 13-64-6-155-135-75-105-92-135-92-164 0-43 20-57 78-57h39l7-80c18-219 129-448 287-594 122-113 299-209 446-242 110-24 384-16 473 15 284 98 490 284 601 541 60 139 69 187 69 370 0 181-8 226-66 365-92 219-241 375-463 485-151 76-186 84-386 87-152 2-191 0-250-16z"/>
  <path d="m996 1539c-17-19-26-43-26-63 0-32-2-34-42-40-71-11-137-36-153-59-8-12-15-38-15-58 0-29 7-43 31-63 35-30 46-31 113-11 27 8 77 15 110 15 164 0 174-123 15-175-201-66-294-167-276-300 13-95 72-164 174-207 51-21 53-23 53-60 0-78 83-116 135-63 17 16 25 35 25 58 0 35 0 35 57 42 46 6 63 13 90 40 35 35 40 58 22 98-20 45-47 51-152 37-87-12-97-12-133 6-31 15-40 25-42 50-4 41 21 59 146 109 120 48 176 87 210 144 23 40 27 57 27 126s-4 86-28 127c-30 52-87 95-159 123-47 17-48 18-48 62 0 86-82 124-134 62z"/>
 </g>
</svg>
