<?xml version="1.0" encoding="UTF-8" standalone="no"?>
<!DOCTYPE svg  PUBLIC '-//W3C//DTD SVG 20010904//EN'  'http://www.w3.org/TR/2001/REC-SVG-20010904/DTD/svg10.dtd'>
<svg xmlns="http://www.w3.org/2000/svg" height="200px" width="200px" version="1.0" preserveAspectRatio="xMidYMid meet" viewBox="0 0 2000 2000">
 <g id="layer101" fill="#47b815">
  <path d="m606 1983c-3-10-10-55-17-100s-15-86-18-91c-3-4-32-25-64-46-129-85-225-208-268-341-12-39-23-71-24-73-1-1-18 5-38 13-36 15-131 20-161 9-9-4-16-18-16-34v-27l68 4c51 3 75 0 102-14 33-17 35-20 47-107 28-194 141-352 338-470 57-35 95-46 95-27 0 5 20 31 44 58 34 37 44 55 39 71l-5 22h322 322l-5-22c-5-16 5-34 39-71 24-27 44-53 44-57 0-13 114-68 175-83 33-9 86-19 118-22l58-7-6 43c-10 72-26 141-47 196l-19 51 39 56c22 31 45 69 51 85 10 24 20 29 58 35 25 3 63 11 84 16l39 11v179 178l-47 10c-27 6-64 13-84 17-29 5-39 14-56 48-52 107-147 205-265 274-35 21-66 41-69 46-4 5-12 49-19 98l-13 89h-132-132l-9-50-9-50-137-3-138-2-10 52-11 53h-129c-114 0-129-2-134-17zm1059-888c52-51 20-125-53-125s-103 79-48 127c35 30 71 29 101-2z"/>
  <path d="m735 747c-131-135-165-339-85-502 39-80 80-127 151-176 87-59 125-69 253-69 107 0 115 1 184 35 276 132 341 491 130 709l-54 56h-264-264l-51-53zm325-85c0-32 4-39 29-49 38-14 65-65 57-109-8-41-57-84-97-84-66 0-95-88-43-129 15-12 34-21 44-21 23 0 70 38 70 56 0 8 7 14 15 14 19 0 19-4 0-39-8-16-28-34-45-41-25-10-30-18-30-46 0-19-4-34-10-34-5 0-10 15-10 34 0 28-5 36-30 46-40 16-64 62-56 105 8 42 34 64 88 76 58 14 78 34 78 81s-28 78-70 78c-30 0-70-32-70-57 0-7-7-13-15-13-20 0-19 8 5 47 11 18 31 35 45 39 21 5 25 12 25 45 0 21 5 39 10 39 6 0 10-17 10-38z"/>
 </g>
</svg>
