<?xml version="1.0" encoding="utf-8"?>
<!-- Generator: Adobe Illustrator 21.0.2, SVG Export Plug-In . SVG Version: 6.00 Build 0)  -->
<svg version="1.1" id="Слой_1" xmlns="http://www.w3.org/2000/svg" xmlns:xlink="http://www.w3.org/1999/xlink" x="0px" y="0px"
	 viewBox="0 0 467.3 72.3" style="enable-background:new 0 0 467.3 72.3;" xml:space="preserve">
<style type="text/css">
	.st0{fill:#FFFFFF;}
</style>
<g>
	<path class="st0" d="M364,1.4c-8.6,0-15,3.2-19.2,8.7c-0.3,0.4-1,0.4-1.3,0c-3.8-5.5-9.7-8.6-17.5-8.6c-7.5,0-13.3,2.6-17.1,7.1
		c-0.5,0.6-1.4,0.2-1.4-0.5V4c0-0.4-0.4-0.8-0.8-0.8h-15.6c-0.4,0-0.8,0.4-0.8,0.8v65c0,0.4,0.4,0.8,0.8,0.8h15.6
		c0.4,0,0.8-0.4,0.8-0.8V32.4c0-10,5.2-15.1,12.5-15.1c7.2,0,11.2,4.8,11.2,12.7v39c0,0.4,0.4,0.8,0.8,0.8h15.6
		c0.4,0,0.8-0.4,0.8-0.8V32.4c0-10,4.8-15.1,12.4-15.1c7.2,0,11.2,4.8,11.2,12.7v39c0,0.4,0.4,0.8,0.8,0.8h15.6
		c0.4,0,0.8-0.4,0.8-0.8V28.8C389.2,12.2,379.2,1.4,364,1.4z"/>
	<path class="st0" d="M177.2,3.2h-15.7c-0.4,0-0.8,0.3-0.8,0.8v5.1c0,0.7-0.8,1-1.3,0.5c-4.8-5.1-11.5-8.2-20.4-8.2
		c-17.7,0-32.4,15.3-32.4,35.2c0,19.8,14.7,35.2,32.4,35.2c8.9,0,15.7-3.1,20.4-8.2c0.5-0.5,1.3-0.2,1.3,0.5v5.1
		c0,0.4,0.3,0.8,0.8,0.8h15.7c0.4,0,0.8-0.3,0.8-0.8V4C177.9,3.6,177.6,3.2,177.2,3.2z M142.2,55.3c-10.5,0-18.4-7.6-18.4-18.8
		c0-11.2,7.9-18.8,18.4-18.8c10.7,0,18.5,7.6,18.5,18.8C160.7,47.7,152.9,55.3,142.2,55.3z"/>
	<path class="st0" d="M76.1,1.4c-8.5,0-15,3.2-19.1,8.6c-0.4,0.5-1.1,0.5-1.4,0c-3.8-5.5-9.7-8.6-17.4-8.6c-7.5,0-13.2,2.6-17,7
		c-0.5,0.6-1.5,0.3-1.5-0.5V4.1c0-0.5-0.4-0.9-0.9-0.9H3.3c-0.5,0-0.9,0.4-0.9,0.9V69c0,0.5,0.4,0.9,0.9,0.9h15.5
		c0.5,0,0.9-0.4,0.9-0.9V32.4c0-10,5.2-15.1,12.5-15.1c7.2,0,11.2,4.8,11.2,12.7v39c0,0.5,0.4,0.9,0.9,0.9h15.5
		c0.5,0,0.9-0.4,0.9-0.9V32.4c0-10,4.8-15.1,12.4-15.1c7.2,0,11.2,4.8,11.2,12.7v39c0,0.5,0.4,0.9,0.9,0.9h15.5
		c0.5,0,0.9-0.4,0.9-0.9V28.8C101.3,12.2,91.3,1.4,76.1,1.4z"/>
	<path class="st0" d="M465,3.2h-15.6c-0.4,0-0.8,0.3-0.8,0.8v5c0,0.7-0.9,1-1.3,0.5c-4.8-5.1-11.5-8.2-20.4-8.2
		c-17.7,0-32.4,15.3-32.4,35.2c0,19.8,14.7,35.2,32.4,35.2c8.9,0,15.6-3.1,20.4-8.2c0.5-0.5,1.3-0.2,1.3,0.5v5
		c0,0.4,0.3,0.8,0.8,0.8H465c0.4,0,0.8-0.3,0.8-0.8V4C465.8,3.6,465.5,3.2,465,3.2z M430.1,55.3c-10.5,0-18.4-7.6-18.4-18.8
		c0-11.2,7.9-18.8,18.4-18.8c10.7,0,18.5,7.6,18.5,18.8C448.6,47.7,440.8,55.3,430.1,55.3z"/>
	<path class="st0" d="M280,3.2h-16.1c-0.3,0-0.5,0.2-0.5,0.5v65.6c0,0.3,0.2,0.5,0.5,0.5H280c0.3,0,0.5-0.2,0.5-0.5V3.8
		C280.5,3.5,280.3,3.2,280,3.2z"/>
	<path class="st0" d="M234.2,39.9l-10.7,14.4c-0.2,0.3-0.2,0.7,0,1l10,14.1c0.2,0.3,0.5,0.4,0.9,0.4h20.3c0.9,0,1.3-1,0.9-1.7
		l-19.9-28.3C235.2,39.5,234.5,39.5,234.2,39.9z"/>
	<path class="st0" d="M254,5.8c0.8-1.1,0-2.6-1.3-2.6h-19.3c0,0-0.1,0-0.1,0c-0.1,0-0.1,0-0.2,0h0c0.1,0,0.1,0,0.2,0
		c-0.2,0-0.5,0.1-0.6,0.3l-9.2,13.2c-0.2,0.3-0.2,0.6,0,0.9l10.8,14.5c0.3,0.4,1,0.4,1.3,0L254,5.8z"/>
	<path class="st0" d="M207.1,3.6c-0.1-0.1-0.2-0.2-0.3-0.3c-0.1-0.1-0.3-0.1-0.4-0.1h-20.8c-0.4,0-0.7,0.2-0.8,0.6
		c0,0.1-0.1,0.2-0.1,0.3c0,0.2,0.1,0.3,0.2,0.4l21.8,30.9c0.1,0.1,0.2,0.3,0.2,0.5c0,0.2-0.1,0.3-0.2,0.5l-22.6,32
		c-0.4,0.6,0,1.3,0.7,1.3h20.8c0.1,0,0.3,0,0.4-0.1c0.1-0.1,0.2-0.2,0.3-0.3l23.4-32.7c0.3-0.5,0.3-1.1,0-1.5L207.1,3.6z"/>
</g>
</svg>
