<?xml version="1.0" encoding="UTF-8"?>
<svg id="_Слой_2" data-name="Слой 2" xmlns="http://www.w3.org/2000/svg" xmlns:xlink="http://www.w3.org/1999/xlink" viewBox="0 0 419.73 373.8">
  <defs>
    <style>
      .cls-1 {
        fill: url(#_Безымянный_градиент_2);
      }

      .cls-1, .cls-2, .cls-3, .cls-4, .cls-5, .cls-6 {
        stroke-width: 0px;
      }

      .cls-2 {
        fill: url(#_Безымянный_градиент_2-2);
      }

      .cls-3 {
        fill: url(#_Безымянный_градиент_2-5);
      }

      .cls-4 {
        fill: url(#_Безымянный_градиент_2-3);
      }

      .cls-5 {
        fill: #fff;
      }

      .cls-6 {
        fill: url(#_Безымянный_градиент_2-4);
      }
    </style>
    <linearGradient id="_Безымянный_градиент_2" data-name="Безымянный градиент 2" x1="81.55" y1="218.57" x2="338.16" y2="218.57" gradientUnits="userSpaceOnUse">
      <stop offset="0" stop-color="#3652e2"/>
      <stop offset="1" stop-color="#b5289b"/>
    </linearGradient>
    <linearGradient id="_Безымянный_градиент_2-2" data-name="Безымянный градиент 2" x1="78.23" y1="219.38" x2="341.48" y2="219.38" xlink:href="#_Безымянный_градиент_2"/>
    <linearGradient id="_Безымянный_градиент_2-3" data-name="Безымянный градиент 2" x1="0" y1="186.9" x2="419.73" y2="186.9" xlink:href="#_Безымянный_градиент_2"/>
    <linearGradient id="_Безымянный_градиент_2-4" data-name="Безымянный градиент 2" x1="119.45" y1="225.05" x2="252.93" y2="225.05" xlink:href="#_Безымянный_градиент_2"/>
    <linearGradient id="_Безымянный_градиент_2-5" data-name="Безымянный градиент 2" x1="188.96" y1="225.05" x2="295.64" y2="225.05" xlink:href="#_Безымянный_градиент_2"/>
  </defs>
  <g id="Background">
    <g id="_Слой_2-2" data-name="Слой 2">
      <g id="Layer_1" data-name="Layer 1">
        <rect class="cls-5" x="41.03" y="91.93" width="333.27" height="253.24" rx="112.63" ry="112.63"/>
        <path class="cls-1" d="M301.47,296.28l-1.24.7c-11.2,6.34-23.84,9.67-36.71,9.67h-107.33c-41.16,0-74.64-33.48-74.64-74.64v-27.29c0-41.16,33.48-74.64,74.64-74.64h107.33c41.16,0,74.64,33.49,74.64,74.64v27.3c0,13.39-3.61,26.53-10.44,38.04l-.72,1.21,9.71,35.8-35.23-10.79Z"/>
        <path class="cls-2" d="M263.53,133.4c39.33,0,71.32,31.99,71.32,71.32v27.3c0,12.79-3.44,25.34-9.97,36.34l-1.44,2.42.74,2.71,7.76,28.64-28.12-8.6-2.73-.84-2.49,1.41c-10.7,6.06-22.78,9.24-35.07,9.24h-107.34c-39.33,0-71.32-31.99-71.32-71.32v-27.3c0-39.33,31.99-71.32,71.32-71.32h107.33M263.53,126.76h-107.33c-42.99,0-77.96,34.98-77.96,77.96v27.3c0,42.99,34.97,77.96,77.96,77.96h107.33c13.44.01,26.66-3.47,38.34-10.1l39.61,12.12-10.9-40.24c7.15-12.02,10.92-25.75,10.9-39.74v-27.3c0-42.99-34.97-77.96-77.96-77.96h.01Z"/>
        <path class="cls-4" d="M399.53,174.97h-12.08c-6.4-19.31-17.25-36.85-31.67-51.21-24.64-24.64-57.41-38.21-92.26-38.21h-11.29v-2.86c0-7.16-5.81-12.96-12.97-12.96h-20.65v-18.48c13.74-4.83,20.96-19.89,16.12-33.63-4.83-13.74-19.89-20.96-33.63-16.12-13.74,4.83-20.96,19.89-16.12,33.63,2.65,7.54,8.58,13.47,16.12,16.12v18.48h-20.65c-7.16,0-12.97,5.8-12.97,12.96v2.86h-11.29c-34.85,0-67.62,13.57-92.26,38.21-14.42,14.35-25.27,31.89-31.67,51.21h-12.07C9.04,174.97,0,184.01,0,195.16v69.02c0,11.15,9.04,20.19,20.19,20.19h12.09c6.4,19.31,17.25,36.86,31.67,51.21,24.64,24.64,57.41,38.21,92.26,38.21h107.32c34.85,0,67.62-13.57,92.26-38.21,14.42-14.35,25.27-31.89,31.67-51.21h12.08c11.15,0,20.19-9.04,20.19-20.19h0v-69.02c0-11.15-9.04-20.19-20.19-20.19h-.01ZM376.5,243.32c0,62.29-50.68,112.97-112.97,112.97h-107.33c-62.29,0-112.97-50.68-112.97-112.97v-27.3c0-62.29,50.68-112.97,112.97-112.97h107.33c62.29,0,112.97,50.68,112.97,112.97v27.3Z"/>
        <path class="cls-6" d="M140.51,196c7.96,0,14.41,6.46,14.42,14.42v29.26c.11,7.96-6.26,14.51-14.23,14.61-7.96.11-14.51-6.26-14.61-14.23,0-.13,0-.26,0-.38v-29.26c0-7.96,6.46-14.41,14.42-14.42M140.51,189.36h0c-11.63,0-21.06,9.43-21.06,21.06h0v29.26c0,11.63,9.43,21.06,21.06,21.06h0c11.63,0,21.06-9.43,21.06-21.06v-29.26c0-11.63-9.43-21.06-21.06-21.06Z"/>
        <path class="cls-3" d="M279.21,196c7.96,0,14.41,6.46,14.42,14.42v29.26c.11,7.96-6.27,14.51-14.23,14.61-7.96.11-14.51-6.27-14.61-14.23,0-.13,0-.26,0-.38v-29.26c0-7.96,6.46-14.41,14.42-14.42M279.21,189.36h0c-11.63,0-21.06,9.43-21.06,21.06v29.26c0,11.63,9.43,21.06,21.06,21.06h0c11.63,0,21.06-9.43,21.06-21.06v-29.26c0-11.63-9.43-21.06-21.06-21.06h0Z"/>
        <circle class="cls-5" cx="209.85" cy="14.9" r="7.99"/>
        <path class="cls-5" d="M140.51,257.42c-9.79-.01-17.73-7.95-17.74-17.74v-29.26c-.12-9.8,7.73-17.84,17.53-17.95,9.8-.12,17.84,7.73,17.95,17.53,0,.14,0,.28,0,.43v29.26c-.01,9.79-7.95,17.73-17.74,17.74Z"/>
        <path class="cls-5" d="M279.21,257.42c-9.79-.01-17.73-7.95-17.74-17.74v-29.26c0-9.8,7.96-17.74,17.76-17.73,9.79,0,17.72,7.94,17.73,17.73v29.26c-.01,9.79-7.95,17.73-17.74,17.74Z"/>
      </g>
    </g>
  </g>
</svg>