<?xml version="1.0" encoding="UTF-8"?>
<svg id="_Слой_2" data-name="Слой 2" xmlns="http://www.w3.org/2000/svg" xmlns:xlink="http://www.w3.org/1999/xlink" viewBox="0 0 263.9 266.6">
  <defs>
    <style>
      .cls-1 {
        fill: url(#_Безымянный_градиент_2);
      }

      .cls-1, .cls-2, .cls-3, .cls-4, .cls-5 {
        stroke-width: 0px;
      }

      .cls-2 {
        fill: url(#_Безымянный_градиент_2-2);
      }

      .cls-3 {
        fill: url(#_Безымянный_градиент_2-3);
      }

      .cls-4 {
        fill: #fff;
      }

      .cls-5 {
        fill: url(#_Безымянный_градиент_2-4);
      }
    </style>
    <linearGradient id="_Безымянный_градиент_2" data-name="Безымянный градиент 2" x1="4.7" y1="161.85" x2="199.6" y2="161.85" gradientUnits="userSpaceOnUse">
      <stop offset="0" stop-color="#3652e2"/>
      <stop offset="1" stop-color="#b5289b"/>
    </linearGradient>
    <linearGradient id="_Безымянный_градиент_2-2" data-name="Безымянный градиент 2" x1="92.2" y1="55.9" x2="209.6" y2="55.9" xlink:href="#_Безымянный_градиент_2"/>
    <linearGradient id="_Безымянный_градиент_2-3" data-name="Безымянный градиент 2" x1="92.2" y1="104.9" x2="209.6" y2="104.9" xlink:href="#_Безымянный_градиент_2"/>
    <linearGradient id="_Безымянный_градиент_2-4" data-name="Безымянный градиент 2" x1="0" y1="133.3" x2="263.9" y2="133.3" xlink:href="#_Безымянный_градиент_2"/>
  </defs>
  <g id="Background">
    <g>
      <path class="cls-1" d="M21.1,61.8h23.9v77.9c0,9.9,8,17.8,17.8,17.8h91.1l45.7,36.5c-2.8,5-8.2,8.3-14.3,8.3h-83.8l-74.5,59.6,13.6-59.6h-19.5c-9.1,0-16.4-7.4-16.4-16.4v-107.7c0-9.1,7.4-16.4,16.4-16.4h0Z"/>
      <path class="cls-4" d="M227.3,210.1l-70.4-56.3c-.8-.7-1.9-1-2.9-1H62.8c-7.2,0-13.1-5.9-13.1-13.1V22.6c0-7.2,5.9-13.1,13.1-13.1h178.5c7.2,0,13.1,5.9,13.1,13.1v117.1c0,7.2-5.9,13.1-13.1,13.1h-21.3c-1.4,0-2.8.6-3.7,1.8-.9,1.1-1.2,2.6-.9,4l11.9,51.5h0Z"/>
      <path class="cls-2" d="M204.9,60.6c2.6,0,4.7-2.1,4.7-4.7s-2.1-4.7-4.7-4.7h-108c-2.6,0-4.7,2.1-4.7,4.7s2.1,4.7,4.7,4.7h108Z"/>
      <path class="cls-3" d="M204.9,109.6c2.6,0,4.7-2.1,4.7-4.7s-2.1-4.7-4.7-4.7h-108c-2.6,0-4.7,2.1-4.7,4.7s2.1,4.7,4.7,4.7h108Z"/>
      <path class="cls-5" d="M62.8,9.4c-7.2,0-13.1,5.9-13.1,13.1v117.1c0,7.2,5.9,13.1,13.1,13.1h91.1c1.1,0,2.1.4,2.9,1l70.4,56.3-11.8-51.6c-.3-1.4,0-2.9.9-4s2.2-1.8,3.7-1.8h21.3c7.2,0,13.1-5.9,13.1-13.1V22.6c0-7.2-5.9-13.1-13.1-13.1H62.8v-.1ZM152.3,162.2H62.8c-12.4,0-22.6-10.1-22.6-22.6v-73.1h-19.1c-6.5,0-11.7,5.3-11.7,11.7v107.7c0,6.5,5.3,11.7,11.7,11.7h19.6c1.4,0,2.8.6,3.7,1.8.9,1.1,1.2,2.6.9,4l-10.6,46.4,64-51.1c.8-.7,1.9-1,2.9-1h83.8c2.4,0,4.6-.7,6.6-2l1.1-.8-40.8-32.7h0ZM27,266.6c-2.6,0-4.7-2.1-4.7-4.7,0-.5.1-.9.2-1.5l12.2-53.4h-13.6c-11.6.1-21.1-9.4-21.1-21.1v-107.7c0-11.7,9.5-21.1,21.1-21.1h19.1V22.6c.1-12.5,10.2-22.6,22.6-22.6h178.5c12.4,0,22.6,10.1,22.6,22.6v117.1c0,12.4-10.1,22.6-22.6,22.6h-15.3l13.5,59c.4,1.9-.4,4-2.1,5-.8.5-1.6.7-2.5.7-1.1,0-2.1-.4-2.9-1l-31.5-25.2-.6.6c-4,3.7-9.1,5.7-14.5,5.7h-82.1l-73.3,58.5c-.8.6-1.9,1-3,1h0Z"/>
    </g>
  </g>
</svg>