<svg xmlns="http://www.w3.org/2000/svg" viewBox="0 0 366.7 366.91"><defs><style>.cls-1{fill:#7b99b3;}.cls-1,.cls-2{fill-rule:evenodd;}.cls-2{fill:#003354;}</style></defs><title>Ресурс 7</title><g id="Слой_2" data-name="Слой 2"><g id="Слой_1-2" data-name="Слой 1"><polygon class="cls-1" points="114.5 108.26 126.59 124.95 145.16 154.6 124.06 177.96 189.35 241.1 209.28 219.5 268.06 252.09 251.2 279.87 244.25 287.14 222.88 290.89 183.35 276.83 149 249.55 104.66 207.9 75.97 147.72 81.18 119.04 105.5 103.86 114.5 108.26"/><path class="cls-2" d="M180.32,1.29c-1.52,1.11-1.81,3.34-2.09,16.06-.18,8.13-.48,14.93-.68,15.12A97.06,97.06,0,0,1,167.2,34c-27.3,3.13-52.44,12.58-73.87,27.78C81.75,69.94,64.42,87.63,56.84,99c-15.66,23.4-22.73,43.61-26.69,76.29L29.58,180h-14c-13.72,0-14,0-15,2.37a4.49,4.49,0,0,0,.05,4.5c1.08,2,1.89,2.13,15,2.13h13.9l.61,5.75c2.24,21.06,3,25,8.26,41.75C42.1,248.24,56.09,271.23,68,285.16c23.29,27.17,62.28,47.44,97,50.42,3.41.29,7.65.75,9.44,1l3.25.49v12.73c0,9.91.35,13.23,1.56,15,1.89,2.7,4.56,2.85,6.78.39,1.37-1.5,1.66-4.15,1.66-15,0-15-1.12-13.54,11-14.7,49.66-4.75,96.13-37.47,119.32-84,8.72-17.5,12-29.59,15.43-57l.75-6,14.67-.06c15.22-.07,17.83-.71,17.83-4.41a5.61,5.61,0,0,0-1.83-3.38c-1.52-1.38-4.25-1.65-16.45-1.65H333.79l-.5-3.25c-.28-1.79-.78-5.95-1.11-9.25C330,144.9,321,121.08,307,100.13c-23.3-35-62.43-59.5-103.82-65.06-4.95-.66-10.46-1.42-12.25-1.68l-3.25-.48V17.66c0-15.59-.47-17.66-4-17.66A7,7,0,0,0,180.32,1.29ZM177.7,50.81c0,7.92.89,10.35,4.2,11.5a4.57,4.57,0,0,0,3.73-1.11c1.68-1.41,2.08-3.09,2.3-9.7l.27-8,7.5.31A112.89,112.89,0,0,1,212,46.06,142.74,142.74,0,0,1,323.22,171.75l.68,7.25h-8.53c-6.42,0-8.92.39-10.1,1.57-2,2-2,2.73.18,5.3,1.47,1.75,3.06,2.14,9.75,2.36l8,.27-.19,7.92c-.39,15.77-5.81,34.62-15.43,53.65A140.65,140.65,0,0,1,199,326c-5.07.63-9.69.86-10.25.51s-1-4.59-1-9.88c0-9.77-.74-11.64-4.58-11.64-3.53,0-4.32,2.08-4.63,12.05l-.29,9.45-7.84-.19c-37.2-.89-78.66-24-103.51-57.61-8-10.78-17.8-31.47-22.21-46.7-2.41-8.33-4.94-23-4.94-28.63V189h9.93c10.13,0,13.07-1,13.07-4.5s-3-4.5-12.6-4.5c-7.62,0-9.58-.3-10.06-1.55-.9-2.36,1.4-18.22,4.22-29.1C54,112,77.14,81.47,110.7,61.77c18.48-10.85,43.19-18.32,61.75-18.67l5.25-.1Zm7.82,41.69c-1.81,4,.88,6,9.79,7.45,37.33,6,65.2,33.92,71.53,71.6,1,6,1.78,8,3.51,9.14s2.7,1.19,4.28.35c6-3.19-1.05-30.55-12.25-47.87a110.33,110.33,0,0,0-23-24.83C226.7,98.77,203.86,90,191.43,90,187.31,90,186.5,90.34,185.52,92.5ZM92.21,106.25C75.14,117.63,71.05,125.45,72,144.92c.41,8.9,1.06,12.16,4.09,20.51,8.38,23,24.51,46.43,48.69,70.57s41.14,37.28,61.78,47.83c17.93,9.17,33.83,12.91,47,11.06,13.35-1.86,21.82-8.49,32.06-25.09,4.19-6.78,5.12-9.12,5.12-12.82,0-2.5-.69-5.52-1.53-6.72s-6.58-5.56-12.75-9.69-14.15-9.57-17.72-12.1c-18.31-12.93-22.78-15.16-28.17-14.09a15.06,15.06,0,0,0-10.23,8,92.71,92.71,0,0,1-5.1,8.73,69.11,69.11,0,0,0-3.85,6.3c-.22.58-2.57-1.43-5.24-4.45-10.27-11.64-33.41-34.66-44.41-44.2-6.32-5.48-11.5-10.45-11.5-11s3.82-3.45,8.5-6.35c9.55-5.94,12-9,12-15.13,0-3.79-1.59-6.6-15.6-27.5C116.53,101.07,114.63,99,107.91,99,103.58,99,102,99.75,92.21,106.25ZM125.83,132c8.74,12.93,15.77,24.17,15.62,25-.32,1.73-7.65,6.8-16,11.11-6.12,3.14-8.35,6.2-7.38,10.1.77,3,1.62,3.9,19,19.21,8.06,7.1,19,17.68,24.3,23.5,25.12,27.58,27.6,30.09,29.75,30.09,3.67,0,6.34-2.73,10-10.26,4.32-8.82,10.06-16.74,12.13-16.74.85,0,3.88,1.7,6.74,3.78,8.22,6,31.23,21.48,35.68,24.05,6.73,3.88,6.86,5.17,1.43,13.89-6.14,9.85-9.63,13.74-15.29,17.07-4.26,2.5-5.45,2.71-15.61,2.71-12.75,0-18.74-1.66-34.65-9.6-23-11.5-45.26-29.79-71-58.4-18.27-20.3-31.56-41.71-37-59.5-3.18-10.49-3.2-23.65,0-30.1a29.81,29.81,0,0,1,5-7.16c4.79-4.53,17.65-12.72,19.58-12.48C109.27,108.42,115.6,116.88,125.83,132Zm57.87-11c-2.18,4.07,0,6.61,6.67,7.79,24,4.26,42.09,21.68,46.89,45.21,1.9,9.32,5,12.28,8.87,8.43,3.13-3.14.91-14.12-5.52-27.25-9.33-19.05-30.34-34.14-50-35.93C185.45,118.79,184.79,119,183.7,121ZM182,151.11a5.7,5.7,0,0,0-1.25,3.47c0,2.81,1.22,3.65,8.5,5.85a24.94,24.94,0,0,1,17,17.08c2.05,7.15,3,8.49,6,8.49,3.52,0,4.85-2.4,4.15-7.51-1.34-9.82-9-20.12-18.69-25C191.57,150.39,183.78,149.22,182,151.11Zm-10.52,29.43c-3.23,3.23-4.11,6.78-2.72,11,1.94,5.9,9.58,8.64,15.39,5.53,3.37-1.8,5.91-7.34,5.1-11.07C187.57,178.59,176.71,175.26,171.43,180.54Z"/></g></g></svg>