<?xml version="1.0" encoding="UTF-8"?>
<svg id="_Слой_2" data-name="Слой 2" xmlns="http://www.w3.org/2000/svg" xmlns:xlink="http://www.w3.org/1999/xlink" viewBox="0 0 308.9 301.3">
  <defs>
    <style>
      .cls-1 {
        fill: url(#_Безымянный_градиент_2);
      }

      .cls-1, .cls-2, .cls-3 {
        stroke-width: 0px;
      }

      .cls-2 {
        fill: url(#_Безымянный_градиент_2-2);
      }

      .cls-3 {
        fill: #fff;
      }
    </style>
    <linearGradient id="_Безымянный_градиент_2" data-name="Безымянный градиент 2" x1="9" y1="208.7" x2="284.3" y2="208.7" gradientUnits="userSpaceOnUse">
      <stop offset="0" stop-color="#3652e2"/>
      <stop offset="1" stop-color="#b5289b"/>
    </linearGradient>
    <linearGradient id="_Безымянный_градиент_2-2" data-name="Безымянный градиент 2" x1="0" y1="150.65" x2="308.9" y2="150.65" xlink:href="#_Безымянный_градиент_2"/>
  </defs>
  <g id="Background">
    <g>
      <path class="cls-3" d="M172,18.8c0-5.4,4.4-9.8,9.8-9.8s9.8,4.4,9.8,9.8v63.3h-19.6V18.8h0Z"/>
      <path class="cls-3" d="M251.3,18.8c0-5.4,4.4-9.8,9.8-9.8s9.8,4.4,9.8,9.8v63.3h-19.6V18.8h0Z"/>
      <path class="cls-1" d="M41.2,137.4c25.6,0,46.4,20.8,46.4,46.4v65.9c0,9.6,7.8,17.4,17.4,17.4h86.5c9.6,0,17.4-7.8,17.4-17.4v-29.4c0-2.2-1.7-4.1-3.9-4.5-26.5-3.7-46.4-26.6-46.4-53.3v-37.3h125.7v37.3c0,26.7-19.8,49.5-46.2,53.3h-18.6c-2.5,0-4.5,2-4.5,4.5s2,4.5,4.5,4.5h14.5v24.9c0,23.5-19.1,42.5-42.5,42.5h-86.5c-23.5,0-42.5-19.1-42.5-42.5v-65.9c0-11.7-9.5-21.3-21.3-21.3H9v-25.1h32.2Z"/>
      <path class="cls-3" d="M208.9,175.7c0-6.9,5.6-12.6,12.6-12.6s12.6,5.6,12.6,12.6-5.6,12.6-12.6,12.6-12.6-5.7-12.6-12.6h0ZM221.4,197.3c11.9,0,21.6-9.7,21.6-21.6s-9.7-21.6-21.6-21.6-21.6,9.7-21.6,21.6c.1,11.9,9.7,21.6,21.6,21.6h0Z"/>
      <path class="cls-3" d="M208.9,175.7c0-6.9,5.6-12.6,12.6-12.6s12.6,5.6,12.6,12.6-5.6,12.6-12.6,12.6-12.6-5.7-12.6-12.6h0Z"/>
      <path class="cls-2" d="M296.6,82.2h-16.7V18.8c0-10.4-8.4-18.8-18.8-18.8s-18.8,8.4-18.8,18.8v63.3h-41.8V18.8c0-10.4-8.4-18.8-18.8-18.8s-18.7,8.4-18.7,18.8v63.3h-16.7c-6.8,0-12.3,5.5-12.3,12.3v18.5c0,6.8,5.5,12.3,12.3,12.3h3.3v37.3c0,29.9,21.4,55.7,50.3,61.6v25.6c0,4.6-3.8,8.4-8.4,8.4h-86.5c-4.6,0-8.4-3.8-8.4-8.4v-65.9c0-30.6-24.9-55.4-55.4-55.4H4.5c-2.5,0-4.5,2-4.5,4.5v34.5c.2,2.3,2.1,4.2,4.5,4.2h36.7c6.8,0,12.3,5.5,12.3,12.3v65.9c0,28.4,23.1,51.5,51.5,51.5h86.5c28.4,0,51.5-23.1,51.5-51.5v-25.6c28.9-5.9,50.3-31.7,50.3-61.6v-37.3h3.3c6.8,0,12.3-5.5,12.3-12.3v-18.5c0-6.8-5.5-12.3-12.3-12.3ZM251.3,18.8c0-5.4,4.4-9.8,9.8-9.8s9.8,4.4,9.8,9.8v63.3h-19.6V18.8ZM172,18.8c0-5.4,4.4-9.8,9.8-9.8s9.8,4.4,9.8,9.8v63.3h-19.6V18.8ZM284.3,162.5c0,26.7-19.8,49.5-46.2,53.3h-18.6c-2.5,0-4.5,2-4.5,4.5s2,4.5,4.5,4.5h14.5v24.9c0,23.5-19.1,42.5-42.5,42.5h-86.5c-23.5,0-42.5-19.1-42.5-42.5v-65.9c0-11.7-9.6-21.3-21.3-21.3H9v-25.1h32.2c25.6,0,46.4,20.8,46.4,46.4v65.9c0,9.6,7.8,17.4,17.4,17.4h86.5c9.6,0,17.4-7.8,17.4-17.4v-29.4c0-2.2-1.7-4.1-3.9-4.5-26.5-3.7-46.4-26.6-46.4-53.3v-37.3h125.7v37.3ZM300,113c0,1.8-1.5,3.3-3.3,3.3h-.1c1.8,0,3.3-1.5,3.3-3.3v-18.5c0-1.8-1.5-3.3-3.3-3.3h.1c1.8,0,3.3,1.5,3.3,3.3v18.5Z"/>
    </g>
  </g>
</svg>