<svg xmlns="http://www.w3.org/2000/svg" viewBox="0 0 514.74 561.57"><defs><style>.cls-1{fill:none;stroke-width:11px;}.cls-1,.cls-2{stroke:#003354;stroke-miterlimit:10;}.cls-2{fill:#7b99b3;stroke-width:8px;}</style></defs><title>Ресурс 2</title><g id="Слой_2" data-name="Слой 2"><g id="Social_media" data-name="Social media"><path class="cls-1" d="M429.5,5.5H85.25A79.74,79.74,0,0,0,5.5,85.25V381.49a79.75,79.75,0,0,0,79.75,79.75h94.14l67.69,89.7a12.9,12.9,0,0,0,20.59,0l67.69-89.7H429.5a79.75,79.75,0,0,0,79.74-79.75V85.25A79.74,79.74,0,0,0,429.5,5.5Z"/><path class="cls-2" d="M304,189.23a49.58,49.58,0,1,1-49.58-49.57A49.58,49.58,0,0,1,304,189.23Zm72.29,131.52h0A66.71,66.71,0,0,0,309.53,254H199.22a66.71,66.71,0,0,0-66.71,66.71h0a19.65,19.65,0,0,0,19.65,19.65H356.59A19.65,19.65,0,0,0,376.24,320.75Z"/></g></g></svg>