<?xml version="1.0" encoding="UTF-8"?>
<svg id="_Слой_2" data-name="Слой 2" xmlns="http://www.w3.org/2000/svg" xmlns:xlink="http://www.w3.org/1999/xlink" viewBox="0 0 309 309">
  <defs>
    <style>
      .cls-1 {
        fill: url(#_Безымянный_градиент_2);
      }

      .cls-1, .cls-2, .cls-3, .cls-4, .cls-5, .cls-6 {
        stroke-width: 0px;
      }

      .cls-2 {
        fill: url(#_Безымянный_градиент_2-2);
      }

      .cls-3 {
        fill: url(#_Безымянный_градиент_2-5);
      }

      .cls-4 {
        fill: url(#_Безымянный_градиент_2-3);
      }

      .cls-5 {
        fill: #fff;
      }

      .cls-6 {
        fill: url(#_Безымянный_градиент_2-4);
      }
    </style>
    <linearGradient id="_Безымянный_градиент_2" data-name="Безымянный градиент 2" x1="0" y1="151.69" x2="144.51" y2="151.69" gradientUnits="userSpaceOnUse">
      <stop offset="0" stop-color="#3652e2"/>
      <stop offset="1" stop-color="#b5289b"/>
    </linearGradient>
    <linearGradient id="_Безымянный_градиент_2-2" data-name="Безымянный градиент 2" x1="41.19" y1="71.05" x2="150.3" y2="71.05" xlink:href="#_Безымянный_градиент_2"/>
    <linearGradient id="_Безымянный_градиент_2-3" data-name="Безымянный градиент 2" x1="9" y1="151.75" x2="132.7" y2="151.75" xlink:href="#_Безымянный_градиент_2"/>
    <linearGradient id="_Безымянный_градиент_2-4" data-name="Безымянный градиент 2" x1="43.24" y1="162.5" x2="309" y2="162.5" xlink:href="#_Безымянный_градиент_2"/>
    <linearGradient id="_Безымянный_градиент_2-5" data-name="Безымянный градиент 2" x1="78.8" y1="161.4" x2="269.7" y2="161.4" xlink:href="#_Безымянный_градиент_2"/>
  </defs>
  <g id="Background">
    <g>
      <path class="cls-1" d="M132.7,157.6L28.7,229.3c-12.9-21.3-19.7-45.7-19.7-70.9,0-30.5,10.2-60.2,28.8-84.2l94.9,83.4h0ZM144.5,158.3c.1-1.4-.5-2.7-1.5-3.6L40.2,64.3c-.9-.8-2.1-1.2-3.3-1.1-1.2.1-2.3.7-3.1,1.6C12,91.1,0,124.3,0,158.4c0,28.4,8.2,56,23.6,79.7.7,1,1.7,1.7,2.9,2,.3.1.6.1.9.1.9,0,1.8-.3,2.6-.8l112.7-77.7c1-.7,1.8-2,1.8-3.4h0Z"/>
      <path class="cls-2" d="M141.2,127.7L52.2,49.5c23.9-24.1,55.2-38.2,89-40.3v118.5h0ZM142.8,141c.8.7,1.9,1.1,3,1.1.6,0,1.3-.1,1.9-.4,1.6-.7,2.6-2.3,2.6-4.1V4.5c0-1.2-.5-2.4-1.4-3.2-.9-.8-2-1.3-3.3-1.3-39.5,1.1-76.2,17.7-103.2,46.7-.8.9-1.3,2.1-1.2,3.3s.6,2.4,1.5,3.2l100.1,87.8h0Z"/>
      <path class="cls-4" d="M132.7,157.6L28.7,229.3c-12.9-21.3-19.7-45.7-19.7-70.9,0-30.5,10.2-60.2,28.8-84.2l94.9,83.4h0Z"/>
      <path class="cls-5" d="M141.2,127.7L52.2,49.5c23.9-24.1,55.2-38.2,89-40.3v118.5h0Z"/>
      <path class="cls-6" d="M300,162.4c0,75.8-61.7,137.5-137.5,137.5-42.1,0-82.2-19.6-108.2-52.6l17.1-11.8c22.3,27.2,55,42.7,90.3,42.7,64.5,0,117-52.5,117-117,0-30.4-11.6-59.2-32.6-81.1-20-20.8-46.5-33.3-75.1-35.5v-19.4c72.7,4.3,129,63.8,129,137.2h0ZM171,162.4V53.6c55.7,4.7,98.7,51.1,98.7,107.6,0,59.6-48.4,108-108,108-32.4,0-62.3-14.1-82.9-38.8l88.5-61h0l.3-.3c.3-.2.5-.4.8-.7l.3-.3c.4-.4.6-.8.9-1.2.1-.1.1-.2.2-.3.2-.3.4-.7.5-1,.1-.1.1-.3.2-.4.1-.3.2-.7.3-1,0-.1.1-.2.1-.4,0-.5.1-.9.1-1.4h0ZM309,162.4c0-38.4-14.8-74.7-41.6-102.2-26.7-27.5-62.5-43.2-100.8-44.2-1.2,0-2.4.4-3.3,1.3-.9.8-1.4,2-1.4,3.2v141.7l-92.3,63.6h0l-24.4,16.8c-1,.7-1.7,1.8-1.9,3s.1,2.4.8,3.4c27.5,37.6,71.7,60,118.3,60,80.9-.1,146.6-65.8,146.6-146.6h0Z"/>
      <path class="cls-3" d="M171,53.6c55.7,4.7,98.7,51.1,98.7,107.6,0,59.6-48.4,108-108,108-32.4,0-62.3-14.1-82.9-38.8l88.5-61h0l.3-.3c.3-.2.5-.4.8-.7l.3-.3c.4-.4.6-.8.9-1.2.1-.1.1-.2.2-.3.2-.3.4-.7.5-1,.1-.1.1-.3.2-.4.1-.3.2-.7.3-1,0-.1.1-.2.1-.4.1-.5.1-.9.1-1.4V53.6h0Z"/>
      <path class="cls-5" d="M71.3,235.6c22.3,27.2,55,42.7,90.3,42.7,64.5,0,117-52.5,117-117,0-30.4-11.6-59.2-32.6-81.1-20-20.8-46.5-33.3-75.1-35.5v-19.5c72.7,4.4,129,63.8,129,137.3s-61.7,137.5-137.5,137.5c-42.1,0-82.2-19.6-108.2-52.6l17.1-11.8h0Z"/>
    </g>
  </g>
</svg>