<?xml version="1.0" encoding="utf-8"?>
<!-- Generator: Adobe Illustrator 23.1.0, SVG Export Plug-In . SVG Version: 6.00 Build 0)  -->
<svg version="1.1" id="Слой_1" xmlns="http://www.w3.org/2000/svg" xmlns:xlink="http://www.w3.org/1999/xlink" x="0px" y="0px"
	 viewBox="0 0 122.8 98.6" style="enable-background:new 0 0 122.8 98.6;" xml:space="preserve">
<style type="text/css">
	.st0{fill:#FFFFFF;}
	.st1{fill-rule:evenodd;clip-rule:evenodd;fill:#7B99B3;}
	.st2{fill:#003354;}
</style>
<path class="st0" d="M112.9,78.8H28c-3.3,0-6-2.7-6-6V8.5c0-3.3,2.7-6,6-6h84.8c3.3,0,6,2.7,6,6v64.2
	C118.9,76.1,116.2,78.8,112.9,78.8z"/>
<title>Ресурс 1</title>
<g>
	<g id="Layer_1">
		<path class="st1" d="M7.5,97.5C3.9,97.5,1,94.6,1,91V24c0-3.2,2.3-6,5.5-6.5L6.2,40v49.3c0,0.8,0.3,1.6,0.9,2.2
			c0.6,0.6,1.4,0.9,2.2,0.9h86.1c0.8,0,1.6-0.3,2.2-0.9c0.3-0.3,0.6-0.7,0.8-1.2h5V91c0,3.6-2.9,6.5-6.6,6.6L7.5,97.5z M26,81.1
			c-3.6,0-6.5-2.9-6.5-6.6v-67C19.5,3.9,22.4,1,26,1h89.3c3.6,0,6.5,2.9,6.6,6.6v67c0,3.6-2.9,6.5-6.6,6.6L26,81.1z M24.6,72.9
			c0,0.8,0.3,1.6,0.9,2.2c0.6,0.6,1.4,0.9,2.2,0.9h86.1c0.8,0,1.6-0.3,2.2-0.9c0.6-0.6,0.9-1.4,0.9-2.2V23.5l-1,1v-2H24.7L24.6,72.9
			z M108.1,7.5c-1.3,0-2.5,0.5-3.4,1.4c-0.9,0.9-1.4,2.1-1.4,3.3c0,2.6,2.1,4.7,4.7,4.7c2.6,0,4.7-2.1,4.7-4.7S110.8,7.5,108.1,7.5z
			 M95.5,7.5c-2.6,0-4.7,2.1-4.7,4.7s2.1,4.7,4.7,4.7c2.6,0,4.7-2.1,4.7-4.7S98.1,7.5,95.5,7.5L95.5,7.5z M82.8,7.5
			c-1.3,0-2.5,0.5-3.4,1.4c-0.9,0.9-1.4,2.1-1.4,3.3c0,2.6,2.1,4.7,4.7,4.7c2.6,0,4.7-2.1,4.7-4.7S85.5,7.5,82.8,7.5z M65.8,62.5
			l8-28.8h2l-8,28.8H65.8z M56.3,61.5c-0.2,0-0.4,0-0.6-0.1c-0.2-0.1-0.3-0.2-0.4-0.3c-0.2-0.3-0.4-0.6-0.5-0.9l-0.4-0.9l-0.2-0.5
			L52.8,55H41l-1.5,3.9c-0.3,0.8-0.6,1.6-1.1,2.3c-0.1,0.1-0.2,0.3-0.9,0.3c-0.4,0-0.8-0.2-1.1-0.5c-0.3-0.2-0.4-0.6-0.4-0.9
			c0-0.3,0-0.5,0.1-0.8c0.1-0.3,0.3-0.8,0.5-1.5L44,39.5c0.2-0.5,0.4-1,0.7-1.5c0.2-0.3,0.5-0.6,0.8-0.8c0.4-0.2,0.9-0.3,1.3-0.3
			c0.5,0,0.9,0.1,1.3,0.3c0.3,0.2,0.6,0.5,0.8,0.8c0.3,0.4,0.5,0.8,0.6,1.2l0.1,0.3c0.2,0.5,0.4,1,0.7,1.7l6.7,16.6
			c0.4,0.7,0.6,1.5,0.7,2.4c0,0.4-0.2,0.7-0.5,0.9C57.1,61.4,56.7,61.5,56.3,61.5L56.3,61.5z M41.6,53h10.5l-5.3-14.5L41.6,53z
			 M88.4,61.1c-0.6,0.1-1.2-0.1-1.7-0.5c-0.4-0.5-0.5-1.1-0.5-1.7V39.6c-0.1-0.6,0.1-1.2,0.4-1.7c0.5-0.4,1.1-0.5,1.7-0.5h8.3
			c1,0,2,0.1,3,0.2c0.7,0.1,1.4,0.4,2.1,0.7c0.5,0.3,1,0.7,1.4,1.2c0.4,0.5,0.7,1,0.9,1.5c1,2.6-0.4,5.5-3,6.5l-2.3,1.1l2.4,0.8
			c3,1,4.4,2.7,4.4,5.3c0,1.2-0.3,2.4-1,3.3c-0.6,1-1.5,1.7-2.5,2.2c-0.8,0.3-1.6,0.5-2.4,0.6c-1.1,0.1-2.3,0.2-3.4,0.2H88.4z
			 M89.4,59.2H96c5.5,0,6.3-3,6.3-4.8c0.1-1.5-0.6-2.9-1.8-3.7c-1.4-0.8-3-1.1-4.6-1h-6.4L89.4,59.2z M89.4,47.9h5.8
			c1.1,0,2.2-0.1,3.3-0.4c0.9-0.3,1.7-1,2.2-1.9c0.4-0.6,0.6-1.4,0.6-2.1c0.1-1.5-0.7-2.9-2-3.5c-1.5-0.6-3.1-0.8-4.7-0.7h-5.2
			L89.4,47.9z"/>
		<path class="st2" d="M115.3,2c3.1,0,5.5,2.5,5.6,5.6v67c0,3.1-2.5,5.5-5.6,5.6H26c-3.1,0-5.5-2.5-5.5-5.6v-67
			C20.5,4.5,22.9,2,26,2H115.3 M108.1,18c3.2,0,5.7-2.6,5.7-5.7c0-3.2-2.6-5.7-5.7-5.7c-1.5,0-3,0.6-4.1,1.7c-1.1,1.1-1.7,2.5-1.7,4
			C102.4,15.4,104.9,18,108.1,18C108.1,18,108.1,18,108.1,18 M95.5,18c3.2,0,5.7-2.6,5.7-5.7s-2.6-5.7-5.7-5.7s-5.7,2.6-5.7,5.7
			C89.8,15.4,92.3,18,95.5,18 M82.8,18c3.2,0,5.7-2.6,5.7-5.7c0-3.2-2.6-5.7-5.7-5.7c-1.5,0-3,0.6-4.1,1.7c-1.1,1.1-1.7,2.5-1.7,4
			C77.1,15.4,79.7,18,82.8,18C82.8,18,82.8,18,82.8,18 M27.8,77h86.1c1.1,0,2.1-0.4,2.9-1.2c0.8-0.8,1.2-1.8,1.2-2.9V23.5h-2v-2
			H23.7v51.3c0,1.1,0.4,2.1,1.2,2.9C25.6,76.6,26.7,77,27.8,77 M5.5,18.8L5.2,40v49.3c0,1.1,0.4,2.1,1.2,2.9
			c0.8,0.8,1.8,1.2,2.9,1.2h86.1c1.1,0,2.1-0.4,2.9-1.2c0.3-0.3,0.5-0.6,0.7-0.9h3.4c-0.2,2.9-2.6,5.2-5.5,5.2H7.5
			C4.5,96.5,2,94,2,91V24C2,21.7,3.4,19.7,5.5,18.8 M115.3,0H26c-4.2,0-7.5,3.4-7.5,7.6v67c0,4.2,3.4,7.5,7.5,7.5h89.3
			c4.2,0,7.5-3.4,7.6-7.6v-67C122.8,3.4,119.5,0,115.3,0z M108.1,16c-2.1,0-3.7-1.7-3.7-3.7s1.7-3.7,3.7-3.7s3.7,1.7,3.7,3.7
			S110.2,16,108.1,16L108.1,16z M95.5,16c-2.1,0-3.7-1.7-3.7-3.7s1.7-3.7,3.7-3.7s3.7,1.7,3.7,3.7S97.6,16,95.5,16L95.5,16z
			 M82.8,16c-2.1,0-3.7-1.7-3.7-3.7s1.7-3.7,3.7-3.7s3.7,1.7,3.7,3.7S84.9,16,82.8,16L82.8,16z M116,23.5L116,23.5v49.3
			c0,0.6-0.2,1.1-0.6,1.5c-0.4,0.4-0.9,0.6-1.5,0.6H27.8c-0.6,0-1.1-0.2-1.5-0.6c-0.4-0.4-0.6-0.9-0.6-1.5V23.5H116z M7.6,16.4
			C3.4,16.5,0,19.8,0,24v67c0,4.2,3.4,7.5,7.5,7.6h89.3c4.2,0,7.5-3.4,7.6-7.6v-1.7h-6.9c0,0.6-0.2,1.1-0.6,1.5
			c-0.4,0.4-0.9,0.6-1.5,0.6H9.3c-0.6,0-1.1-0.2-1.5-0.6c-0.4-0.4-0.6-0.9-0.6-1.5V40L7.6,16.4L7.6,16.4z M76.4,32.8h-2.8
			c-0.3,0-0.6,0.2-0.6,0.5l-8.2,29.5c-0.1,0.3,0.1,0.7,0.4,0.8h0.2h2.8c0.3,0,0.6-0.2,0.6-0.5L77,33.5c0.1-0.3-0.1-0.7-0.4-0.8
			L76.4,32.8L76.4,32.8z M46.9,36c-1.2-0.1-2.3,0.5-3,1.5c-0.3,0.5-0.6,1.1-0.8,1.7c-0.3,0.7-0.5,1.2-0.7,1.7l-6.5,16.6
			c-0.3,0.7-0.5,1.2-0.6,1.6c-0.1,0.4-0.2,0.7-0.2,1.1c0,0.6,0.3,1.2,0.8,1.6c0.5,0.5,1.1,0.7,1.7,0.7c0.6,0,1.2-0.2,1.7-0.7
			c0.5-0.8,0.9-1.7,1.2-2.6l1.2-3.3h10.5l1.2,3.2c0.2,0.4,0.4,0.8,0.6,1.4c0.2,0.4,0.4,0.8,0.6,1.2c0.2,0.2,0.5,0.4,0.7,0.6
			c0.3,0.2,0.7,0.2,1,0.2c0.7,0,1.3-0.3,1.8-0.7c0.5-0.4,0.7-1,0.7-1.6c-0.1-1-0.4-1.9-0.8-2.8l-6.7-16.6c-0.3-0.8-0.6-1.5-0.8-2
			c-0.2-0.5-0.4-1-0.8-1.4c-0.3-0.4-0.7-0.8-1.2-1.1C48.1,36.1,47.5,36,46.9,36z M43,52l3.8-10.6L50.7,52H43z M96.8,36.4h-8.3
			c-0.9-0.1-1.7,0.2-2.4,0.8c-0.6,0.7-0.8,1.6-0.8,2.4v19.3c-0.1,0.9,0.2,1.7,0.7,2.4c0.7,0.6,1.6,0.9,2.4,0.8h7.9
			c1.2,0,2.4-0.1,3.6-0.2c0.9-0.1,1.8-0.3,2.7-0.7c1.2-0.5,2.3-1.4,3-2.5c0.7-1.2,1.1-2.5,1.1-3.9c0-3.1-1.7-5.2-5.1-6.3
			c2.4-0.9,3.9-3.1,3.9-5.7c0-0.7-0.1-1.4-0.4-2.1c-0.3-0.7-0.6-1.3-1.1-1.8c-0.5-0.5-1-1-1.6-1.4c-0.7-0.4-1.6-0.7-2.4-0.9
			C98.9,36.4,97.8,36.4,96.8,36.4z M90.5,46.9v-6.7h4.2c1.4-0.1,2.9,0.1,4.2,0.6c1,0.5,1.5,1.5,1.4,2.6c0,0.6-0.1,1.2-0.4,1.7
			c-0.3,0.7-0.9,1.2-1.6,1.4c-1,0.3-2,0.4-3,0.4H90.5z M90.5,58.2v-7.5h5.4c1.4-0.1,2.8,0.2,4.1,0.9c0.9,0.6,1.5,1.7,1.4,2.8
			c0,2.5-1.8,3.8-5.3,3.8L90.5,58.2z"/>
	</g>
</g>
</svg>
