<?xml version="1.0" encoding="utf-8"?>
<!-- Generator: Adobe Illustrator 23.1.0, SVG Export Plug-In . SVG Version: 6.00 Build 0)  -->
<svg version="1.1" id="Слой_1" xmlns="http://www.w3.org/2000/svg" xmlns:xlink="http://www.w3.org/1999/xlink" x="0px" y="0px"
	 viewBox="0 0 1669.4 1489.5" style="enable-background:new 0 0 1669.4 1489.5;" xml:space="preserve">
<style type="text/css">
	.st0{fill:#FFFFFF;}
	.st1{fill:#7B99B3;}
	.st2{display:none;fill:#003354;}
	.st3{fill:#7B99B3;stroke:#003354;stroke-width:26;stroke-miterlimit:10;}
</style>
<title>Ресурс 1</title>
<g>
	<g id="Layer_1">
		<path class="st0" d="M614.6,372.9h422.9c243.5,0,441,197.4,441,441v109.6c0,243.5-197.4,441-441,441H614.6
			c-243.5,0-441-197.4-441-441V813.9C173.6,570.4,371.1,372.9,614.6,372.9z"/>
		<path class="st1" d="M1193.4,1173l-4.9,2.8c-43.8,24.8-93.3,37.9-143.7,37.9H624.6c-161.1,0-292.3-131.1-292.3-292.3V814.6
			c0-161.1,131.1-292.3,292.3-292.3h420.2c161.1,0,292.2,131.1,292.2,292.3v106.9c0,52.4-14.1,103.9-40.9,148.9l-2.8,4.7l38,140.2
			L1193.4,1173z"/>
		<path class="st2" d="M1044.8,535.3c154,0,279.2,125.3,279.2,279.3v106.9c0,50.1-13.5,99.2-39,142.3l-5.6,9.5l2.9,10.6l30.4,112.1
			l-110.1-33.7l-10.7-3.3l-9.7,5.5c-41.9,23.7-89.2,36.2-137.3,36.2H624.6c-154,0-279.3-125.3-279.3-279.3V814.6
			c0-154,125.3-279.3,279.3-279.3H1044.8 M1044.8,509.3H624.6c-168.3,0-305.3,136.9-305.3,305.3v106.9
			c0,168.3,136.9,305.3,305.3,305.3h420.2c52.6,0.1,104.4-13.6,150.1-39.6l155.1,47.5l-42.7-157.6c28-47.1,42.8-100.8,42.7-155.6
			V814.6C1350,646.2,1213.1,509.3,1044.8,509.3L1044.8,509.3z"/>
		<path class="st3" d="M1577.3,698.1H1530c-25.1-75.6-67.5-144.3-124-200.5c-96.5-96.5-224.8-149.6-361.2-149.6h-44.2v-11.2
			c0-28-22.7-50.8-50.8-50.8h-80.9v-72.4c53.8-18.9,82.1-77.9,63.1-131.7S854.2,0,800.4,18.9s-82.1,77.9-63.1,131.7
			c10.4,29.5,33.6,52.7,63.1,63.1V286h-80.9c-28,0-50.8,22.7-50.8,50.8V348h-44.2c-136.5,0-264.7,53.1-361.2,149.6
			c-56.5,56.2-98.9,124.9-124,200.5H92.1c-43.7,0-79.1,35.4-79.1,79v270.2c0,43.7,35.4,79.1,79.1,79.1h47.3
			c25.1,75.6,67.5,144.3,124,200.5c96.5,96.5,224.8,149.6,361.2,149.6h420.2c136.4,0,264.7-53.1,361.2-149.6
			c56.5-56.2,98.9-124.9,124-200.5h47.3c43.7,0,79.1-35.4,79.1-79.1l0,0V777.1C1656.4,733.5,1621,698.1,1577.3,698.1L1577.3,698.1z
			 M1487.1,965.7c0,243.9-198.4,442.3-442.3,442.3H624.6c-243.9,0-442.3-198.4-442.3-442.3V858.8c0-243.9,198.4-442.3,442.3-442.3
			h420.2c243.9,0,442.3,198.4,442.3,442.3L1487.1,965.7z"/>
		<path class="st0" d="M563.1,1020.9c-38.3,0-69.4-31.1-69.5-69.5V836.9c-0.5-38.4,30.3-69.8,68.6-70.3s69.8,30.3,70.3,68.6
			c0,0.6,0,1.1,0,1.7v114.6C632.6,989.8,601.5,1020.9,563.1,1020.9z"/>
		<path class="st2" d="M563.1,780.4c31.2,0,56.4,25.3,56.5,56.5v114.6c0.4,31.2-24.5,56.8-55.7,57.2s-56.8-24.5-57.2-55.7
			c0-0.5,0-1,0-1.5V836.9C506.7,805.7,532,780.4,563.1,780.4 M563.1,754.4L563.1,754.4c-45.5,0-82.5,36.9-82.5,82.5l0,0v114.6
			c0,45.5,36.9,82.5,82.5,82.5l0,0c45.5,0,82.5-36.9,82.5-82.5V836.9C645.6,791.3,608.7,754.4,563.1,754.4z"/>
		<path class="st0" d="M1106.2,1020.9c-38.3,0-69.4-31.1-69.5-69.5V836.9c0-38.4,31.2-69.4,69.5-69.4s69.4,31.1,69.4,69.4v114.6
			C1175.6,989.8,1144.6,1020.9,1106.2,1020.9z"/>
		<path class="st2" d="M1106.2,780.4c31.2,0,56.4,25.3,56.5,56.5v114.6c0.4,31.2-24.5,56.8-55.7,57.2s-56.8-24.5-57.2-55.7
			c0-0.5,0-1,0-1.5V836.9C1049.8,805.7,1075,780.4,1106.2,780.4 M1106.2,754.4L1106.2,754.4c-45.5,0-82.5,36.9-82.5,82.5v114.6
			c0,45.5,36.9,82.5,82.5,82.5l0,0c45.5,0,82.5-36.9,82.5-82.5V836.9C1188.7,791.3,1151.8,754.4,1106.2,754.4L1106.2,754.4z"/>
		
			<ellipse transform="matrix(0.2297 -0.9733 0.9733 0.2297 573.4647 867.2205)" class="st0" cx="834.6" cy="71.3" rx="31.3" ry="31.3"/>
	</g>
</g>
</svg>
