<?xml version="1.0" encoding="UTF-8"?>
<svg id="_Слой_2" data-name="Слой 2" xmlns="http://www.w3.org/2000/svg" xmlns:xlink="http://www.w3.org/1999/xlink" viewBox="0 0 309 309">
  <defs>
    <style>
      .cls-1 {
        fill: url(#_Безымянный_градиент_2);
      }

      .cls-1, .cls-2, .cls-3, .cls-4, .cls-5, .cls-6 {
        stroke-width: 0px;
      }

      .cls-2 {
        fill: url(#_Безымянный_градиент_2-2);
      }

      .cls-3 {
        fill: url(#_Безымянный_градиент_2-5);
      }

      .cls-4 {
        fill: url(#_Безымянный_градиент_2-3);
      }

      .cls-5 {
        fill: #fff;
      }

      .cls-6 {
        fill: url(#_Безымянный_градиент_2-4);
      }
    </style>
    <linearGradient id="_Безымянный_градиент_2" data-name="Безымянный градиент 2" x1="186.3" y1="79.5" x2="272.7" y2="79.5" gradientUnits="userSpaceOnUse">
      <stop offset="0" stop-color="#3652e2"/>
      <stop offset="1" stop-color="#b5289b"/>
    </linearGradient>
    <linearGradient id="_Безымянный_градиент_2-2" data-name="Безымянный градиент 2" x1="0" y1="154.5" x2="309" y2="154.5" xlink:href="#_Безымянный_градиент_2"/>
    <linearGradient id="_Безымянный_градиент_2-3" data-name="Безымянный градиент 2" x1="36.3" y1="229.5" x2="122.7" y2="229.5" xlink:href="#_Безымянный_градиент_2"/>
    <linearGradient id="_Безымянный_градиент_2-4" data-name="Безымянный градиент 2" x1="195.3" x2="263.7" xlink:href="#_Безымянный_градиент_2"/>
    <linearGradient id="_Безымянный_градиент_2-5" data-name="Безымянный градиент 2" x1="45.3" y1="229.5" x2="113.7" y2="229.5" xlink:href="#_Безымянный_градиент_2"/>
  </defs>
  <g id="Background">
    <g>
      <path class="cls-5" d="M300,31.9v118.1h-141V9h118.1c12.6,0,22.9,10.3,22.9,22.9h0Z"/>
      <path class="cls-5" d="M150,300H31.9c-12.6,0-22.9-10.3-22.9-22.9v-118.1h141v141h0Z"/>
      <path class="cls-1" d="M195.3,79.5c0-18.9,15.3-34.2,34.2-34.2s34.2,15.3,34.2,34.2-15.3,34.2-34.2,34.2-34.2-15.3-34.2-34.2h0ZM186.3,79.5c0,23.8,19.4,43.2,43.2,43.2s43.2-19.4,43.2-43.2-19.4-43.2-43.2-43.2-43.2,19.4-43.2,43.2h0Z"/>
      <path class="cls-5" d="M38.9,79.5c0-22.4,18.2-40.6,40.6-40.6s40.6,18.2,40.6,40.6-18.2,40.6-40.6,40.6-40.6-18.2-40.6-40.6h0ZM29.9,79.5c0,27.3,22.2,49.6,49.6,49.6s49.6-22.2,49.6-49.6-22.2-49.6-49.6-49.6-49.6,22.3-49.6,49.6h0Z"/>
      <path class="cls-2" d="M277.1,0H31.9C14.3,0,0,14.3,0,31.9v245.2c0,17.6,14.3,31.9,31.9,31.9h245.2c17.6,0,31.9-14.3,31.9-31.9V31.9c0-17.6-14.3-31.9-31.9-31.9ZM150,300H31.9c-12.6,0-22.9-10.3-22.9-22.9v-118.1h141v141ZM159,9h118.1c12.6,0,22.9,10.3,22.9,22.9v118.1h-141V9ZM277.1,300h-118.1v-141h0v141h118.1c8.27,0,15.55-4.44,19.57-11.05-4.03,6.61-11.3,11.05-19.57,11.05ZM297.25,287.94c-.15.28-.31.55-.47.82.16-.27.32-.54.47-.82Z"/>
      <path class="cls-4" d="M113.7,229.5c0,18.9-15.4,34.2-34.2,34.2s-34.2-15.3-34.2-34.2,15.4-34.2,34.2-34.2,34.2,15.3,34.2,34.2h0ZM122.7,229.5c0-23.8-19.4-43.2-43.2-43.2s-43.2,19.4-43.2,43.2,19.4,43.2,43.2,43.2,43.2-19.4,43.2-43.2h0Z"/>
      <path class="cls-5" d="M206.6,229.5c0-12.6,10.3-22.9,22.9-22.9s22.9,10.3,22.9,22.9-10.3,22.9-22.9,22.9-22.9-10.3-22.9-22.9h0ZM197.6,229.5c0,17.6,14.3,31.9,31.9,31.9s31.9-14.3,31.9-31.9-14.3-31.9-31.9-31.9-31.9,14.3-31.9,31.9h0Z"/>
      <path class="cls-6" d="M195.3,79.5c0-18.9,15.3-34.2,34.2-34.2s34.2,15.3,34.2,34.2-15.3,34.2-34.2,34.2-34.2-15.3-34.2-34.2h0Z"/>
      <path class="cls-5" d="M38.9,79.5c0-22.4,18.2-40.6,40.6-40.6s40.6,18.2,40.6,40.6-18.2,40.6-40.6,40.6-40.6-18.2-40.6-40.6h0Z"/>
      <path class="cls-3" d="M113.7,229.5c0,18.9-15.4,34.2-34.2,34.2s-34.2-15.3-34.2-34.2,15.4-34.2,34.2-34.2,34.2,15.3,34.2,34.2h0Z"/>
      <path class="cls-5" d="M206.6,229.5c0-12.6,10.3-22.9,22.9-22.9s22.9,10.3,22.9,22.9-10.3,22.9-22.9,22.9-22.9-10.3-22.9-22.9h0Z"/>
    </g>
  </g>
</svg>