<?xml version="1.0" encoding="UTF-8"?>
<svg id="_Слой_2" data-name="Слой 2" xmlns="http://www.w3.org/2000/svg" xmlns:xlink="http://www.w3.org/1999/xlink" viewBox="0 0 233.14 269.35">
  <defs>
    <style>
      .cls-1 {
        fill: url(#_Безымянный_градиент_2);
      }

      .cls-1, .cls-2, .cls-3, .cls-4 {
        stroke-width: 0px;
      }

      .cls-2 {
        fill: url(#_Безымянный_градиент_2-2);
      }

      .cls-3 {
        fill: url(#_Безымянный_градиент_2-3);
      }

      .cls-4 {
        fill: #fff;
      }
    </style>
    <linearGradient id="_Безымянный_градиент_2" data-name="Безымянный градиент 2" x1="10.87" y1="228.35" x2="230.38" y2="228.35" gradientUnits="userSpaceOnUse">
      <stop offset="0" stop-color="#3652e2"/>
      <stop offset="1" stop-color="#b5289b"/>
    </linearGradient>
    <linearGradient id="_Безымянный_градиент_2-2" data-name="Безымянный градиент 2" x1="0" y1="228.35" x2="233.14" y2="228.35" xlink:href="#_Безымянный_градиент_2"/>
    <linearGradient id="_Безымянный_градиент_2-3" data-name="Безымянный градиент 2" x1="1.43" y1="116.53" x2="233.14" y2="116.53" xlink:href="#_Безымянный_градиент_2"/>
  </defs>
  <g id="Background">
    <g id="_Слой_2-2" data-name="Слой 2">
      <g id="_Слой_1-2" data-name="Слой 1-2">
        <path class="cls-1" d="M228.43,196.8H42.43c-17.42,0-31.56,14.11-31.57,31.53,0,17.42,14.11,31.56,31.53,31.57h186.03c2.6,0,2.6-63.1,0-63.1h0Z"/>
        <polygon class="cls-4" points="58.29 245.57 58.29 235.1 206.63 235.1 206.63 221.77 58.29 221.77 58.29 211.3 206.63 211.3 206.63 197.12 37.37 197.12 37.37 262.07 206.63 262.07 206.63 245.57 58.29 245.57 58.29 245.57"/>
        <path class="cls-2" d="M42.43,269.32C19.8,270.11.82,252.41.03,229.78c-.79-22.63,16.91-41.62,39.54-42.41.95-.03,1.91-.03,2.86,0h186c2.6.12,4.62,2.33,4.5,4.93-.11,2.44-2.06,4.39-4.5,4.5H42.43c-17.42,0-31.55,14.13-31.55,31.55s14.13,31.55,31.55,31.55h186c2.6,0,4.71,2.11,4.71,4.71s-2.11,4.71-4.71,4.71H42.43Z"/>
        <path class="cls-4" d="M42.43,9.42c-17.44.01-31.57,14.14-31.58,31.58v161.11l1.73-1.84c7.72-8.27,18.54-12.95,29.85-12.9h181.31V9.42H42.43Z"/>
        <path class="cls-3" d="M228.43,0H42.43C19.79,0,1.43,18.36,1.43,41v187.35c0,2.6,2.11,4.71,4.71,4.71,2.6,0,4.7-2.11,4.71-4.71.02-17.43,14.15-31.54,31.58-31.55h186c2.6,0,4.71-2.12,4.71-4.72V4.71c0-2.6-2.11-4.71-4.71-4.71ZM223.74,187.37H42.43c-11.31-.05-22.13,4.63-29.85,12.9l-1.73,1.84V41c.01-17.44,14.14-31.57,31.58-31.58h20.83v65.87c0,2.6,2.11,4.7,4.71,4.71v.04c.95,0,1.88-.28,2.66-.82l24.69-16.84,22.28,16.72c.81.6,1.79.93,2.81.94,2.61,0,4.73-2.1,4.73-4.71V9.42h98.6v177.95Z"/>
      </g>
    </g>
  </g>
</svg>