<?xml version="1.0" encoding="UTF-8"?>
<svg id="_Слой_2" data-name="Слой 2" xmlns="http://www.w3.org/2000/svg" xmlns:xlink="http://www.w3.org/1999/xlink" viewBox="0 0 503.74 550.58">
  <defs>
    <style>
      .cls-1 {
        fill: url(#_Безымянный_градиент_2);
      }

      .cls-1, .cls-2 {
        stroke-width: 0px;
      }

      .cls-2 {
        fill: #fff;
      }
    </style>
    <linearGradient id="_Безымянный_градиент_2" data-name="Безымянный градиент 2" x1="0" y1="275.29" x2="503.74" y2="275.29" gradientUnits="userSpaceOnUse">
      <stop offset="0" stop-color="#3652e2"/>
      <stop offset="1" stop-color="#b5289b"/>
    </linearGradient>
  </defs>
  <g id="Background">
    <g id="_Слой_2-2" data-name="Слой 2">
      <g id="Social_media" data-name="Social media">
        <path class="cls-1" d="M424,0H79.75C35.71,0,0,35.69,0,79.73c0,0,0,.01,0,.02v296.25C0,420.04,35.71,455.75,79.75,455.75h94.14l67.69,89.7c4.29,5.69,12.38,6.81,18.07,2.52.95-.72,1.8-1.57,2.52-2.52l67.69-89.7h94.14c44.04,0,79.74-35.71,79.74-79.75V79.75C503.75,35.71,468.05,0,424.01,0c0,0,0,0-.01,0Z"/>
        <path class="cls-2" d="M298.45,183.73c0,27.38-22.19,49.58-49.57,49.59s-49.58-22.19-49.59-49.57,22.19-49.58,49.57-49.59h.01c27.38,0,49.57,22.19,49.58,49.57ZM370.74,315.25h0c0-36.84-29.87-66.71-66.71-66.71h-110.31c-36.84,0-66.71,29.86-66.72,66.7h0c0,10.86,8.8,19.66,19.65,19.66h204.44c10.85,0,19.65-8.8,19.65-19.65h0Z"/>
      </g>
    </g>
  </g>
</svg>