<?xml version="1.0" encoding="utf-8"?>
<!-- Generator: Adobe Illustrator 23.1.0, SVG Export Plug-In . SVG Version: 6.00 Build 0)  -->
<svg version="1.1" id="Слой_1" xmlns="http://www.w3.org/2000/svg" xmlns:xlink="http://www.w3.org/1999/xlink" x="0px" y="0px"
	 viewBox="0 0 99.5 106.1" style="enable-background:new 0 0 99.5 106.1;" xml:space="preserve">
<style type="text/css">
	.st0{fill:#7B99B3;}
	.st1{fill:#003354;}
	.st2{fill:#FFFFFF;}
</style>
<g>
	<path class="st0" d="M49.2,53c0,13.1-10.6,23.8-23.8,23.8S1.7,66.2,1.7,53s10.6-23.8,23.8-23.8S49.2,39.9,49.2,53L49.2,53z"/>
	<path class="st1" d="M83.5,3.3c-7,0-12.7,5.7-12.7,12.7c0,2.5,0.7,4.9,2.1,6.9c0.1,0.1,0.2,0.2,0.2,0.4l0.1,0.1
		c0,0.1,0.1,0.1,0.1,0.2c0,0.1,0.1,0.1,0.1,0.2l0.1,0.1c0.2,0.2,0.4,0.4,0.5,0.6l0.1,0.1c0.1,0.1,0.3,0.3,0.4,0.4l0,0
		c1.2,1.1,2.5,2.1,4,2.7l0,0c0.2,0.1,0.3,0.1,0.5,0.2l0.2,0.1c0.2,0.1,0.3,0.1,0.5,0.2l0.2,0.1c0.2,0.1,0.4,0.1,0.7,0.2l0.1,0
		c0.1,0,0.2,0.1,0.4,0.1c0.1,0,0.1,0,0.2,0l0.1,0c0.1,0,0.3,0,0.4,0.1c0.1,0,0.2,0,0.3,0c0.2,0,0.3,0,0.5,0c0,0,0.2,0,0.2,0
		c0.2,0,0.5,0,0.7,0c7,0,12.7-5.7,12.7-12.7C96.2,9,90.5,3.3,83.5,3.3L83.5,3.3z M25.4,30.9C13.2,30.9,3.3,40.8,3.3,53
		s9.9,22.1,22.1,22.1c9.7,0,18.2-6.2,21.1-15.5l0-0.1c0-0.1,0.1-0.3,0.1-0.4l0.1-0.2c0.1-0.2,0.1-0.4,0.2-0.6c0-0.1,0.1-0.2,0.1-0.4
		c0-0.1,0-0.2,0.1-0.3c0-0.2,0.1-0.4,0.1-0.5l0-0.2c0-0.2,0.1-0.4,0.1-0.6l0-0.2c0-0.2,0-0.4,0.1-0.6l0-0.2c0-0.2,0-0.5,0.1-0.7
		l0-0.2c0-0.2,0-0.4,0-0.6l0-0.2c0-0.2,0-0.5,0-0.7c0-0.2,0-0.5,0-0.7l0-0.2c0-0.2,0-0.4,0-0.6l0-0.2c0-0.2,0-0.5-0.1-0.7l0-0.1
		c0-0.2,0-0.4-0.1-0.6l0-0.2c0-0.2-0.1-0.4-0.1-0.6l0-0.2c0-0.2-0.1-0.4-0.1-0.5c0-0.1,0-0.2-0.1-0.3c0-0.1-0.1-0.2-0.1-0.4
		c-0.1-0.2-0.1-0.4-0.2-0.7L46.7,47c0-0.1-0.1-0.3-0.1-0.4l0-0.1C43.6,37.2,35.1,30.9,25.4,30.9L25.4,30.9z M83.5,77.4
		c-0.2,0-0.5,0-0.7,0c-0.1,0-0.2,0-0.2,0c-0.2,0-0.3,0-0.5,0c-0.1,0-0.2,0-0.3,0c-0.1,0-0.3,0-0.4,0.1l-0.1,0c-0.1,0-0.2,0-0.2,0
		c-0.1,0-0.3,0.1-0.4,0.1c-0.3,0.1-0.5,0.1-0.7,0.2c0,0-0.2,0-0.2,0.1c-0.2,0-0.3,0.1-0.5,0.2l-0.1,0.1c-0.2,0.1-0.3,0.1-0.5,0.2
		l0,0c-1.5,0.6-2.8,1.5-4,2.7c-0.2,0.2-0.3,0.3-0.4,0.4l-0.1,0.1c-0.2,0.2-0.4,0.4-0.5,0.6l-0.1,0.1c0,0.1-0.1,0.1-0.1,0.2
		c0,0.1-0.1,0.1-0.1,0.2l-0.1,0.1c-0.1,0.1-0.2,0.2-0.2,0.4c-1.4,2.1-2.1,4.5-2.1,6.9c0,7,5.7,12.7,12.7,12.7
		c7,0,12.7-5.7,12.7-12.7C96.2,83.1,90.5,77.4,83.5,77.4L83.5,77.4z M83.5,106.1c-8.8,0-16-7.2-16-16c0-2.4,0.5-4.7,1.6-6.9l0.1-0.3
		L45.9,68.1l-0.2,0.3c-4.9,6.4-12.3,10.1-20.3,10.1C11.4,78.5,0,67.1,0,53s11.4-25.4,25.4-25.4c8,0,15.4,3.7,20.3,10.1l0.2,0.3
		l23.3-14.9l-0.1-0.3c-1-2.2-1.6-4.5-1.6-6.9c0-8.8,7.2-16,16-16c8.8,0,16,7.2,16,16s-7.2,16-16,16c-0.3,0-0.6,0-0.9,0
		c-0.1,0-0.1,0-0.2,0l-0.1,0c-0.2,0-0.4,0-0.5,0c-0.1,0-0.2,0-0.3,0l-0.2,0c-0.1,0-0.2,0-0.3,0c-0.2,0-0.3-0.1-0.5-0.1l0,0
		c-0.1,0-0.2,0-0.3-0.1c-0.2,0-0.4-0.1-0.5-0.1l-0.2-0.1c-0.2-0.1-0.4-0.1-0.6-0.2l-0.1,0c-2.9-0.9-5.5-2.7-7.5-5.1L71,26L47.7,40.8
		l0.2,0.3c0.9,1.7,1.6,3.5,2.1,5.4l0.1,0.2c0,0.1,0.1,0.3,0.1,0.4l0.1,0.3l0.1,0.3c0,0.1,0.1,0.3,0.1,0.4l0.1,0.3
		c0,0.2,0.1,0.4,0.1,0.6l0,0.1c0,0.2,0.1,0.5,0.1,0.7l0,0.2c0,0.2,0,0.4,0.1,0.5l0,0.2c0,0.2,0,0.3,0,0.5l0,0.3c0,0.2,0,0.3,0,0.5
		l0,0.2c0,0.2,0,0.5,0,0.7c0,0.2,0,0.5,0,0.7l0,0.2c0,0.2,0,0.3,0,0.5l0,0.2c0,0.2,0,0.3,0,0.5l0,0.2c0,0.2,0,0.4-0.1,0.5l0,0.2
		c0,0.2-0.1,0.5-0.1,0.7l0,0.1c0,0.2-0.1,0.4-0.1,0.6l-0.1,0.3c0,0.1-0.1,0.3-0.1,0.4l-0.1,0.3L50.2,59c0,0.1-0.1,0.3-0.1,0.4
		L50,59.5c-0.5,1.9-1.2,3.7-2.1,5.4l-0.2,0.3L71,80.1l0.2-0.2c2-2.4,4.6-4.1,7.5-5.1l0.1,0c0.2-0.1,0.4-0.1,0.6-0.2l0.2-0.1
		c0.2,0,0.4-0.1,0.5-0.1c0.1,0,0.3-0.1,0.3-0.1c0.2,0,0.3-0.1,0.5-0.1c0.1,0,0.2,0,0.3,0l0.2,0c0.1,0,0.2,0,0.3,0c0.2,0,0.3,0,0.5,0
		l0.2,0c0.1,0,0.1,0,0.2,0c0.3,0,0.6,0,0.9,0c8.8,0,16,7.2,16,16C99.5,98.9,92.4,106.1,83.5,106.1L83.5,106.1z"/>
	<path class="st2" d="M73.2,23.3L73.2,23.3c0.1,0.1,0.1,0.2,0.2,0.3c0,0.1,0.1,0.1,0.1,0.2l0.1,0.1c0.2,0.2,0.4,0.4,0.5,0.6l0.1,0.1
		c0.1,0.1,0.3,0.3,0.4,0.4l0,0c1.2,1.1,2.5,2.1,4,2.7l0,0c0.2,0.1,0.3,0.1,0.5,0.2l0.2,0.1c0.2,0.1,0.3,0.1,0.5,0.2l0.2,0.1
		c0.2,0.1,0.4,0.1,0.7,0.2l0.1,0c0.1,0,0.2,0.1,0.4,0.1c0.1,0,0.1,0,0.2,0l0.1,0c0.1,0,0.3,0,0.4,0.1c0.1,0,0.2,0,0.3,0
		c0.2,0,0.3,0,0.5,0c0,0,0.2,0,0.2,0c0.2,0,0.5,0,0.7,0c7,0,12.7-5.7,12.7-12.7c0-7-5.7-12.7-12.7-12.7c-7,0-12.7,5.7-12.7,12.7
		c0,2.5,0.7,4.9,2.1,6.9C73,23.1,73.1,23.2,73.2,23.3L73.2,23.3z"/>
	<path class="st2" d="M83.5,77.4c-0.2,0-0.5,0-0.7,0c-0.1,0-0.2,0-0.2,0c-0.2,0-0.3,0-0.5,0c-0.1,0-0.2,0-0.3,0
		c-0.1,0-0.3,0-0.4,0.1l-0.1,0c-0.1,0-0.2,0-0.2,0c-0.1,0-0.3,0.1-0.4,0.1c-0.3,0.1-0.5,0.1-0.7,0.2c0,0-0.2,0-0.2,0.1
		c-0.2,0-0.3,0.1-0.5,0.2l-0.1,0.1c-0.2,0.1-0.3,0.1-0.5,0.2l0,0c-1.5,0.6-2.8,1.5-4,2.7c-0.2,0.2-0.3,0.3-0.4,0.4l-0.1,0.1
		c-0.2,0.2-0.4,0.4-0.5,0.6l-0.1,0.1c0,0.1-0.1,0.1-0.1,0.2c0,0.1-0.1,0.1-0.1,0.2l-0.1,0.1c-0.1,0.1-0.2,0.2-0.2,0.4
		c-1.4,2.1-2.1,4.5-2.1,6.9c0,7,5.7,12.7,12.7,12.7c7,0,12.7-5.7,12.7-12.7C96.2,83.1,90.5,77.4,83.5,77.4L83.5,77.4z"/>
</g>
</svg>
