<svg xmlns="http://www.w3.org/2000/svg" viewBox="0 0 248.88 309"><defs><style>.cls-1{fill:#003354;}.cls-2{fill:#7b99b3;}.cls-3{fill:#fff;}</style></defs><title>Ресурс 1</title><g id="Слой_2" data-name="Слой 2"><g id="Слой_1-2" data-name="Слой 1"><path class="cls-1" d="M203.74,40.2V32.48a8.94,8.94,0,1,1-9,0V40.2a4.5,4.5,0,0,0,9,0ZM54.9,40.2V32.48a8.94,8.94,0,1,1-9,0V40.2a4.5,4.5,0,0,0,9,0Zm49.62,0V32.48a9,9,0,1,1-9,0V40.2a4.5,4.5,0,0,0,9,0Zm49.61,0V32.48a9,9,0,1,1-9,0V40.2a4.5,4.5,0,0,0,9,0ZM194.74,16v6.9a18,18,0,1,0,9,0V16h36.14V300H41.28A32.32,32.32,0,0,1,9,267.71V16H45.9v6.9a18,18,0,1,0,9,0V16H95.52v6.9a17.94,17.94,0,1,0,9,0V16h40.61v6.9a18,18,0,1,0,9,0V16Zm0-11.45V7H154.13V4.5a4.5,4.5,0,0,0-9,0V7H104.52V4.5a4.5,4.5,0,0,0-9,0V7H54.9V4.5a4.5,4.5,0,0,0-9,0V7H4.5A4.51,4.51,0,0,0,0,11.45V267.71A41.33,41.33,0,0,0,41.28,309h203.1a4.51,4.51,0,0,0,4.5-4.5v-293a4.51,4.51,0,0,0-4.5-4.5H203.74V4.5a4.5,4.5,0,0,0-9,0Z"/><path class="cls-2" d="M104.52,32.48a9,9,0,1,1-9,0V40.2a4.5,4.5,0,0,0,9,0V32.48Z"/><path class="cls-2" d="M54.9,32.48a8.94,8.94,0,1,1-9,0V40.2a4.5,4.5,0,0,0,9,0V32.48Z"/><path class="cls-3" d="M45.9,16v6.9a18,18,0,1,0,9,0V16H95.52v6.9a17.94,17.94,0,1,0,9,0V16h40.61v6.9a18,18,0,1,0,9,0V16h40.61v6.9a18,18,0,1,0,9,0V16h36.14V300H41.28A32.32,32.32,0,0,1,9,267.71V16Z"/><path class="cls-2" d="M154.13,32.48a9,9,0,1,1-9,0V40.2a4.5,4.5,0,0,0,9,0V32.48Z"/><path class="cls-2" d="M203.74,32.48a8.94,8.94,0,1,1-9,0V40.2a4.5,4.5,0,0,0,9,0V32.48Z"/><path class="cls-1" d="M63.07,131.77a.41.41,0,0,1-.31,0,.38.38,0,0,1-.25-.2l-3.06-5.28a.4.4,0,0,1,.15-.56l10.73-6.22h0L107.55,98l.14-.06,0,0a.34.34,0,0,1,.24,0,.39.39,0,0,1,.25.19l3.06,5.28a.4.4,0,0,1,0,.31.35.35,0,0,1-.14.2l0,0L111,104,80.59,121.62,63.07,131.77Zm15.67-3,33-19.12,35.83,61.81a2,2,0,0,1-.71,2.65l-29.62,17.17a2,2,0,0,1-2.65-.7L78.74,128.8Zm43.61,65.64L139,184.77l8-4.62L187.82,264c2.51,5.16,1.9,10.7-1.38,12.6h0c-3.28,1.9-8.38-.32-11.61-5.07l-52.48-77.09ZM103,94.55,70,113.67l-3.61-6.24a11.8,11.8,0,0,1,4.29-16.14L83.19,84a11.83,11.83,0,0,1,16.15,4.3L103,94.55ZM51.37,120.61c.75,6.3,5.53,13,12.15,22.14,8.57,11.91,20.31,28.22,31.07,53.88a2.63,2.63,0,0,0,1.76,1.53,2.57,2.57,0,0,0,1.7-.12,2.64,2.64,0,0,0,1.41-3.45c-11-26.21-22.93-42.81-31.65-54.92l-2.31-3.22.22-.11,8.45-4.9L110,193.26a7.13,7.13,0,0,0,4.39,3.35,7.21,7.21,0,0,0,3.13.13l52.94,77.76a18.32,18.32,0,0,0,10.12,7.62,11.58,11.58,0,0,0,6,.06l3.1,5.34a2.64,2.64,0,0,0,1.6,1.23,2.69,2.69,0,0,0,2-.27,2.64,2.64,0,0,0,1-3.61l-3.1-5.34c4-4,4.64-11.13,1.38-17.84L151.4,177.1a7.2,7.2,0,0,0,.72-8.26l-36.24-62.51a5.75,5.75,0,0,0,.54-1.3,5.68,5.68,0,0,0-.58-4.32l-3.06-5.28a5.65,5.65,0,0,0-3.46-2.64,5.14,5.14,0,0,0-1.4-.19l-4-6.93a17.12,17.12,0,0,0-23.37-6.22L68,86.72a17.09,17.09,0,0,0-6.22,23.36l3.61,6.23L57,121.21l-.09.06a8.45,8.45,0,0,1-.24-1.28,2.64,2.64,0,0,0-5.25.62Z"/><path class="cls-3" d="M66.36,107.43a11.8,11.8,0,0,1,4.29-16.14L83.19,84a11.83,11.83,0,0,1,16.15,4.3L103,94.55,70,113.67l-3.61-6.24Z"/><path class="cls-2" d="M147,180.15,187.82,264c2.51,5.16,1.9,10.7-1.38,12.6h0c-3.28,1.9-8.38-.32-11.61-5.07l-52.48-77.09L139,184.77l8-4.62Z"/><path class="cls-3" d="M147.55,171.49a2,2,0,0,1-.71,2.65l-29.62,17.17a2,2,0,0,1-2.65-.7L78.74,128.8l33-19.12,35.83,61.81Z"/><path class="cls-2" d="M70.33,119.56h0L107.55,98l.14-.06,0,0a.34.34,0,0,1,.24,0,.39.39,0,0,1,.25.19l3.06,5.28a.4.4,0,0,1,0,.31.35.35,0,0,1-.14.2l0,0L111,104,80.59,121.62,63.07,131.77a.41.41,0,0,1-.31,0,.38.38,0,0,1-.25-.2l-3.06-5.28a.4.4,0,0,1,.15-.56l10.73-6.22Z"/></g></g></svg>