<?xml version="1.0" encoding="UTF-8"?>
<svg id="_Слой_2" data-name="Слой 2" xmlns="http://www.w3.org/2000/svg" xmlns:xlink="http://www.w3.org/1999/xlink" viewBox="0 0 309 309">
  <defs>
    <style>
      .cls-1 {
        fill: url(#_Безымянный_градиент_2);
      }

      .cls-1, .cls-2 {
        stroke-width: 0px;
      }

      .cls-2 {
        fill: #fff;
      }
    </style>
    <linearGradient id="_Безымянный_градиент_2" data-name="Безымянный градиент 2" x1="0" y1="154.5" x2="309" y2="154.5" gradientUnits="userSpaceOnUse">
      <stop offset="0" stop-color="#3652e2"/>
      <stop offset="1" stop-color="#b5289b"/>
    </linearGradient>
  </defs>
  <g id="Background">
    <g>
      <path class="cls-2" d="M179.3,159h-20.3v19.3c10-1.8,18-9.4,20.3-19.3h0Z"/>
      <path class="cls-2" d="M45,159h-27.9c3,71.7,61,129.4,132.9,131.7v-27.9c-56.5-2.3-102.1-47.5-105-103.8h0Z"/>
      <path class="cls-2" d="M255,159h-29.4c-2.8,35.2-31.3,63.3-66.6,65.5v29.3c51.5-2.3,93.1-43.5,96-94.8h0Z"/>
      <path class="cls-2" d="M264.1,150h27.9c-1.7-72.8-60.3-131.8-133-134.2v27.9c57.3,2.4,103.4,48.9,105.1,106.3h0Z"/>
      <path class="cls-2" d="M188.8,150h28c-1.6-31.4-26.6-56.7-57.8-58.9v28c15.8,2.1,28.3,14.9,29.8,30.9h0Z"/>
      <path class="cls-2" d="M129.2,150h20.8v-21.8c-10.8,1.9-19.3,10.8-20.8,21.8h0Z"/>
      <path class="cls-2" d="M53.9,150h29.3c1.6-36.3,30.6-65.7,66.8-67.9v-29.3c-52.3,2.3-94.4,44.7-96.1,97.2h0Z"/>
      <path class="cls-2" d="M120.5,159h-28.1c2.8,30.2,27.2,54.3,57.6,56.4v-28c-15-1.9-27-13.6-29.5-28.4h0Z"/>
      <path class="cls-1" d="M304.5,150h-3.5c-1.7-77.8-64.4-140.8-142-143.2v-2.3c0-2.5-2-4.5-4.5-4.5s-4.5,2-4.5,4.5v2.3C72.4,9.2,9.7,72.2,8,150h-3.5c-2.5,0-4.5,2-4.5,4.5s2,4.5,4.5,4.5h3.6c3,76.6,65.1,138.4,141.9,140.7v4.8c0,2.5,2,4.5,4.5,4.5s4.5-2,4.5-4.5v-4.8c76.8-2.3,138.9-64.1,141.9-140.7h3.6c2.5,0,4.5-2,4.5-4.5s-2-4.5-4.5-4.5ZM150,290.7c-71.8-2.3-129.9-60-132.9-131.7h27.9c2.9,56.3,48.5,101.5,105,103.8v27.9ZM54,159c2.9,51.3,44.5,92.5,96,94.8-51.5-2.3-93.1-43.4-96-94.8ZM83.4,159c2.8,35.2,31.3,63.3,66.6,65.5-35.4-2.2-63.8-30.3-66.6-65.5ZM150,215.4c-30.4-2.2-54.8-26.2-57.6-56.4h28.1c2.5,14.8,14.5,26.5,29.5,28.4v28ZM150,150h-20.8c1.4-11,9.9-19.9,20.8-21.8v21.8ZM92.2,150c1.6-31.4,26.6-56.7,57.8-58.9-31.2,2.2-56.1,27.5-57.8,58.9ZM150,82.1c-36.2,2.3-65.1,31.6-66.8,67.9h-29.3c1.7-52.5,43.7-94.9,96.1-97.2v29.3ZM159,91.1c31.2,2.2,56.1,27.5,57.8,58.9h-28c-1.5-16-14-28.8-29.8-30.9v-28ZM159,159h20.3c-2.3,9.9-10.3,17.5-20.3,19.3v-19.3ZM188.5,159c-2.5,14.8-14.5,26.5-29.5,28.4,15-2,27-13.6,29.5-28.4ZM159,253.8v-29.3c35.4-2.2,63.8-30.3,66.6-65.5h29.4c-2.9,51.3-44.5,92.5-96,94.8ZM264.1,150c-1.7-57.4-47.8-103.9-105.1-106.3V15.8c72.7,2.4,131.3,61.4,133,134.2h-27.9Z"/>
    </g>
  </g>
</svg>