<?xml version="1.0" encoding="UTF-8"?>
<svg id="_Слой_2" data-name="Слой 2" xmlns="http://www.w3.org/2000/svg" xmlns:xlink="http://www.w3.org/1999/xlink" viewBox="0 0 115.47 105.38">
  <defs>
    <style>
      .cls-1 {
        fill: url(#_Безымянный_градиент_2);
      }

      .cls-1, .cls-2, .cls-3, .cls-4, .cls-5, .cls-6, .cls-7, .cls-8, .cls-9, .cls-10, .cls-11, .cls-12, .cls-13 {
        stroke-width: 0px;
      }

      .cls-2 {
        fill: url(#_Безымянный_градиент_2-6);
      }

      .cls-3 {
        fill: url(#_Безымянный_градиент_2-12);
      }

      .cls-4 {
        fill: url(#_Безымянный_градиент_2-2);
      }

      .cls-5 {
        fill: url(#_Безымянный_градиент_2-7);
      }

      .cls-6 {
        fill: url(#_Безымянный_градиент_2-5);
      }

      .cls-7 {
        fill: url(#_Безымянный_градиент_2-8);
      }

      .cls-8 {
        fill: url(#_Безымянный_градиент_2-10);
      }

      .cls-9 {
        fill: url(#_Безымянный_градиент_2-11);
      }

      .cls-10 {
        fill: url(#_Безымянный_градиент_2-3);
      }

      .cls-11 {
        fill: #fff;
      }

      .cls-12 {
        fill: url(#_Безымянный_градиент_2-4);
      }

      .cls-13 {
        fill: url(#_Безымянный_градиент_2-9);
      }
    </style>
    <linearGradient id="_Безымянный_градиент_2" data-name="Безымянный градиент 2" x1="50.87" y1="88.78" x2="108.97" y2="88.78" gradientUnits="userSpaceOnUse">
      <stop offset="0" stop-color="#3652e2"/>
      <stop offset="1" stop-color="#b5289b"/>
    </linearGradient>
    <linearGradient id="_Безымянный_градиент_2-2" data-name="Безымянный градиент 2" x1="49.87" y1="88.68" x2="109.97" y2="88.68" xlink:href="#_Безымянный_градиент_2"/>
    <linearGradient id="_Безымянный_градиент_2-3" data-name="Безымянный градиент 2" x1="45.97" y1="98.13" x2="113.77" y2="98.13" xlink:href="#_Безымянный_градиент_2"/>
    <linearGradient id="_Безымянный_градиент_2-4" data-name="Безымянный градиент 2" x1="44.97" y1="98.08" x2="114.77" y2="98.08" xlink:href="#_Безымянный_градиент_2"/>
    <linearGradient id="_Безымянный_градиент_2-5" data-name="Безымянный градиент 2" x1="45.27" y1="98.13" x2="114.47" y2="98.13" xlink:href="#_Безымянный_градиент_2"/>
    <linearGradient id="_Безымянный_градиент_2-6" data-name="Безымянный градиент 2" x1="44.27" y1="98.08" x2="115.47" y2="98.08" xlink:href="#_Безымянный_градиент_2"/>
    <linearGradient id="_Безымянный_градиент_2-7" data-name="Безымянный градиент 2" x1=".9" y1="71.22" x2="68.57" y2="71.22" xlink:href="#_Безымянный_градиент_2"/>
    <linearGradient id="_Безымянный_градиент_2-8" data-name="Безымянный градиент 2" x1="0" y1="71.34" x2="69.49" y2="71.34" xlink:href="#_Безымянный_градиент_2"/>
    <linearGradient id="_Безымянный_градиент_2-9" data-name="Безымянный градиент 2" x1="42.97" y1="38.63" x2="105.97" y2="38.63" xlink:href="#_Безымянный_градиент_2"/>
    <linearGradient id="_Безымянный_градиент_2-10" data-name="Безымянный градиент 2" x1="41.97" y1="38.68" x2="106.97" y2="38.68" xlink:href="#_Безымянный_градиент_2"/>
    <linearGradient id="_Безымянный_градиент_2-11" data-name="Безымянный градиент 2" x1="72.63" y1="60.23" x2="111.62" y2="60.23" xlink:href="#_Безымянный_градиент_2"/>
    <linearGradient id="_Безымянный_градиент_2-12" data-name="Безымянный градиент 2" x1="37.23" y1="16.99" x2="76.33" y2="16.99" xlink:href="#_Безымянный_градиент_2"/>
  </defs>
  <g id="Background">
    <g>
      <g>
        <g>
          <rect class="cls-1" x="50.87" y="85.78" width="58.1" height="6"/>
          <path class="cls-4" d="M108.87,92.68h-58c-.5,0-1-.4-1-1v-6c0-.5.4-1,1-1h58.1c.5,0,1,.4,1,1v6c-.1.6-.6,1-1.1,1ZM51.77,90.78h56.1v-4h-56.1v4Z"/>
        </g>
        <g>
          <g>
            <rect class="cls-10" x="45.97" y="92.48" width="67.8" height="11.3"/>
            <path class="cls-12" d="M113.77,104.68H45.97c-.5,0-1-.4-1-1v-11.2c0-.5.4-1,1-1h67.8c.5,0,1,.4,1,1v11.3c0,.5-.5.9-1,.9ZM46.87,102.78h65.9v-9.4H46.87v9.4Z"/>
          </g>
          <g>
            <path class="cls-6" d="M114.47,104.48H45.27v-12.7h69.2v12.7Z"/>
            <path class="cls-2" d="M114.47,105.38H45.27c-.5,0-1-.4-1-1v-12.6c0-.5.4-1,1-1h69.2c.5,0,1,.4,1,1v12.7c0,.5-.5.9-1,.9ZM46.17,103.48h67.3v-10.7H46.17v10.7Z"/>
          </g>
        </g>
      </g>
      <g>
        <g>
          <path class="cls-5" d="M68.57,48.08l-2.3-2.8-2.3-2.8S7.77,85.28,3.17,89.08c-4.6,3.8-.8,8.5-.8,8.5,0,0,3.8,4.7,8.5.9,4.6-3.8,57.7-50.4,57.7-50.4Z"/>
          <path class="cls-7" d="M7.17,100.98h0c-3.2,0-5.4-2.6-5.5-2.7,0-.1-1.1-1.4-1.5-3.2-.4-1.8-.3-4.3,2.5-6.6,4.6-3.8,58.5-44.8,60.8-46.6.4-.3,1-.2,1.3.2l4.5,5.5c.3.4.3,1-.1,1.3-2.2,1.9-53.1,46.7-57.7,50.4-1.4,1.1-2.8,1.7-4.3,1.7ZM63.87,43.88c-6.7,5.1-55.8,42.5-60,46-1.6,1.3-2.2,2.9-1.8,4.7.3,1.4,1.1,2.4,1.1,2.4,0,0,1.7,2,4,2h0c1,0,2.1-.4,3.1-1.3,4.3-3.5,50.7-44.2,57-49.7l-3.4-4.1Z"/>
        </g>
        <g>
          <polygon class="cls-13" points="87.67 27.78 69.47 5.48 42.97 27.18 61.27 49.48 79.47 71.78 105.97 50.18 87.67 27.78"/>
          <path class="cls-8" d="M79.47,72.78h0c-.4,0-.6-.2-.7-.4L42.17,27.78c-.2-.2-.2-.5-.2-.7,0-.3.2-.5.3-.7l26.6-21.6c.2-.2.5-.2.7-.2.3,0,.5.2.7.4l36.5,44.7c.2.2.2.5.2.7,0,.3-.2.5-.3.7l-26.6,21.5c-.1.1-.3.2-.6.2ZM44.37,27.28l35.3,43.2,25-20.4L69.27,6.88l-24.9,20.4Z"/>
        </g>
        <g>
          <g>
            <path class="cls-11" d="M81.77,75.18c-2.1,1.7-5.2,1.4-7-.7h0c-1.7-2.1-1.4-5.2.7-7l27.2-22.3c2.1-1.7,5.2-1.4,7,.7h0c1.7,2.1,1.4,5.2-.7,7l-27.2,22.3Z"/>
            <path class="cls-9" d="M78.57,77.28c-1.8,0-3.5-.8-4.6-2.2-1-1.2-1.5-2.8-1.3-4.3.2-1.6.9-3,2.1-4l27.2-22.3c1.1-.9,2.4-1.3,3.7-1.3,1.8,0,3.5.8,4.6,2.2,1,1.2,1.5,2.8,1.3,4.3-.2,1.6-.9,3-2.1,4l-27.1,22.3c-1.1.9-2.4,1.3-3.8,1.3ZM105.87,45.18c-.9,0-1.8.3-2.5.9l-27.3,22.2c-.8.7-1.3,1.7-1.4,2.7-.1,1.1.2,2.1.9,2.9,1.3,1.6,4,1.9,5.6.6l27.2-22.3c.8-.7,1.3-1.6,1.4-2.7.1-1.1-.2-2.1-.9-2.9-.7-.9-1.8-1.4-3-1.4Z"/>
          </g>
          <g>
            <path class="cls-11" d="M46.37,31.98c-2.1,1.7-5.2,1.4-7-.7h0c-1.7-2.1-1.4-5.2.7-7L67.27,1.98c2.1-1.7,5.2-1.4,7,.7h0c1.7,2.1,1.4,5.2-.7,7l-27.2,22.3Z"/>
            <path class="cls-3" d="M43.17,33.98c-1.8,0-3.5-.8-4.6-2.2-1-1.2-1.5-2.8-1.3-4.3.2-1.6.9-3,2.1-4L66.67,1.28c2.4-2,6.3-1.6,8.3.8,2.1,2.5,1.7,6.3-.8,8.3l-27.2,22.3c-1.1.9-2.4,1.3-3.8,1.3ZM70.37,1.88c-.9,0-1.8.3-2.5.9l-27.2,22.3c-.8.7-1.3,1.6-1.4,2.7-.1,1.1.2,2.1.9,2.9,1.3,1.6,4,1.9,5.6.6l27.2-22.4c1.7-1.4,1.9-3.9.6-5.6-.8-.9-2-1.4-3.2-1.4Z"/>
          </g>
        </g>
      </g>
    </g>
  </g>
</svg>