<?xml version="1.0" encoding="UTF-8"?>
<svg id="_Слой_2" data-name="Слой 2" xmlns="http://www.w3.org/2000/svg" xmlns:xlink="http://www.w3.org/1999/xlink" viewBox="0 0 366.69 366.93">
  <defs>
    <style>
      .cls-1 {
        fill: url(#_Безымянный_градиент_2);
      }

      .cls-1, .cls-2, .cls-3, .cls-4, .cls-5, .cls-6 {
        stroke-width: 0px;
      }

      .cls-2 {
        fill: url(#_Безымянный_градиент_2-6);
      }

      .cls-3 {
        fill: url(#_Безымянный_градиент_2-2);
      }

      .cls-4 {
        fill: url(#_Безымянный_градиент_2-5);
      }

      .cls-5 {
        fill: url(#_Безымянный_градиент_2-3);
      }

      .cls-6 {
        fill: url(#_Безымянный_градиент_2-4);
      }
    </style>
    <linearGradient id="_Безымянный_градиент_2" data-name="Безымянный градиент 2" x1="0" y1="168.1" x2="366.69" y2="168.1" gradientUnits="userSpaceOnUse">
      <stop offset="0" stop-color="#3652e2"/>
      <stop offset="1" stop-color="#b5289b"/>
    </linearGradient>
    <linearGradient id="_Безымянный_градиент_2-2" data-name="Безымянный градиент 2" x1="0" y1="188.16" x2="366.69" y2="188.16" xlink:href="#_Безымянный_градиент_2"/>
    <linearGradient id="_Безымянный_градиент_2-3" data-name="Безымянный градиент 2" x1="0" y1="151.56" x2="366.69" y2="151.56" xlink:href="#_Безымянный_градиент_2"/>
    <linearGradient id="_Безымянный_градиент_2-4" data-name="Безымянный градиент 2" x1="0" y1="197.17" x2="366.69" y2="197.17" xlink:href="#_Безымянный_градиент_2"/>
    <linearGradient id="_Безымянный_градиент_2-5" data-name="Безымянный градиент 2" x1="0" y1="183.47" y2="183.47" xlink:href="#_Безымянный_градиент_2"/>
    <linearGradient id="_Безымянный_градиент_2-6" data-name="Безымянный градиент 2" x1="0" y1="135.81" x2="366.69" y2="135.81" xlink:href="#_Безымянный_градиент_2"/>
  </defs>
  <g id="Background">
    <g>
      <path class="cls-1" d="M189.25,160.43c8.22,2.4,14.64,8.84,17,17.08,2.05,7.15,3,8.49,6,8.49,3.52,0,4.85-2.4,4.15-7.51-1.34-9.82-9-20.12-18.69-25-6.14-3.1-13.93-4.27-15.71-2.38-.79.99-1.23,2.21-1.25,3.47,0,2.81,1.22,3.65,8.5,5.85Z"/>
      <path class="cls-3" d="M168.76,191.54c1.94,5.9,9.58,8.64,15.39,5.53,3.37-1.8,5.91-7.34,5.1-11.07-1.68-7.41-12.54-10.74-17.82-5.46h.05c-3.23,3.23-4.11,6.78-2.72,11Z"/>
      <path class="cls-5" d="M190.37,128.79c24,4.26,42.09,21.68,46.89,45.21,1.9,9.32,5,12.28,8.87,8.43,3.13-3.14.91-14.12-5.52-27.25-9.33-19.05-30.34-34.14-50-35.93-5.16-.46-5.82-.25-6.91,1.75-2.18,4.07,0,6.61,6.67,7.79Z"/>
      <path class="cls-6" d="M256.46,240.57c-6.17-4.13-14.15-9.57-17.72-12.1-18.31-12.93-22.78-15.16-28.17-14.09-4.44.98-8.2,3.92-10.23,8-1.54,3-3.24,5.92-5.1,8.73-1.39,2.03-2.68,4.13-3.85,6.3-.22.58-2.57-1.43-5.24-4.45-10.27-11.64-33.41-34.66-44.41-44.2-6.32-5.48-11.5-10.45-11.5-11s3.82-3.45,8.5-6.35c9.55-5.94,12-9,12-15.13,0-3.79-1.59-6.6-15.6-27.5-18.61-27.71-20.51-29.78-27.23-29.78-4.33,0-5.91.75-15.7,7.25-17.07,11.38-21.16,19.2-20.21,38.67.41,8.9,1.06,12.16,4.09,20.51,8.38,23,24.51,46.43,48.69,70.57,24.18,24.14,41.14,37.28,61.78,47.83,17.93,9.17,33.83,12.91,47,11.06,13.35-1.86,21.82-8.49,32.06-25.09,4.19-6.78,5.12-9.12,5.12-12.82,0-2.5-.69-5.52-1.53-6.72s-6.58-5.56-12.75-9.69Z"/>
      <path class="cls-4" d="M364.86,180.64c-1.52-1.38-4.25-1.65-16.45-1.65h-14.62l-.5-3.25c-.28-1.79-.78-5.95-1.11-9.25-2.18-21.59-11.18-45.41-25.18-66.36-23.3-35-62.43-59.5-103.82-65.06-4.95-.66-10.46-1.42-12.25-1.68l-3.25-.48v-15.25c0-15.59-.47-17.66-4-17.66-1.21.13-2.37.57-3.36,1.29-1.52,1.11-1.81,3.34-2.09,16.06-.18,8.13-.48,14.93-.68,15.12-3.42.7-6.88,1.21-10.35,1.53-27.3,3.13-52.44,12.58-73.87,27.78-11.58,8.16-28.91,25.85-36.49,37.22-15.66,23.4-22.73,43.61-26.69,76.29l-.57,4.71h-14c-13.72,0-14,0-15,2.37-.79,1.4-.77,3.12.05,4.5,1.08,2,1.89,2.13,15,2.13h13.9l.61,5.75c2.24,21.06,3,25,8.26,41.75,3.7,11.74,17.69,34.73,29.6,48.66,23.29,27.17,62.28,47.44,97,50.42,3.41.29,7.65.75,9.44,1l3.25.49v12.73c0,9.91.35,13.23,1.56,15,1.89,2.7,4.56,2.85,6.78.39,1.37-1.5,1.66-4.15,1.66-15,0-15-1.12-13.54,11-14.7,49.66-4.75,96.13-37.47,119.32-84,8.72-17.5,12-29.59,15.43-57l.75-6,14.67-.06c15.22-.07,17.83-.71,17.83-4.41-.19-1.31-.84-2.5-1.83-3.38ZM305.45,185.87c1.47,1.75,3.06,2.14,9.75,2.36l8,.27-.19,7.92c-.39,15.77-5.81,34.62-15.43,53.65-21.26,41.84-61.99,70.32-108.58,75.93-5.07.63-9.69.86-10.25.51-.56-.35-1-4.59-1-9.88,0-9.77-.74-11.64-4.58-11.64-3.53,0-4.32,2.08-4.63,12.05l-.29,9.45-7.84-.19c-37.2-.89-78.66-24-103.51-57.61-8-10.78-17.8-31.47-22.21-46.7-2.41-8.33-4.94-23-4.94-28.63v-4.36h9.93c10.13,0,13.07-1,13.07-4.5s-3-4.5-12.6-4.5c-7.62,0-9.58-.3-10.06-1.55-.9-2.36,1.4-18.22,4.22-29.1,9.69-37.35,32.83-67.88,66.39-87.58,18.48-10.85,43.19-18.32,61.75-18.67l5.25-.1v7.81c0,7.92.89,10.35,4.2,11.5,1.35.2,2.71-.2,3.73-1.11,1.68-1.41,2.08-3.09,2.3-9.7l.27-8,7.5.31c5.48.35,10.93,1.1,16.3,2.25,60.39,13.37,105.29,64.12,111.22,125.69l.68,7.25h-8.53c-6.42,0-8.92.39-10.1,1.57-2,2-2,2.73.18,5.3Z"/>
      <path class="cls-2" d="M239.38,108.34c-12.68-9.57-35.52-18.34-47.95-18.34-4.12,0-4.93.34-5.91,2.5-1.81,4,.88,6,9.79,7.45,37.33,6,65.2,33.92,71.53,71.6,1,6,1.78,8,3.51,9.14,1.73,1.14,2.7,1.19,4.28.35,6-3.19-1.05-30.55-12.25-47.87-6.34-9.41-14.1-17.79-23-24.83Z"/>
    </g>
  </g>
</svg>