<svg xmlns="http://www.w3.org/2000/svg" viewBox="0 0 60.45 44.09"><defs><style>.cls-1{fill:#7b9ab5;}.cls-2{fill:#113653;}.cls-3{fill:#7b9ab4;}</style></defs><title>Ресурс 7</title><g id="Слой_2" data-name="Слой 2"><g id="Слой_1-2" data-name="Слой 1"><rect class="cls-1" x="0.5" y="0.5" width="9.28" height="5.87" rx="0.63"/><path class="cls-2" d="M9.14,1a.13.13,0,0,1,.14.13v4.6a.14.14,0,0,1-.14.14h-8A.13.13,0,0,1,1,5.73V1.13A.13.13,0,0,1,1.13,1h8m0-1h-8A1.14,1.14,0,0,0,0,1.13v4.6A1.14,1.14,0,0,0,1.13,6.87h8a1.14,1.14,0,0,0,1.14-1.14V1.13A1.14,1.14,0,0,0,9.14,0Z"/><rect class="cls-1" x="0.5" y="9.76" width="9.28" height="5.87" rx="0.63"/><path class="cls-2" d="M9.14,10.26a.13.13,0,0,1,.14.13V15a.14.14,0,0,1-.14.14h-8A.13.13,0,0,1,1,15v-4.6a.13.13,0,0,1,.13-.13h8m0-1h-8A1.14,1.14,0,0,0,0,10.39V15a1.14,1.14,0,0,0,1.13,1.14h8A1.14,1.14,0,0,0,10.28,15v-4.6A1.14,1.14,0,0,0,9.14,9.26Z"/><rect class="cls-1" x="0.5" y="19.02" width="9.28" height="5.87" rx="0.63"/><path class="cls-2" d="M9.14,19.52a.13.13,0,0,1,.14.13v4.6a.13.13,0,0,1-.14.13h-8A.13.13,0,0,1,1,24.25v-4.6a.13.13,0,0,1,.13-.13h8m0-1h-8A1.14,1.14,0,0,0,0,19.65v4.6a1.13,1.13,0,0,0,1.13,1.13h8a1.13,1.13,0,0,0,1.14-1.13v-4.6a1.14,1.14,0,0,0-1.14-1.13Z"/><rect class="cls-3" y="27.87" width="10.28" height="6.87" rx="1.13"/><path class="cls-1" d="M9.14,38.23a.13.13,0,0,1,.14.13V43a.13.13,0,0,1-.14.13h-8A.13.13,0,0,1,1,43v-4.6a.13.13,0,0,1,.13-.13h8m0-1h-8A1.14,1.14,0,0,0,0,38.36V43a1.13,1.13,0,0,0,1.13,1.13h8A1.13,1.13,0,0,0,10.28,43v-4.6a1.14,1.14,0,0,0-1.14-1.13Z"/><path class="cls-1" d="M21.69,28.87a.13.13,0,0,1,.13.14v4.6a.13.13,0,0,1-.13.13h-8a.13.13,0,0,1-.14-.13V29a.14.14,0,0,1,.14-.14h8m0-1h-8A1.14,1.14,0,0,0,12.54,29v4.6a1.14,1.14,0,0,0,1.14,1.13h8a1.14,1.14,0,0,0,1.13-1.13V29a1.14,1.14,0,0,0-1.13-1.14Z"/><rect class="cls-3" x="12.54" y="18.52" width="10.28" height="6.87" rx="1.13"/><rect class="cls-3" x="12.54" y="9.26" width="10.28" height="6.87" rx="1.13"/><rect class="cls-3" x="12.54" width="10.28" height="6.87" rx="1.13"/><rect class="cls-3" x="25.09" width="10.28" height="6.87" rx="1.13"/><rect class="cls-3" x="25.09" y="9.26" width="10.28" height="6.87" rx="1.13"/><path class="cls-1" d="M46.77,10.26a.13.13,0,0,1,.14.13V15a.14.14,0,0,1-.14.14h-8a.13.13,0,0,1-.13-.14v-4.6a.13.13,0,0,1,.13-.13h8m0-1h-8a1.14,1.14,0,0,0-1.13,1.13V15a1.14,1.14,0,0,0,1.13,1.14h8A1.14,1.14,0,0,0,47.91,15v-4.6a1.14,1.14,0,0,0-1.14-1.13Z"/><path class="cls-1" d="M34.23,19.52a.13.13,0,0,1,.13.13v4.6a.13.13,0,0,1-.13.13h-8a.13.13,0,0,1-.13-.13v-4.6a.13.13,0,0,1,.13-.13h8m0-1h-8a1.13,1.13,0,0,0-1.13,1.13v4.6a1.12,1.12,0,0,0,1.13,1.13h8a1.13,1.13,0,0,0,1.13-1.13v-4.6a1.14,1.14,0,0,0-1.13-1.13Z"/><rect class="cls-3" x="37.63" width="10.28" height="6.87" rx="1.13"/><path class="cls-1" d="M59.31,1a.13.13,0,0,1,.14.13v4.6a.14.14,0,0,1-.14.14h-8a.13.13,0,0,1-.13-.14V1.13A.13.13,0,0,1,51.3,1h8m0-1h-8a1.14,1.14,0,0,0-1.13,1.13v4.6A1.14,1.14,0,0,0,51.3,6.87h8a1.14,1.14,0,0,0,1.14-1.14V1.13A1.14,1.14,0,0,0,59.31,0Z"/></g></g></svg>