<?xml version="1.0" encoding="UTF-8"?>
<svg id="_Слой_2" data-name="Слой 2" xmlns="http://www.w3.org/2000/svg" xmlns:xlink="http://www.w3.org/1999/xlink" viewBox="0 0 309 309">
  <defs>
    <style>
      .cls-1 {
        fill: url(#_Безымянный_градиент_2);
      }

      .cls-1, .cls-2, .cls-3, .cls-4, .cls-5, .cls-6, .cls-7 {
        stroke-width: 0px;
      }

      .cls-2 {
        fill: url(#_Безымянный_градиент_2-6);
      }

      .cls-3 {
        fill: url(#_Безымянный_градиент_2-2);
      }

      .cls-4 {
        fill: url(#_Безымянный_градиент_2-5);
      }

      .cls-5 {
        fill: url(#_Безымянный_градиент_2-3);
      }

      .cls-6 {
        fill: #fff;
      }

      .cls-7 {
        fill: url(#_Безымянный_градиент_2-4);
      }
    </style>
    <linearGradient id="_Безымянный_градиент_2" data-name="Безымянный градиент 2" x1="52.4" y1="154.6" x2="256.4" y2="154.6" gradientUnits="userSpaceOnUse">
      <stop offset="0" stop-color="#3652e2"/>
      <stop offset="1" stop-color="#b5289b"/>
    </linearGradient>
    <linearGradient id="_Безымянный_градиент_2-2" data-name="Безымянный градиент 2" x1="101.4" y1="154.5" x2="207.6" y2="154.5" xlink:href="#_Безымянный_градиент_2"/>
    <linearGradient id="_Безымянный_градиент_2-3" data-name="Безымянный градиент 2" x1="0" y1="43.15" x2="86.3" y2="43.15" xlink:href="#_Безымянный_градиент_2"/>
    <linearGradient id="_Безымянный_градиент_2-4" data-name="Безымянный градиент 2" x1="222.7" y1="43.15" x2="309" y2="43.15" xlink:href="#_Безымянный_градиент_2"/>
    <linearGradient id="_Безымянный_градиент_2-5" data-name="Безымянный градиент 2" x1="222.7" y1="265.85" x2="309" y2="265.85" xlink:href="#_Безымянный_градиент_2"/>
    <linearGradient id="_Безымянный_градиент_2-6" data-name="Безымянный градиент 2" x1="0" y1="265.85" x2="86.3" y2="265.85" xlink:href="#_Безымянный_градиент_2"/>
  </defs>
  <g id="Background">
    <g>
      <path class="cls-1" d="M217.9,74.8c-.9-.7-2.1-1.1-3.3-.9-1.2.1-2.3.7-3,1.7l-17.9,22.3c-1.5,1.9-1.2,4.8.7,6.3,15.4,12.3,24.3,30.6,24.3,50.3,0,35.4-28.8,64.3-64.3,64.3s-64.3-28.8-64.3-64.3,28.8-64.3,64.3-64.3c2.5,0,4.5-2,4.5-4.5v-28.6c0-2.5-2-4.5-4.5-4.5-27.1,0-52.6,10.7-72,30-19.4,19.3-30,44.9-30,72s10.7,52.6,30,72c19.3,19.4,44.9,30,72,30s52.6-10.7,72-30c19.4-19.3,30-44.9,30-72,0-31.3-14-60.4-38.5-79.8Z"/>
      <path class="cls-3" d="M154.5,101.4c-29.3,0-53.1,23.8-53.1,53.1s23.8,53.1,53.1,53.1,53.1-23.8,53.1-53.1-23.8-53.1-53.1-53.1Z"/>
      <path class="cls-6" d="M184.7,139.9c0-8-6.5-14.5-14.5-14.5s-14.5,6.5-14.5,14.5,6.5,14.5,14.5,14.5,14.5-6.5,14.5-14.5h0Z"/>
      <path class="cls-5" d="M28.6,0h53.2c2.5,0,4.5,2,4.5,4.5s-2,4.5-4.5,4.5H28.6c-10.8,0-19.6,8.8-19.6,19.6v53.2c0,2.5-2,4.5-4.5,4.5s-4.5-2-4.5-4.5V28.6C0,12.8,12.8,0,28.6,0h0Z"/>
      <path class="cls-7" d="M304.5,86.3c-2.5,0-4.5-2-4.5-4.5V28.6c0-10.8-8.8-19.6-19.6-19.6h-53.2c-2.5,0-4.5-2-4.5-4.5s2-4.5,4.5-4.5h53.2c15.8,0,28.6,12.8,28.6,28.6v53.2c0,2.5-2,4.5-4.5,4.5h0Z"/>
      <path class="cls-4" d="M280.4,309h-53.2c-2.5,0-4.5-2-4.5-4.5s2-4.5,4.5-4.5h53.2c10.8,0,19.6-8.8,19.6-19.6v-53.2c0-2.5,2-4.5,4.5-4.5s4.5,2,4.5,4.5v53.2c0,15.8-12.8,28.6-28.6,28.6h0Z"/>
      <path class="cls-2" d="M4.5,222.7c2.5,0,4.5,2,4.5,4.5v53.2c0,10.8,8.8,19.6,19.6,19.6h53.2c2.5,0,4.5,2,4.5,4.5s-2,4.5-4.5,4.5H28.6c-15.8,0-28.6-12.8-28.6-28.6v-53.2c0-2.5,2-4.5,4.5-4.5h0Z"/>
    </g>
  </g>
</svg>