<svg xmlns="http://www.w3.org/2000/svg" viewBox="0 0 231.73 269.32"><defs><style>.cls-1{fill:#7b99b3;}.cls-2{fill:#fff;}.cls-3{fill:#003354;}</style></defs><title>Ресурс 2</title><g id="Слой_2" data-name="Слой 2"><g id="Слой_1-2" data-name="Слой 1"><path class="cls-1" d="M227,196.8H41a31.55,31.55,0,1,0,0,63.1H227c2.6,0,2.6-63.1,0-63.1Z"/><polygon class="cls-2" points="56.86 245.57 56.86 235.1 205.2 235.1 205.2 221.77 56.86 221.77 56.86 211.3 205.2 211.3 205.2 197.12 35.94 197.12 35.94 262.07 205.2 262.07 205.2 245.57 56.86 245.57 56.86 245.57"/><path class="cls-3" d="M41,269.32a41,41,0,1,1,0-81.95H227a4.72,4.72,0,0,1,0,9.43H41a31.55,31.55,0,1,0,0,63.1H227a4.71,4.71,0,0,1,0,9.42Z"/><path class="cls-3" d="M41,9.42A31.6,31.6,0,0,0,9.42,41V202.11l1.73-1.84A40.6,40.6,0,0,1,41,187.37H222.31V9.42ZM4.71,233.06A4.72,4.72,0,0,1,0,228.35V41A41,41,0,0,1,41,0H227a4.71,4.71,0,0,1,4.71,4.71V192.08A4.72,4.72,0,0,1,227,196.8H41A31.59,31.59,0,0,0,9.42,228.35a4.72,4.72,0,0,1-4.71,4.71Z"/><path class="cls-2" d="M41,9.42A31.6,31.6,0,0,0,9.42,41V202.11l1.73-1.84A40.6,40.6,0,0,1,41,187.37H222.31V9.42Z"/><polygon class="cls-1" points="66.54 4.71 66.54 75.33 94.03 56.59 119.01 75.33 119.01 4.71 66.54 4.71 66.54 4.71"/><path class="cls-3" d="M71.26,66.41,91.37,52.7a4.71,4.71,0,0,1,5.48.12L114.3,65.9V9.42h-43v57ZM66.54,80a4.72,4.72,0,0,1-4.71-4.71V4.71A4.72,4.72,0,0,1,66.54,0H119a4.71,4.71,0,0,1,4.71,4.71V75.33a4.72,4.72,0,0,1-7.54,3.77L93.89,62.38,69.2,79.22a4.67,4.67,0,0,1-2.66.82Z"/></g></g></svg>