<?xml version="1.0" encoding="UTF-8"?>
<svg id="_Слой_2" data-name="Слой 2" xmlns="http://www.w3.org/2000/svg" xmlns:xlink="http://www.w3.org/1999/xlink" viewBox="0 0 99.5 106.2">
  <defs>
    <style>
      .cls-1 {
        fill: url(#_Безымянный_градиент_2);
      }

      .cls-1, .cls-2 {
        stroke-width: 0px;
      }

      .cls-2 {
        fill: #fff;
      }
    </style>
    <linearGradient id="_Безымянный_градиент_2" data-name="Безымянный градиент 2" x1="0" y1="53.1" x2="99.5" y2="53.1" gradientUnits="userSpaceOnUse">
      <stop offset="0" stop-color="#3652e2"/>
      <stop offset="1" stop-color="#b5289b"/>
    </linearGradient>
  </defs>
  <g id="Background">
    <g>
      <path class="cls-1" d="M83.5,74.3h-2.6c-.2,0-.3.1-.5.1,0,0-.2.1-.3.1s-.3.1-.5.1l-.2.1c-.2.1-.4.1-.6.2h-.1c-2.9,1-5.5,2.7-7.5,5.1l-.2.2-23.3-14.9.2-.3c.9-1.7,1.6-3.5,2.1-5.4l.1-.1c0-.1.1-.3.1-.4l.1-.7.1-.3c0-.1.1-.3.1-.4l.1-.3c0-.2.1-.4.1-.6v-.1c0-.2.1-.5.1-.7v-.2c.1-.1.1-.3.1-.5v-4.7c-.1-.1-.1-.3-.1-.5v-.2c0-.2-.1-.5-.1-.7v-.1c0-.2-.1-.4-.1-.6l-.1-.3c0-.1-.1-.3-.1-.4l-.1-.3-.1-.3c0-.1-.1-.3-.1-.4l-.1-.2c-.5-1.9-1.2-3.7-2.1-5.4l-.2-.3,23.3-14.8.3.2c2,2.4,4.6,4.2,7.5,5.1h.1c.2.1.4.1.6.2l.2.1c.1,0,.3.1.5.1.1.1.2.1.3.1.2,0,.3.1.5.1h2.5c8.8,0,16-7.2,16-16S92.3,0,83.5,0s-16,7.2-16,16c0,2.4.6,4.7,1.6,6.9l.1.3-23.3,14.9-.2-.3c-4.9-6.4-12.3-10.1-20.3-10.1C11.4,27.7,0,39,0,53.1s11.4,25.5,25.4,25.5c8,0,15.4-3.7,20.3-10.1l.2-.3,23.3,14.8-.1.3c-1.1,2.2-1.6,4.5-1.6,6.9,0,8.8,7.2,16,16,16s16-7.2,16-15.9-7.2-16-16-16ZM83.5,3.4c7,0,12.7,5.7,12.7,12.7s-5.7,12.7-12.7,12.7h-1.7c-.1-.1-.3-.1-.4-.1h-.3c-.2,0-.3-.1-.4-.1h-.1c-.3-.1-.5-.1-.7-.2l-.2-.1c-.2-.1-.3-.1-.5-.2l-.2-.1c-.2-.1-.3-.1-.5-.2-1.5-.6-2.8-1.6-4-2.7-.1-.1-.3-.3-.4-.4l-.1-.1c-.1-.2-.3-.4-.5-.6l-.1-.1c0-.1-.1-.1-.1-.2s-.1-.1-.1-.2l-.1-.1c0-.2-.1-.3-.2-.4-1.4-2-2.1-4.4-2.1-6.9,0-7,5.7-12.7,12.7-12.7ZM83.7,102.9c-7,0-12.7-5.7-12.7-12.7,0-2.4.7-4.8,2.1-6.9,0-.2.1-.3.2-.4l.1-.1c0-.1.1-.1.1-.2s.1-.1.1-.2l.1-.1c.1-.2.3-.4.5-.6l.1-.1.4-.4c1.2-1.2,2.5-2.1,4-2.7.2-.1.3-.1.5-.2l.1-.1c.2-.1.3-.2.5-.2,0-.1.2-.1.2-.1.2-.1.4-.1.7-.2.1,0,.3-.1.4-.1h.3c.1-.1.3-.1.4-.1h1.7c7,0,12.7,5.7,12.9,12.7,0,7-5.7,12.7-12.7,12.7Z"/>
      <path class="cls-2" d="M73.2,23.4h0c.1.1.1.2.2.3,0,.1.1.1.1.2l.1.1c.2.2.4.4.5.6l.1.1c.1.1.3.3.4.4h0c1.2,1.1,2.5,2.1,4,2.7h0c.2.1.3.1.5.2l.2.1c.2.1.3.1.5.2l.2.1c.2.1.4.1.7.2h.1c.1,0,.2.1.4.1h.3c.1,0,.3,0,.4.1h1.7c7,0,12.7-5.7,12.7-12.7s-5.7-12.7-12.7-12.7-12.7,5.7-12.7,12.7c0,2.5.7,4.9,2.1,6.9,0,.2.1.3.2.4h0Z"/>
      <path class="cls-2" d="M83.5,77.5h-1.7c-.1,0-.3,0-.4.1h-.3c-.1,0-.3.1-.4.1-.3.1-.5.1-.7.2,0,0-.2,0-.2.1-.2,0-.3.1-.5.2l-.1.1c-.2.1-.3.1-.5.2h0c-1.5.6-2.8,1.5-4,2.7l-.4.4-.1.1c-.2.2-.4.4-.5.6l-.1.1c0,.1-.1.1-.1.2s-.1.1-.1.2l-.1.1c-.1.1-.2.2-.2.4-1.4,2.1-2.1,4.5-2.1,6.9,0,7,5.7,12.7,12.7,12.7s12.7-5.7,12.7-12.7c-.2-7-5.9-12.7-12.9-12.7h0Z"/>
    </g>
  </g>
</svg>