<svg xmlns="http://www.w3.org/2000/svg" viewBox="0 0 309 248.04"><defs><style>.cls-1{fill:#003354;}.cls-2{fill:#7b99b3;}.cls-3{fill:#fff;}</style></defs><title>Ресурс 2</title><g id="Слой_2" data-name="Слой 2"><g id="Layer_1" data-name="Layer 1"><path class="cls-1" d="M300,16a7,7,0,0,1-7,7H264.27a4.5,4.5,0,0,0-4,2.44l-11,21.42a4.2,4.2,0,0,0-.45,1.39L233,153.34a4.51,4.51,0,0,0,2.44,4.7A33.45,33.45,0,0,1,249,205.6c-.07-.18-.17-.36-.25-.54-.16-.34-.31-.68-.48-1s-.25-.48-.38-.71l-.53-1-.43-.71c-.19-.3-.39-.6-.59-.9s-.31-.46-.48-.69-.41-.57-.63-.85-.34-.45-.52-.67l-.69-.81-.56-.63-.76-.78c-.19-.2-.38-.39-.58-.58s-.55-.51-.83-.76-.39-.35-.6-.52-.62-.5-.93-.75l-.48-.38a19.48,19.48,0,0,0-18.75-24.83H38.33a7,7,0,0,1-6.86-5.66L9.13,48A7,7,0,0,1,16,39.64H234.47a4.51,4.51,0,0,0,4-2.44l12.59-24.41A7,7,0,0,1,257.27,9H293a7,7,0,0,1,7,7ZM221.2,196.34a21.41,21.41,0,0,1,20.16,14.29,21.71,21.71,0,0,1,1.1,5.08c.06.7.1,1.35.1,2A21.36,21.36,0,0,1,201,224.54a21.81,21.81,0,0,1-1.06-5.11c0-.57-.07-1.16-.07-1.74a21.36,21.36,0,0,1,21.35-21.35Zm-28.6,11.17c-.06.17-.1.34-.15.51-.16.46-.3.92-.43,1.39-.09.32-.18.64-.26,1-.12.48-.23,1-.32,1.46-.06.31-.13.62-.18.94-.09.54-.15,1.09-.21,1.64,0,.26-.07.53-.09.8-.07.82-.11,1.64-.11,2.47s0,1.5.09,2.24c0,.23.05.46.07.68s0,.59.08.88h-85c0-.29.06-.59.08-.88s0-.45.07-.68c0-.74.09-1.49.09-2.24s0-1.65-.1-2.47c0-.27-.07-.54-.1-.8-.05-.55-.12-1.1-.21-1.64,0-.32-.11-.63-.17-.94-.1-.49-.2-1-.32-1.47-.08-.32-.17-.64-.26-1-.14-.47-.28-.93-.43-1.39-.06-.17-.1-.34-.16-.51Zm-99-1.94a21.12,21.12,0,0,1,3.24,7.31,21.51,21.51,0,0,1-.59,11.67h0a21.36,21.36,0,1,1-2.65-19ZM293,0H257.27a15.93,15.93,0,0,0-14.21,8.66l-11.34,22H16A15.94,15.94,0,0,0,3.65,36.46h0A15.91,15.91,0,0,0,.3,49.68L22.64,164.57a16,16,0,0,0,15.69,12.94H220.57a10.51,10.51,0,0,1,10.5,10.5c0,.33,0,.65-.06,1a30.27,30.27,0,0,0-33.31,9.53H99.5a30.35,30.35,0,1,0,4,32h90.21a30.34,30.34,0,0,0,57.85-12.8c0-.22,0-.43,0-.65a42.43,42.43,0,0,0-9.17-65.47L257.57,50.3,267,32h26a16,16,0,1,0,0-32Z"/><path class="cls-2" d="M221.2,196.34a21.41,21.41,0,0,1,20.16,14.29,21.71,21.71,0,0,1,1.1,5.08c.06.7.1,1.35.1,2A21.36,21.36,0,0,1,201,224.54a21.81,21.81,0,0,1-1.06-5.11c0-.57-.07-1.16-.07-1.74a21.36,21.36,0,0,1,21.35-21.35Z"/><path class="cls-3" d="M192.45,208c-.16.46-.3.92-.43,1.39-.09.32-.18.64-.26,1-.12.48-.23,1-.32,1.46-.06.31-.13.62-.18.94-.09.54-.15,1.09-.21,1.64,0,.26-.07.53-.09.8-.07.82-.11,1.64-.11,2.47s0,1.5.09,2.24c0,.23.05.46.07.68s0,.59.08.88h-85c0-.29.06-.59.08-.88s0-.45.07-.68c0-.74.09-1.49.09-2.24s0-1.65-.1-2.47c0-.27-.07-.54-.1-.8-.05-.55-.12-1.1-.21-1.64,0-.32-.11-.63-.17-.94-.1-.49-.2-1-.32-1.47-.08-.32-.17-.64-.26-1-.14-.47-.28-.93-.43-1.39-.06-.17-.1-.34-.16-.51h88c-.06.17-.1.34-.15.51Z"/><path class="cls-2" d="M76,196.34a21.36,21.36,0,0,1,17.57,9.23,21.12,21.12,0,0,1,3.24,7.31,21.51,21.51,0,0,1-.59,11.67h0A21.35,21.35,0,1,1,76,196.34Z"/><path class="cls-3" d="M10.6,42.18A7,7,0,0,1,16,39.64H234.47a4.51,4.51,0,0,0,4-2.44l12.59-24.41A7,7,0,0,1,257.27,9H293a7,7,0,1,1,0,14H264.27a4.5,4.5,0,0,0-4,2.44l-11,21.42a4.2,4.2,0,0,0-.45,1.39L233,153.34a4.51,4.51,0,0,0,2.44,4.7A33.45,33.45,0,0,1,249,205.6c-.07-.18-.17-.36-.25-.54-.16-.34-.31-.68-.48-1s-.25-.48-.38-.71l-.53-1-.43-.71c-.19-.3-.39-.6-.59-.9s-.31-.46-.48-.69-.41-.57-.63-.85-.34-.45-.52-.67l-.69-.81-.56-.63-.76-.78c-.19-.2-.38-.39-.58-.58s-.55-.51-.83-.76-.39-.35-.6-.52-.62-.5-.93-.75l-.48-.38a19.48,19.48,0,0,0-18.75-24.83H38.33a7,7,0,0,1-6.86-5.66L9.13,48a7,7,0,0,1,1.47-5.78Z"/></g></g></svg>