<?xml version="1.0" encoding="utf-8"?>
<!-- Generator: Adobe Illustrator 23.1.0, SVG Export Plug-In . SVG Version: 6.00 Build 0)  -->
<svg version="1.1" id="Слой_1" xmlns="http://www.w3.org/2000/svg" xmlns:xlink="http://www.w3.org/1999/xlink" x="0px" y="0px"
	 viewBox="0 0 115.5 105.4" style="enable-background:new 0 0 115.5 105.4;" xml:space="preserve">
<style type="text/css">
	.st0{fill:#7B99B3;}
	.st1{fill:#003354;}
	.st2{fill:#FFFFFF;}
	.st3{fill:#272521;}
</style>
<g>
	<g>
		<g>
			<g>
				<rect x="50.9" y="85.8" class="st0" width="58.1" height="6"/>
				<path class="st1" d="M108.9,92.7h-58c-0.5,0-1-0.4-1-1v-6c0-0.5,0.4-1,1-1H109c0.5,0,1,0.4,1,1v6
					C109.9,92.3,109.4,92.7,108.9,92.7z M51.8,90.8h56.1v-4H51.8V90.8z"/>
			</g>
		</g>
		<g>
			<g>
				<rect x="46" y="92.5" class="st2" width="67.8" height="11.3"/>
				<path class="st3" d="M113.8,104.7H46c-0.5,0-1-0.4-1-1V92.5c0-0.5,0.4-1,1-1h67.8c0.5,0,1,0.4,1,1v11.3
					C114.8,104.3,114.3,104.7,113.8,104.7z M46.9,102.8h65.9v-9.4H46.9V102.8z"/>
			</g>
			<g>
				<path class="st0" d="M114.5,104.5H45.3V91.8h69.2V104.5z"/>
				<path class="st1" d="M114.5,105.4H45.3c-0.5,0-1-0.4-1-1V91.8c0-0.5,0.4-1,1-1h69.2c0.5,0,1,0.4,1,1v12.7
					C115.5,105,115,105.4,114.5,105.4z M46.2,103.5h67.3V92.8H46.2V103.5z"/>
			</g>
		</g>
	</g>
	<g>
		<g>
			<g>
				<path class="st0" d="M68.6,48.1l-2.3-2.8L64,42.5c0,0-56.2,42.8-60.8,46.6c-4.6,3.8-0.8,8.5-0.8,8.5s3.8,4.7,8.5,0.9
					C15.5,94.7,68.6,48.1,68.6,48.1z"/>
				<path class="st1" d="M7.2,101L7.2,101c-3.2,0-5.4-2.6-5.5-2.7c0-0.1-1.1-1.4-1.5-3.2c-0.4-1.8-0.3-4.3,2.5-6.6
					c4.6-3.8,58.5-44.8,60.8-46.6c0.4-0.3,1-0.2,1.3,0.2l4.5,5.5c0.3,0.4,0.3,1-0.1,1.3C67,50.8,16.1,95.6,11.5,99.3
					C10.1,100.4,8.7,101,7.2,101z M63.9,43.9c-6.7,5.1-55.8,42.5-60,46c-1.6,1.3-2.2,2.9-1.8,4.7C2.4,96,3.2,97,3.2,97s1.7,2,4,2
					l0,0c1,0,2.1-0.4,3.1-1.3c4.3-3.5,50.7-44.2,57-49.7L63.9,43.9z"/>
			</g>
		</g>
		<g>
			<g>
				<polygon class="st0" points="87.7,27.8 69.5,5.5 43,27.2 61.3,49.5 79.5,71.8 106,50.2 				"/>
				<path class="st1" d="M79.5,72.8L79.5,72.8c-0.4,0-0.6-0.2-0.7-0.4L42.2,27.8C42,27.6,42,27.3,42,27.1c0-0.3,0.2-0.5,0.3-0.7
					L68.9,4.8c0.2-0.2,0.5-0.2,0.7-0.2c0.3,0,0.5,0.2,0.7,0.4l36.5,44.7c0.2,0.2,0.2,0.5,0.2,0.7c0,0.3-0.2,0.5-0.3,0.7L80.1,72.6
					C80,72.7,79.8,72.8,79.5,72.8z M44.4,27.3l35.3,43.2l25-20.4L69.3,6.9L44.4,27.3z"/>
			</g>
		</g>
		<g>
			<g>
				<g>
					<path class="st2" d="M81.8,75.2c-2.1,1.7-5.2,1.4-7-0.7l0,0c-1.7-2.1-1.4-5.2,0.7-7l27.2-22.3c2.1-1.7,5.2-1.4,7,0.7l0,0
						c1.7,2.1,1.4,5.2-0.7,7L81.8,75.2z"/>
					<path class="st1" d="M78.6,77.3c-1.8,0-3.5-0.8-4.6-2.2c-1-1.2-1.5-2.8-1.3-4.3c0.2-1.6,0.9-3,2.1-4L102,44.5
						c1.1-0.9,2.4-1.3,3.7-1.3c1.8,0,3.5,0.8,4.6,2.2c1,1.2,1.5,2.8,1.3,4.3c-0.2,1.6-0.9,3-2.1,4L82.4,76
						C81.3,76.9,80,77.3,78.6,77.3z M105.9,45.2c-0.9,0-1.8,0.3-2.5,0.9L76.1,68.3C75.3,69,74.8,70,74.7,71
						c-0.1,1.1,0.2,2.1,0.9,2.9c1.3,1.6,4,1.9,5.6,0.6l27.2-22.3c0.8-0.7,1.3-1.6,1.4-2.7c0.1-1.1-0.2-2.1-0.9-2.9
						C108.2,45.7,107.1,45.2,105.9,45.2z"/>
				</g>
			</g>
			<g>
				<g>
					<path class="st2" d="M46.4,32c-2.1,1.7-5.2,1.4-7-0.7l0,0c-1.7-2.1-1.4-5.2,0.7-7L67.3,2c2.1-1.7,5.2-1.4,7,0.7l0,0
						c1.7,2.1,1.4,5.2-0.7,7L46.4,32z"/>
					<path class="st1" d="M43.2,34c-1.8,0-3.5-0.8-4.6-2.2c-1-1.2-1.5-2.8-1.3-4.3c0.2-1.6,0.9-3,2.1-4L66.7,1.3
						c2.4-2,6.3-1.6,8.3,0.8c2.1,2.5,1.7,6.3-0.8,8.3L47,32.7C45.9,33.6,44.6,34,43.2,34z M70.4,1.9c-0.9,0-1.8,0.3-2.5,0.9
						L40.7,25.1c-0.8,0.7-1.3,1.6-1.4,2.7c-0.1,1.1,0.2,2.1,0.9,2.9c1.3,1.6,4,1.9,5.6,0.6L73,8.9c1.7-1.4,1.9-3.9,0.6-5.6
						C72.8,2.4,71.6,1.9,70.4,1.9z"/>
				</g>
			</g>
		</g>
	</g>
</g>
</svg>
