<?xml version="1.0" encoding="UTF-8"?>
<svg id="_Слой_2" data-name="Слой 2" xmlns="http://www.w3.org/2000/svg" xmlns:xlink="http://www.w3.org/1999/xlink" viewBox="0 0 309 225.4">
  <defs>
    <style>
      .cls-1 {
        fill: url(#_Безымянный_градиент_2);
      }

      .cls-1, .cls-2, .cls-3, .cls-4, .cls-5, .cls-6, .cls-7, .cls-8, .cls-9 {
        stroke-width: 0px;
      }

      .cls-2 {
        fill: url(#_Безымянный_градиент_2-6);
      }

      .cls-3 {
        fill: url(#_Безымянный_градиент_2-2);
      }

      .cls-4 {
        fill: url(#_Безымянный_градиент_2-7);
      }

      .cls-5 {
        fill: url(#_Безымянный_градиент_2-5);
      }

      .cls-6 {
        fill: url(#_Безымянный_градиент_2-8);
      }

      .cls-7 {
        fill: url(#_Безымянный_градиент_2-3);
      }

      .cls-8 {
        fill: #fff;
      }

      .cls-9 {
        fill: url(#_Безымянный_градиент_2-4);
      }
    </style>
    <linearGradient id="_Безымянный_градиент_2" data-name="Безымянный градиент 2" x1="0" y1="112.7" x2="309" y2="112.7" gradientUnits="userSpaceOnUse">
      <stop offset="0" stop-color="#3652e2"/>
      <stop offset="1" stop-color="#b5289b"/>
    </linearGradient>
    <linearGradient id="_Безымянный_градиент_2-2" data-name="Безымянный градиент 2" x1="26.4" y1="102.9" x2="282.7" y2="102.9" xlink:href="#_Безымянный_градиент_2"/>
    <linearGradient id="_Безымянный_градиент_2-3" data-name="Безымянный градиент 2" x1="35.4" y1="104.5" x2="277.82" y2="104.5" xlink:href="#_Безымянный_градиент_2"/>
    <linearGradient id="_Безымянный_градиент_2-4" data-name="Безымянный градиент 2" x1="250.1" y1="195.2" x2="270.2" y2="195.2" xlink:href="#_Безымянный_градиент_2"/>
    <linearGradient id="_Безымянный_градиент_2-5" data-name="Безымянный градиент 2" x1="221.3" y1="195.2" x2="241.4" y2="195.2" xlink:href="#_Безымянный_градиент_2"/>
    <linearGradient id="_Безымянный_градиент_2-6" data-name="Безымянный градиент 2" x1="192.4" y1="195.2" x2="212.5" y2="195.2" xlink:href="#_Безымянный_градиент_2"/>
    <linearGradient id="_Безымянный_градиент_2-7" data-name="Безымянный градиент 2" x1="163.6" y1="195.2" x2="183.7" y2="195.2" xlink:href="#_Безымянный_градиент_2"/>
    <linearGradient id="_Безымянный_градиент_2-8" data-name="Безымянный градиент 2" x1="134.8" y1="195.2" x2="154.9" y2="195.2" xlink:href="#_Безымянный_градиент_2"/>
  </defs>
  <g id="Background">
    <g>
      <path class="cls-1" d="M9,29.2c0-11.1,9.1-20.2,20.2-20.2h250.6c11.2,0,20.2,9.1,20.2,20.2v167c0,11.2-9.1,20.2-20.2,20.2H29.2c-11.2,0-20.2-9.1-20.2-20.2V29.2h0ZM0,29.2v167c0,16.1,13.1,29.2,29.2,29.2h250.6c16.1,0,29.2-13.1,29.2-29.2V29.2c0-16.1-13.1-29.2-29.2-29.2H29.2C13.1,0,0,13.1,0,29.2h0Z"/>
      <path class="cls-8" d="M29.2,9h250.6c11.2,0,20.2,9.1,20.2,20.2v167c0,11.2-9.1,20.2-20.2,20.2H29.2c-11.2,0-20.2-9.1-20.2-20.2V29.2c0-11.1,9.1-20.2,20.2-20.2h0Z"/>
      <path class="cls-3" d="M35.4,35.4h238.3v135H35.4V35.4h0ZM26.4,30.9v144c0,2.5,2,4.5,4.5,4.5h247.3c2.5,0,4.5-2,4.5-4.5V30.9c0-2.5-2-4.5-4.5-4.5H30.9c-2.5,0-4.5,2-4.5,4.5h0Z"/>
      <polygon class="cls-7" points="35.4 35.4 277.82 35.4 277.82 173.6 35.4 173.6 35.4 35.4"/>
      <path class="cls-8" d="M250.1,150.7h-17v-29.7h17v29.7h0ZM259.1,155.2v-38.7c0-2.5-2-4.5-4.5-4.5h-26c-2.5,0-4.5,2-4.5,4.5v38.7c0,2.5,2,4.5,4.5,4.5h26c2.5,0,4.5-2,4.5-4.5h0Z"/>
      <path class="cls-8" d="M206,150.7h-17v-68.9h17v68.9h0ZM215,155.2v-77.9c0-2.5-2-4.5-4.5-4.5h-26c-2.5,0-4.5,2-4.5,4.5v77.9c0,2.5,2,4.5,4.5,4.5h26c2.5,0,4.5-2,4.5-4.5h0Z"/>
      <path class="cls-8" d="M162,150.7h-17v-40.5h17v40.5h0ZM171,155.2v-49.5c0-2.5-2-4.5-4.5-4.5h-26c-2.5,0-4.5,2-4.5,4.5v49.5c0,2.5,2,4.5,4.5,4.5h26c2.4,0,4.5-2,4.5-4.5h0Z"/>
      <path class="cls-8" d="M117.9,150.7h-17v-52.8h17v52.8h0ZM126.9,155.2v-61.8c0-2.5-2-4.5-4.5-4.5h-26c-2.5,0-4.5,2-4.5,4.5v61.8c0,2.5,2,4.5,4.5,4.5h26c2.4,0,4.5-2,4.5-4.5h0Z"/>
      <path class="cls-8" d="M73.8,150.7h-17V57.1h17v93.6h0ZM82.8,155.2V52.6c0-2.5-2-4.5-4.5-4.5h-26c-2.5,0-4.5,2-4.5,4.5v102.6c0,2.5,2,4.5,4.5,4.5h26c2.4,0,4.5-2,4.5-4.5h0Z"/>
      <polygon class="cls-8" points="252.88 154.29 227.01 154.29 227.01 117.91 252.88 117.91 252.88 154.29"/>
      <polygon class="cls-8" points="211.63 154.29 185.76 154.29 185.76 78.72 211.63 78.72 211.63 154.29"/>
      <polygon class="cls-8" points="162 150.7 145 150.7 145 110.2 162 110.2 162 150.7"/>
      <polygon class="cls-8" points="117.9 150.7 100.9 150.7 100.9 97.9 117.9 97.9 117.9 150.7"/>
      <polygon class="cls-8" points="73.8 150.7 56.8 150.7 56.8 57.1 73.8 57.1 73.8 150.7"/>
      <path class="cls-9" d="M254.6,190.7h11.1c2.5,0,4.5,2,4.5,4.5s-2,4.5-4.5,4.5h-11.1c-2.5,0-4.5-2-4.5-4.5s2.1-4.5,4.5-4.5h0Z"/>
      <path class="cls-5" d="M225.8,190.7h11.1c2.5,0,4.5,2,4.5,4.5s-2,4.5-4.5,4.5h-11.1c-2.5,0-4.5-2-4.5-4.5s2-4.5,4.5-4.5h0Z"/>
      <path class="cls-2" d="M196.9,190.7h11.1c2.5,0,4.5,2,4.5,4.5s-2,4.5-4.5,4.5h-11.1c-2.5,0-4.5-2-4.5-4.5s2.1-4.5,4.5-4.5h0Z"/>
      <path class="cls-4" d="M168.1,190.7h11.1c2.5,0,4.5,2,4.5,4.5s-2,4.5-4.5,4.5h-11.1c-2.5,0-4.5-2-4.5-4.5s2-4.5,4.5-4.5h0Z"/>
      <path class="cls-6" d="M139.3,190.7h11.1c2.5,0,4.5,2,4.5,4.5s-2,4.5-4.5,4.5h-11.1c-2.5,0-4.5-2-4.5-4.5s2-4.5,4.5-4.5h0Z"/>
    </g>
  </g>
</svg>