<?xml version="1.0" encoding="UTF-8"?>
<svg id="_Слой_2" data-name="Слой 2" xmlns="http://www.w3.org/2000/svg" xmlns:xlink="http://www.w3.org/1999/xlink" viewBox="0 0 309 248.09">
  <defs>
    <style>
      .cls-1 {
        fill: url(#_Безымянный_градиент_2);
      }

      .cls-1, .cls-2 {
        stroke-width: 0px;
      }

      .cls-2 {
        fill: #fff;
      }
    </style>
    <linearGradient id="_Безымянный_градиент_2" data-name="Безымянный градиент 2" x1="0" y1="124.05" x2="309" y2="124.05" gradientUnits="userSpaceOnUse">
      <stop offset="0" stop-color="#3652e2"/>
      <stop offset="1" stop-color="#b5289b"/>
    </linearGradient>
  </defs>
  <g id="Background">
    <g id="_Слой_2-2" data-name="Слой 2">
      <g id="Layer_1" data-name="Layer 1">
        <path class="cls-2" d="M192.45,208c-.16.46-.3.92-.43,1.39-.09.32-.18.64-.26,1-.12.48-.23,1-.32,1.46-.06.31-.13.62-.18.94-.09.54-.15,1.09-.21,1.64,0,.26-.07.53-.09.8-.07.82-.11,1.64-.11,2.47s0,1.5.09,2.24c0,.23.05.46.07.68s0,.59.08.88h-85c0-.29.06-.59.08-.88s0-.45.07-.68c0-.74.09-1.49.09-2.24s0-1.65-.1-2.47c0-.27-.07-.54-.1-.8-.05-.55-.12-1.1-.21-1.64,0-.32-.11-.63-.17-.94-.1-.49-.2-1-.32-1.47-.08-.32-.17-.64-.26-1-.14-.47-.28-.93-.43-1.39-.06-.17-.1-.34-.16-.51h88c-.06.17-.1.34-.15.51h.02Z"/>
        <path class="cls-1" d="M293,0h-35.73c-5.99-.01-11.48,3.33-14.21,8.66l-11.34,22H16c-4.78-.02-9.31,2.11-12.35,5.8-3.04,3.68-4.27,8.53-3.35,13.22l22.34,114.89c1.46,7.51,8.04,12.93,15.69,12.94h182.24c5.8,0,10.49,4.7,10.5,10.5,0,.33,0,.65-.06,1-12-4.12-25.3-.31-33.31,9.53h-98.2c-10.6-12.99-29.72-14.92-42.7-4.32s-14.92,29.72-4.32,42.7c10.6,12.99,29.72,14.92,42.7,4.32,3.55-2.89,6.39-6.55,8.32-10.7h90.21c7.07,15.19,25.11,21.78,40.31,14.71,10.7-4.98,17.55-15.71,17.54-27.51v-.65c16.04-17.08,15.2-43.93-1.89-59.97-2.22-2.09-4.67-3.93-7.28-5.5l15.18-101.32,9.43-18.3h26c8.84,0,16-7.16,16-16S301.84,0,293,0ZM61,202.5c-.36.35-.7.72-1.04,1.1.33-.38.68-.74,1.04-1.1ZM57.04,207.89c-.18.35-.35.71-.51,1.07.16-.36.33-.72.51-1.07ZM59.87,203.71c-.3.34-.58.7-.86,1.06.28-.36.56-.72.86-1.06ZM58.84,204.99c-.28.38-.54.76-.79,1.15.25-.39.52-.78.79-1.15ZM57.82,206.51c-.19.3-.36.61-.53.92.17-.31.35-.62.53-.92ZM55.99,210.3c.09-.24.18-.48.27-.71-.1.23-.18.47-.27.71ZM96.25,224.55c-3.79,11.17-15.92,17.15-27.09,13.36,0,0,0,0,0,0,11.16,3.78,23.28-2.2,27.07-13.36,1.27-3.76,1.47-7.8.59-11.67-.6-2.62-1.7-5.1-3.24-7.31-3.98-5.78-10.55-9.23-17.57-9.23-2.85,0-5.6.57-8.12,1.61,4.61-1.91,9.91-2.22,15.01-.49,4.35,1.48,8.1,4.31,10.71,8.09v.02c1.54,2.21,2.64,4.69,3.24,7.31.88,3.87.68,7.91-.59,11.67ZM61.15,202.36c.73-.71,1.52-1.37,2.34-1.96-.82.6-1.61,1.25-2.34,1.96ZM63.63,200.29c.42-.3.85-.58,1.28-.85-.44.27-.87.55-1.28.85ZM64.96,199.42c.45-.27.9-.52,1.37-.76-.47.24-.92.49-1.37.76ZM66.38,198.63c.48-.24.96-.46,1.45-.67-.49.21-.98.43-1.45.67ZM192.45,208.02c-.16.46-.3.92-.43,1.39-.09.32-.18.64-.26,1-.12.48-.23,1-.32,1.46-.06.31-.13.62-.18.94-.09.54-.15,1.09-.21,1.64,0,.26-.07.53-.09.8-.07.82-.11,1.64-.11,2.47s0,1.5.09,2.24c0,.23.05.46.07.68.02.22,0,.59.08.88h-85c0-.29.06-.59.08-.88s0-.45.07-.68c0-.74.09-1.49.09-2.24s0-1.65-.1-2.47c0-.27-.07-.54-.1-.8-.05-.55-.12-1.1-.21-1.64,0-.32-.11-.63-.17-.94-.1-.49-.2-1-.32-1.47-.08-.32-.17-.64-.26-1-.14-.47-.28-.93-.43-1.39-.06-.17-.1-.34-.16-.51h88.02c-.06.18-.1.35-.15.52ZM293,23h-28.73c-1.69,0-3.23.94-4,2.44l-11,21.42c-.23.43-.38.9-.45,1.39l-15.82,105.09c-.29,1.93.7,3.83,2.44,4.7,16.54,8.22,23.29,28.3,15.07,44.84-.46.93-.97,1.84-1.51,2.72-.07-.18-.17-.36-.25-.54-.16-.34-.31-.68-.48-1-.17-.32-.25-.48-.38-.71l-.53-1-.43-.71c-.19-.3-.39-.6-.59-.9-.2-.3-.31-.46-.48-.69-.17-.23-.41-.57-.63-.85-.22-.28-.34-.45-.52-.67l-.69-.81-.56-.63-.76-.78c-.19-.2-.38-.39-.58-.58-.2-.19-.55-.51-.83-.76-.28-.25-.39-.35-.6-.52s-.62-.5-.93-.75l-.48-.38c2.95-10.34-3.04-21.13-13.38-24.08-1.75-.5-3.55-.75-5.37-.75H38.33c-3.35,0-6.22-2.38-6.86-5.66L9.13,48c-.75-3.79,1.71-7.48,5.51-8.23.45-.09.91-.13,1.36-.13h218.47c1.68,0,3.23-.94,4-2.44l12.59-24.41c1.2-2.32,3.59-3.79,6.21-3.79h35.73c3.87,0,7,3.13,7,7s-3.13,7-7,7Z"/>
        <path class="cls-2" d="M10.6,42.18c1.33-1.61,3.31-2.54,5.4-2.54h218.47c1.68,0,3.23-.94,4-2.44l12.59-24.41c1.2-2.32,3.59-3.79,6.21-3.79h35.73c3.87,0,7,3.13,7,7s-3.13,7-7,7h-28.73c-1.68,0-3.23.94-4,2.44l-11,21.42c-.23.43-.38.9-.45,1.39l-15.82,105.09c-.29,1.93.7,3.83,2.44,4.7,16.54,8.22,23.29,28.3,15.07,44.84-.46.93-.97,1.84-1.51,2.72-.07-.18-.17-.36-.25-.54-.16-.34-.31-.68-.48-1s-.25-.48-.38-.71l-.53-1-.43-.71c-.19-.3-.39-.6-.59-.9s-.31-.46-.48-.69-.41-.57-.63-.85-.34-.45-.52-.67l-.69-.81-.56-.63-.76-.78c-.19-.2-.38-.39-.58-.58s-.55-.51-.83-.76-.39-.35-.6-.52-.62-.5-.93-.75l-.48-.38c2.95-10.34-3.04-21.13-13.38-24.08-1.75-.5-3.55-.75-5.37-.75H38.33c-3.35,0-6.22-2.38-6.86-5.66L9.13,48c-.4-2.05.14-4.17,1.47-5.78v-.04Z"/>
      </g>
    </g>
  </g>
</svg>