<?xml version="1.0" encoding="UTF-8"?>
<svg id="_Слой_2" data-name="Слой 2" xmlns="http://www.w3.org/2000/svg" xmlns:xlink="http://www.w3.org/1999/xlink" viewBox="0 0 309 309">
  <defs>
    <style>
      .cls-1 {
        fill: url(#_Безымянный_градиент_2);
      }

      .cls-1, .cls-2, .cls-3 {
        stroke-width: 0px;
      }

      .cls-2 {
        fill: url(#_Безымянный_градиент_2-2);
      }

      .cls-3 {
        fill: #fff;
      }
    </style>
    <linearGradient id="_Безымянный_градиент_2" data-name="Безымянный градиент 2" x1="0" y1="154.5" x2="309" y2="154.5" gradientUnits="userSpaceOnUse">
      <stop offset="0" stop-color="#3652e2"/>
      <stop offset="1" stop-color="#b5289b"/>
    </linearGradient>
    <linearGradient id="_Безымянный_градиент_2-2" data-name="Безымянный градиент 2" x1="52.05" y1="154.57" x2="256.94" y2="154.57" xlink:href="#_Безымянный_градиент_2"/>
  </defs>
  <g id="Background">
    <g>
      <path class="cls-1" d="M300,280.4c0,10.8-8.8,19.6-19.6,19.6H28.6c-10.8,0-19.6-8.8-19.6-19.6V28.6c0-10.8,8.8-19.6,19.6-19.6h251.7c10.8,0,19.6,8.8,19.6,19.6v251.8h.1ZM309,280.4V28.6c0-15.8-12.8-28.6-28.6-28.6H28.6C12.8,0,0,12.8,0,28.6v251.7c0,15.9,12.8,28.7,28.6,28.7h251.7c15.9,0,28.7-12.8,28.7-28.6h0Z"/>
      <path class="cls-3" d="M300,280.4c0,10.8-8.8,19.6-19.6,19.6H28.6c-10.8,0-19.6-8.8-19.6-19.6V28.6c0-10.8,8.8-19.6,19.6-19.6h251.7c10.8,0,19.6,8.8,19.6,19.6v251.8h.1Z"/>
      <polygon class="cls-3" points="247.2 247.2 211 242.4 242.4 211 247.2 247.2"/>
      <path class="cls-3" d="M66.1,113.3l4.7-4.7,85.8,85.8c.9.9,2,1.3,3.2,1.3s2.3-.4,3.2-1.3c1.8-1.8,1.8-4.6,0-6.4l-85.8-85.8,24.6-24.6,85.8,85.8c.9.9,2,1.3,3.2,1.3s2.3-.4,3.2-1.3c1.8-1.8,1.8-4.6,0-6.4l-85.8-85.8,5.2-5.2c6.7-6.7,17.6-6.7,24.4,0l87.9,87.9c-3,1.4-6.5,3.6-9.9,7-5.8,5.8-7,13.9-7,18.7-4.5,1.3-12,4.3-18.2,10.6-5.9,5.9-8.9,13-10.4,17.5-.6-.1-1.3-.1-1.9-.1-4.5,0-10.7,1.6-17,7.9-3.6,3.6-6,6.8-7.4,9.5l-87.5-87.5c-7-6.5-7-17.5-.3-24.2h0Z"/>
      <path class="cls-2" d="M256.9,251.8l-6.7-51c0-.2-.1-.3-.1-.4v-.1l-11.9-45.4c0-.1-.1-.1-.1-.2-.1-.2-.1-.3-.2-.5,0-.1-.1-.2-.1-.3-.1-.2-.2-.4-.4-.6l-.1-.1c-.1-.1-.2-.2-.3-.4l-93-93c-10.2-10.2-26.9-10.2-37.1,0l-47.2,47.2c-10.2,10.2-10.2,26.9,0,37.1l93,93,.2.2c.1.1.2.2.4.3.1.1.2.2.4.2.1.1.3.1.4.2.1.1.3.1.4.2.1,0,.2.1.3.1l45.4,11.9c.1,0,.3.1.4.1h.1l51,6.7h.6c1.3-.1,2.4-.6,3.3-1.4,1-1,1.5-2.4,1.3-3.8ZM240.7,200l-.1.1-10-38.4,10.1,38.3ZM167.4,222c7.4-7.4,13.3-5,13.9-4.7-.6-.3-6.5-2.6-13.9,4.7ZM217.72,183.69c-.04.58-.2,1.14-.46,1.64-.38.76-.98,1.41-1.71,1.86-.49.3-1.05.51-1.65.61.6-.1,1.16-.31,1.65-.61.74-.45,1.33-1.1,1.71-1.86.25-.51.41-1.06.46-1.64ZM228.67,162.61c-.68.36-1.4.77-2.14,1.24-1.48.95-3.02,2.15-4.52,3.65-2.03,2.06-3.14,4.72-3.73,7.23.6-2.52,1.71-5.17,3.73-7.23,1.5-1.5,3.05-2.7,4.53-3.65.74-.48,1.46-.89,2.14-1.24ZM153.7,225.1l-87.5-87.5c-6.7-6.7-6.7-17.7,0-24.4l4.7-4.7,85.8,85.8c.9.9,2,1.3,3.2,1.3s2.3-.4,3.2-1.3c1.8-1.8,1.8-4.6,0-6.4l-85.8-85.8,24.6-24.6,85.8,85.8c.9.9,2,1.3,3.2,1.3s2.3-.4,3.2-1.3c1.8-1.8,1.8-4.6,0-6.4l-85.8-85.8,5.2-5.2c6.7-6.7,17.6-6.7,24.4,0l87.6,88.1c-3,1.4-6.5,3.6-9.9,7-5.8,5.8-7,13.9-7,18.7-4.5,1.3-12,4.3-18.2,10.6-5.9,5.9-8.9,13-10.4,17.5-.6-.1-1.3-.1-1.9-.1-4.5,0-10.7,1.6-17,7.9-3.6,3.6-6,6.8-7.4,9.5ZM211,242.4l31.4-31.4,4.8,36.2-36.2-4.8Z"/>
    </g>
  </g>
</svg>