<?xml version="1.0" encoding="UTF-8"?>
<svg id="_Слой_2" data-name="Слой 2" xmlns="http://www.w3.org/2000/svg" xmlns:xlink="http://www.w3.org/1999/xlink" viewBox="0 0 248.88 309">
  <defs>
    <style>
      .cls-1 {
        fill: url(#_Безымянный_градиент_2);
      }

      .cls-1, .cls-2, .cls-3, .cls-4 {
        stroke-width: 0px;
      }

      .cls-2 {
        fill: url(#_Безымянный_градиент_2-2);
      }

      .cls-3 {
        fill: none;
      }

      .cls-4 {
        fill: #fff;
      }
    </style>
    <linearGradient id="_Безымянный_градиент_2" data-name="Безымянный градиент 2" x1="0" y1="154.5" x2="248.88" y2="154.5" gradientUnits="userSpaceOnUse">
      <stop offset="0" stop-color="#3652e2"/>
      <stop offset="1" stop-color="#b5289b"/>
    </linearGradient>
    <linearGradient id="_Безымянный_градиент_2-2" data-name="Безымянный градиент 2" x1="51.35" y1="182.99" x2="194.64" y2="182.99" xlink:href="#_Безымянный_градиент_2"/>
  </defs>
  <g id="Background">
    <g>
      <g>
        <path class="cls-1" d="M203.74,40.2v-7.72c2.65,1.55,4.45,4.43,4.45,7.72,0,4.93-4.01,8.95-8.95,8.95s-8.95-4.01-8.95-8.95c0-3.29,1.79-6.17,4.45-7.72v7.72c0,2.49,2.01,4.5,4.5,4.5s4.5-2.01,4.5-4.5h0ZM54.9,40.2v-7.72c2.65,1.55,4.45,4.43,4.45,7.72,0,4.93-4.01,8.95-8.95,8.95s-8.95-4.01-8.95-8.95c0-3.29,1.79-6.17,4.45-7.72v7.72c0,2.49,2.01,4.5,4.5,4.5s4.5-2.01,4.5-4.5h0ZM104.52,40.2v-7.72c2.65,1.55,4.45,4.43,4.45,7.72,0,4.93-4.01,8.95-8.95,8.95s-8.95-4.01-8.95-8.95c0-3.29,1.79-6.17,4.45-7.72v7.72c0,2.49,2.01,4.5,4.5,4.5s4.5-2.01,4.5-4.5h0ZM154.13,40.2v-7.72c2.66,1.55,4.45,4.43,4.45,7.72,0,4.93-4.01,8.95-8.95,8.95s-8.95-4.01-8.95-8.95c0-3.29,1.79-6.17,4.45-7.72v7.72c0,2.49,2.02,4.5,4.5,4.5s4.5-2.01,4.5-4.5h0ZM194.74,15.95v6.9c-7.72,2-13.45,9.01-13.45,17.35,0,9.9,8.05,17.95,17.95,17.95s17.95-8.05,17.95-17.95c0-8.34-5.72-15.35-13.45-17.35v-6.9h36.13v284.05H41.28c-17.8,0-32.28-14.48-32.28-32.28V15.95h36.9v6.9c-7.72,2-13.45,9.01-13.45,17.35,0,9.9,8.05,17.95,17.95,17.95s17.95-8.05,17.95-17.95c0-8.34-5.73-15.35-13.45-17.35v-6.9h40.61v6.9c-7.72,2-13.45,9.01-13.45,17.35,0,9.9,8.05,17.95,17.95,17.95s17.95-8.05,17.95-17.95c0-8.34-5.73-15.35-13.45-17.35v-6.9h40.61v6.9c-7.72,2-13.45,9.01-13.45,17.35,0,9.9,8.05,17.95,17.95,17.95s17.95-8.05,17.95-17.95c0-8.34-5.73-15.35-13.45-17.35v-6.9h40.61ZM194.74,4.5v2.45h-40.61v-2.45c0-2.49-2.01-4.5-4.5-4.5s-4.5,2.01-4.5,4.5v2.45h-40.61v-2.45c0-2.49-2.01-4.5-4.5-4.5s-4.5,2.01-4.5,4.5v2.45h-40.61v-2.45c0-2.49-2.01-4.5-4.5-4.5s-4.5,2.01-4.5,4.5v2.45H4.5c-2.49,0-4.5,2.01-4.5,4.5v256.26c0,22.76,18.52,41.28,41.28,41.28h203.09c2.49,0,4.5-2.01,4.5-4.5V11.45c0-2.49-2.01-4.5-4.5-4.5h-40.63v-2.45c0-2.49-2.01-4.5-4.5-4.5s-4.5,2.01-4.5,4.5h0Z"/>
        <path class="cls-4" d="M104.52,32.48c2.65,1.55,4.45,4.43,4.45,7.72,0,4.93-4.01,8.95-8.95,8.95s-8.95-4.01-8.95-8.95c0-3.29,1.79-6.17,4.45-7.72v7.72c0,2.49,2.01,4.5,4.5,4.5s4.5-2.01,4.5-4.5v-7.72h0Z"/>
        <path class="cls-4" d="M54.9,32.48c2.65,1.55,4.45,4.43,4.45,7.72,0,4.93-4.01,8.95-8.95,8.95s-8.95-4.01-8.95-8.95c0-3.29,1.79-6.17,4.45-7.72v7.72c0,2.49,2.01,4.5,4.5,4.5s4.5-2.01,4.5-4.5v-7.72h0Z"/>
        <path class="cls-4" d="M45.9,15.95v6.9c-7.72,2-13.45,9.01-13.45,17.35,0,9.9,8.05,17.95,17.95,17.95s17.95-8.05,17.95-17.95c0-8.34-5.73-15.35-13.45-17.35v-6.9h40.61v6.9c-7.72,2-13.45,9.01-13.45,17.35,0,9.9,8.05,17.95,17.95,17.95s17.95-8.05,17.95-17.95c0-8.34-5.73-15.35-13.45-17.35v-6.9h40.61v6.9c-7.72,2-13.45,9.01-13.45,17.35,0,9.9,8.05,17.95,17.95,17.95s17.95-8.05,17.95-17.95c0-8.34-5.73-15.35-13.45-17.35v-6.9h40.61v6.9c-7.72,2-13.45,9.01-13.45,17.35,0,9.9,8.05,17.95,17.95,17.95s17.95-8.05,17.95-17.95c0-8.34-5.72-15.35-13.45-17.35v-6.9h36.13v284.05H41.28c-17.8,0-32.28-14.48-32.28-32.28V15.95h36.9Z"/>
        <path class="cls-4" d="M154.13,32.48c2.66,1.55,4.45,4.43,4.45,7.72,0,4.93-4.01,8.95-8.95,8.95s-8.95-4.01-8.95-8.95c0-3.29,1.79-6.17,4.45-7.72v7.72c0,2.49,2.02,4.5,4.5,4.5s4.5-2.01,4.5-4.5v-7.72h0Z"/>
        <path class="cls-4" d="M203.74,32.48c2.65,1.55,4.45,4.43,4.45,7.72,0,4.93-4.01,8.95-8.95,8.95s-8.95-4.01-8.95-8.95c0-3.29,1.79-6.17,4.45-7.72v7.72c0,2.49,2.01,4.5,4.5,4.5s4.5-2.01,4.5-4.5v-7.72h0Z"/>
      </g>
      <g>
        <path class="cls-4" d="M66.36,107.43c-1.58-2.73-2.01-5.91-1.2-8.96s2.76-5.6,5.49-7.18l12.54-7.27c5.64-3.27,12.88-1.34,16.15,4.3l3.61,6.23-32.98,19.12-3.61-6.23h0Z"/>
        <path class="cls-4" d="M147.55,171.49c.26.45.33.97.2,1.47s-.45.92-.9,1.18l-29.63,17.17c-.9.52-2.13.19-2.65-.7l-35.83-61.81,32.98-19.12,35.83,61.81h0Z"/>
        <g>
          <path class="cls-3" d="M147.74,172.96c.13-.5.06-1.02-.2-1.47l-35.83-61.81-32.98,19.12,35.83,61.81c.52.9,1.75,1.22,2.65.71l29.63-17.17c.45-.26.77-.68.9-1.18Z"/>
          <path class="cls-3" d="M69.97,113.67l32.98-19.12-3.61-6.23c-3.27-5.64-10.51-7.56-16.15-4.3l-12.54,7.27c-2.73,1.58-4.68,4.13-5.49,7.18s-.39,6.23,1.2,8.96l3.61,6.23Z"/>
          <path class="cls-3" d="M147.01,180.15l-7.98,4.62-16.68,9.67,52.48,77.09c3.23,4.74,8.33,6.97,11.61,5.07h0c3.28-1.9,3.89-7.44,1.37-12.6l-40.81-83.85Z"/>
          <g>
            <path class="cls-3" d="M147.74,172.96c.13-.5.06-1.02-.2-1.47l-35.83-61.81-32.98,19.12,35.83,61.81c.52.9,1.75,1.22,2.65.71l29.63-17.17c.45-.26.77-.68.9-1.18Z"/>
            <path class="cls-3" d="M69.97,113.67l32.98-19.12-3.61-6.23c-3.27-5.64-10.51-7.56-16.15-4.3l-12.54,7.27c-2.73,1.58-4.68,4.13-5.49,7.18s-.39,6.23,1.2,8.96l3.61,6.23Z"/>
            <path class="cls-3" d="M147.01,180.15l-7.98,4.62-16.68,9.67,52.48,77.09c3.23,4.74,8.33,6.97,11.61,5.07h0c3.28-1.9,3.89-7.44,1.37-12.6l-40.81-83.85Z"/>
            <path class="cls-2" d="M191.19,279.53c3.96-3.98,4.64-11.13,1.37-17.84l-41.17-84.59c.67-.8,1.17-1.74,1.45-2.78.5-1.86.24-3.81-.73-5.48l-36.23-62.51c.23-.41.41-.84.53-1.3.39-1.47.19-3-.58-4.32l-3.06-5.28c-.76-1.32-1.99-2.26-3.46-2.65-.46-.12-.93-.18-1.4-.19l-4.02-6.93c-4.73-8.16-15.21-10.95-23.37-6.22l-12.54,7.27c-3.95,2.29-6.77,5.98-7.95,10.39-1.17,4.41-.56,9.02,1.73,12.97l3.61,6.23-8.45,4.9s-.06.04-.09.06c-.1-.44-.19-.87-.24-1.28-.17-1.45-1.49-2.48-2.93-2.31-1.45.17-2.48,1.49-2.31,2.93.75,6.3,5.53,12.94,12.15,22.14,8.57,11.91,20.31,28.22,31.07,53.88.33.79.99,1.33,1.76,1.53.54.14,1.14.12,1.7-.12,1.35-.56,1.98-2.11,1.41-3.46-10.99-26.21-22.93-42.8-31.65-54.92-.8-1.11-1.57-2.18-2.31-3.21.07-.04.15-.07.22-.11l8.45-4.9,35.83,61.81c.97,1.67,2.53,2.86,4.39,3.36,1.04.28,2.1.31,3.13.12l52.94,77.77c2.71,3.97,6.39,6.62,10.11,7.62,2.06.55,4.12.58,6.05.06l3.09,5.34c.37.63.95,1.05,1.61,1.23.65.17,1.37.1,2-.27,1.26-.73,1.69-2.35.96-3.61l-3.09-5.34ZM65.16,98.47c.81-3.05,2.76-5.6,5.49-7.18l12.54-7.27c5.64-3.27,12.88-1.34,16.15,4.3l3.61,6.23-32.98,19.12-3.61-6.23c-1.58-2.73-2.01-5.92-1.2-8.96ZM117.22,191.31c-.9.52-2.13.19-2.65-.71l-35.83-61.81,32.98-19.12,35.83,61.81c.26.45.33.97.2,1.47-.13.5-.45.92-.9,1.18l-29.63,17.17ZM178.53,275.36c2.47,1.76,5.17,2.4,7.29,1.55-2.12.85-4.82.21-7.29-1.55Z"/>
          </g>
        </g>
      </g>
    </g>
  </g>
</svg>