<?xml version="1.0" encoding="UTF-8"?>
<svg id="_Слой_2" data-name="Слой 2" xmlns="http://www.w3.org/2000/svg" xmlns:xlink="http://www.w3.org/1999/xlink" viewBox="0 0 309.1 283.2">
  <defs>
    <style>
      .cls-1 {
        fill: url(#_Безымянный_градиент_2);
      }

      .cls-1, .cls-2 {
        stroke-width: 0px;
      }

      .cls-2 {
        fill: #fff;
      }
    </style>
    <linearGradient id="_Безымянный_градиент_2" data-name="Безымянный градиент 2" x1="0" y1="141.6" x2="309.1" y2="141.6" gradientUnits="userSpaceOnUse">
      <stop offset="0" stop-color="#3652e2"/>
      <stop offset="1" stop-color="#b5289b"/>
    </linearGradient>
  </defs>
  <g id="Background">
    <g>
      <path class="cls-2" d="M92.3,100.9l-20.2-22c.9-.4,1.8-.8,2.7-1.3h0c.4-.2.7-.4,1.1-.6.1-.1.2-.1.3-.2.3-.2.6-.4,1-.6.1-.1.2-.2.4-.2.3-.2.6-.4.9-.6.1-.1.3-.2.4-.3.3-.2.5-.4.8-.6.2-.1.3-.2.4-.4.3-.2.5-.4.8-.6.2-.1.3-.3.5-.4.2-.2.5-.4.7-.6l.6-.6c.3-.2.5-.5.7-.7.3-.3.6-.6.8-.9.1-.1.2-.3.4-.4.2-.3.5-.5.7-.8.1-.1.2-.3.4-.4.2-.3.4-.5.6-.8.1-.1.2-.3.3-.4.2-.3.4-.6.6-.9.1-.1.2-.3.3-.4.2-.3.4-.6.6-.9.1-.1.2-.3.3-.4.2-.3.4-.7.6-1,.1-.1.1-.2.2-.4,0-.1.1-.2.1-.2l20.2,22c-6.7,3.9-12.5,9.3-17.2,15.6h0Z"/>
      <path class="cls-2" d="M189.4,65.1c.4.4.8.8,1.2,1.2l.1.1c.8.8,1.6,1.5,2.4,2.2.1.1.3.2.4.3,1.3,1.1,2.6,2,4,2.9.3.2.6.4.9.5.4.3.9.5,1.3.7l1.8.9c.3.1.6.3.9.4.7.3,1.3.6,2,.8.1,0,.2.1.2.1l-16.4,21.3c-5.2-5.9-11.4-10.7-18.4-14.2l16.4-21.3c.1.2.3.4.5.6.2.3.5.6.7.9.5.7,1.1,1.3,1.6,1.9.2.4.3.6.4.7h0Z"/>
      <path class="cls-2" d="M149.1,199.2c.5-.1,1-.1,1.5-.2.5-.1,1-.1,1.5-.2.5-.1,1-.2,1.5-.3s1-.2,1.5-.3,1-.2,1.5-.4c.5-.1.9-.2,1.4-.3.6-.1,1.1-.3,1.7-.5.4-.1.8-.2,1.1-.3.7-.2,1.3-.4,2-.7.3-.1.5-.2.8-.3.8-.3,1.6-.6,2.4-1,.1,0,.2-.1.3-.1,1.1-.5,2.1-.9,3.2-1.4l6,21.8h-.3c-.8-.1-1.6-.1-2.5-.1-.8,0-1.6,0-2.4.1h-.5c-1.7.1-3.3.4-4.9.8h-.2c-1.7.4-3.3.9-4.9,1.6h-.1c-.8.3-1.5.7-2.3,1-.1,0-.1.1-.2.1-.7.3-1.3.7-2,1.1-.1,0-.2.1-.2.1-.6.4-1.3.8-1.9,1.2-.1.1-.2.1-.3.2l-6-21.8c.2,0,.5-.1.7-.1.6.1,1.1.1,1.6,0h0Z"/>
      <path class="cls-2" d="M69,163.1c-.4-.5-.8-.9-1.2-1.4-.1-.1-.3-.3-.4-.4l14.9-7.7c.2.7.4,1.5.6,2.2,0,.1.1.2.1.3,2.1,6.6,5.2,12.8,9.4,18.4l-14.4,7.5v-.1c-.3-1.9-.8-3.8-1.4-5.6h0c-.6-1.8-1.4-3.6-2.3-5.3,0-.1-.1-.1-.1-.2-.4-.8-.9-1.7-1.4-2.5,0,0,0-.1-.1-.1-.4-.7-.9-1.4-1.4-2.1-.1-.2-.2-.3-.3-.5-.5-.7-1-1.3-1.5-1.9-.2-.2-.3-.4-.5-.6h0Z"/>
      <path class="cls-2" d="M199.2,161.4c.3-.7.6-1.4.9-2.2.1-.4.3-.8.4-1.2.2-.5.4-1,.5-1.5.2-.5.3-1.1.5-1.6.1-.4.2-.8.3-1.2.2-.6.3-1.2.5-1.8.1-.3.2-.7.2-1,.1-.6.3-1.2.4-1.9.1-.4.1-.7.2-1.1.1-.6.2-1.2.3-1.8.1-.4.1-.8.2-1.3.1-.5.1-1.1.2-1.6,0-.5.1-1,.1-1.5s.1-1,.1-1.5v-.6l22.1,5c-.6,1.1-1.1,2.3-1.6,3.5v.1c-1,2.5-1.9,5.1-2.4,7.7-.1.2-.1.5-.2.7-.1.5-.2.9-.3,1.4-.1.4-.1.7-.2,1.1-.1.4-.1.8-.2,1.2-.1.5-.1,1-.1,1.5,0,.3-.1.6-.1.9,0,.8-.1,1.7-.1,2.5v2.1l-22.1-5c.1-.2.1-.3.2-.5.1-.1.1-.2.2-.4h0Z"/>
      <path class="cls-1" d="M265.1,121.4c-13.4,0-25.4,6-33.4,15.4l-28.1-6.3c-1.1-9.6-4.5-18.5-9.5-26.3l20.4-26.5c1.2.1,2.5.2,3.8.2,21.4,0,38.9-17.4,38.9-38.9-.2-21.6-17.6-39-39.1-39s-38.9,17.4-38.9,38.9c0,4.8.9,9.3,2.4,13.6l-20.4,26.5c-6.1-2-12.5-3.1-19.2-3.1-8.6,0-16.8,1.8-24.3,5l-25.1-27.4c.4-2.1.6-4.3.6-6.5,0-19.1-15.5-34.6-34.6-34.6-19,.1-34.5,15.6-34.5,34.6s15.5,34.6,34.6,34.6c1.2,0,2.4-.1,3.6-.2l25.1,27.3c-4.6,8.7-7.2,18.5-7.2,29,0,2.3.1,4.5.4,6.7l-20.9,10.8c-5.9-3.6-12.9-5.6-20.3-5.6-21.8,0-39.4,17.6-39.4,39.3s17.6,39.3,39.3,39.3,37.7-16.1,39.2-36.3l19.9-10.3c10.2,10.2,23.9,16.8,39.2,17.9l7.9,28.9c-4.4,5.7-7,12.9-7,20.7,0,18.8,15.3,34.1,34.1,34.1s34.1-15.3,34.1-34.1c0-14.3-8.9-26.6-21.4-31.6l-7.9-28.9c6.8-4.8,12.7-10.9,17.1-17.9l28.1,6.3c5.1,18.7,22.2,32.4,42.5,32.4,24.3,0,44-19.8,44-44s-19.8-44-44-44ZM186.3,61.2c.1.2.3.4.5.6.2.3.5.6.7.9.5.7,1.1,1.3,1.6,1.9.1.2.3.3.4.5.4.4.8.8,1.2,1.2l.1.1c.8.8,1.6,1.5,2.4,2.2.1.1.3.2.4.3,1.3,1.1,2.6,2,4,2.9.3.2.6.4.9.5.4.3.9.5,1.3.7.6.3,1.2.6,1.8.9.3.1.6.3.9.4.7.3,1.3.6,2,.8,0,.2.1.3.2.3l-16.4,21.3c-5.2-5.9-11.4-10.7-18.4-14.2l16.4-21.3ZM72.1,78.8c.9-.4,1.8-.8,2.7-1.3.4-.2.7-.4,1.1-.6.1-.1.2-.1.3-.2.3-.2.6-.4,1-.6.1-.1.2-.2.4-.2.3-.2.6-.4.9-.6.1-.1.3-.2.4-.3.3-.2.5-.4.8-.6.2-.1.3-.2.4-.4.3-.2.5-.4.8-.6.2-.1.3-.3.5-.4.2-.2.5-.4.7-.6.2-.2.4-.4.6-.6.3-.2.5-.5.7-.7.3-.3.6-.6.8-.9.1-.1.2-.3.4-.4.2-.3.5-.5.7-.8.1-.1.2-.3.4-.4.2-.3.4-.5.6-.8.1-.1.2-.3.3-.4.2-.3.4-.6.6-.9.1-.1.2-.3.3-.4.2-.3.4-.6.6-.9.1-.1.2-.3.3-.4.2-.3.4-.7.6-1,.1-.1.1-.2.2-.4,0-.1.1-.2.1-.2l20.1,21.9c-6.6,4.1-12.4,9.4-17.1,15.7l-20.2-22ZM69,183.4c-.12-.72-.28-1.45-.47-2.17-.56-2.16-1.38-4.28-2.43-6.23,1.05,1.95,1.88,4.07,2.43,6.23.19.72.34,1.45.47,2.17h0ZM63.3,170.6c.27.35.54.71.79,1.07-.25-.36-.51-.72-.79-1.07-.1-.1-.2-.3-.3-.4.1.1.2.3.3.4ZM61.9,168.8c.1.2.3.3.4.5.1.15.23.3.35.45-.12-.15-.25-.3-.35-.45-.1-.2-.3-.3-.4-.5-.1-.1-.23-.22-.35-.35.12.12.25.25.35.35ZM59.1,166c.15.1.28.2.39.31-.11-.11-.24-.21-.39-.31-.1-.1-.22-.2-.35-.3.12.1.25.2.35.3ZM57.1,164.4c-1.25-.9-2.57-1.71-3.96-2.42,1.39.71,2.71,1.52,3.96,2.42ZM46.51,159.49c-1.55-.38-3.14-.65-4.76-.78,1.62.13,3.21.4,4.76.78ZM69.4,186.7c0-.2,0-.43-.01-.65.01.22.01.45.01.65h0ZM78,182v-.1c-.3-1.9-.8-3.8-1.4-5.6-.6-1.8-1.4-3.6-2.3-5.3,0-.1-.1-.1-.1-.2-.4-.8-.9-1.7-1.4-2.5,0,0,0-.1-.1-.1-.4-.7-.9-1.4-1.4-2.1-.1-.2-.2-.3-.3-.5-.5-.7-1-1.3-1.5-1.9-.2-.2-.3-.4-.5-.6-.4-.5-.8-.9-1.2-1.4-.1-.1-.3-.3-.4-.4l14.9-7.7c.2.7.4,1.5.6,2.2,0,.1.1.2.1.3,2,6.7,5.2,12.9,9.3,18.5l-14.3,7.4ZM147.3,199.3c.5,0,1-.1,1.5-.2.5-.1,1-.1,1.5-.2s1-.1,1.5-.2,1-.2,1.5-.3l1.5-.3c.5-.1,1-.2,1.5-.4.5-.1.9-.2,1.4-.3.6-.1,1.1-.3,1.7-.5.4-.1.8-.2,1.1-.3.7-.2,1.3-.4,2-.7.3-.1.5-.2.8-.3.8-.3,1.6-.6,2.4-1,.1,0,.2-.1.3-.1,1.1-.5,2.1-.9,3.2-1.4l6,21.8c0,.2-.1.2-.2.2-.8-.1-1.6-.1-2.5-.1-.8,0-1.6,0-2.4.1h-.5c-1.7.1-3.3.4-4.9.8h-.2c-1.7.4-3.3.9-4.9,1.6h-.1c-.8.3-1.5.7-2.3,1-.1,0-.1.1-.2.1-.7.3-1.3.7-2,1.1-.1,0-.2.1-.2.1-.6.4-1.3.8-1.9,1.2-.1.1-.2.1-.3.2l-6-21.8c.2,0,.5-.1.7-.1ZM172.8,274.3c-13.9,0-25.3-11.4-25.3-25.2,0-2.85.48-5.59,1.36-8.13-.83,2.55-1.25,5.28-1.16,8.13,0,13.9,11.2,25.1,25.1,25.1s25.06-11.27,25.1-25.04c0,.01,0,.03,0,.04,0,13.8-11.2,25.1-25.1,25.1ZM224.5,148.1v.1c-1,2.5-1.9,5.1-2.4,7.7-.1.2-.1.5-.2.7-.1.5-.2.9-.3,1.4-.1.4-.1.7-.2,1.1-.1.4-.1.8-.2,1.2-.1.5-.1,1-.1,1.5,0,.3-.1.6-.1.9,0,.8-.1,1.7-.1,2.5v2.1l-22.1-5c.1-.1.1-.3.2-.4.1-.2.1-.3.2-.5.3-.7.6-1.4.9-2.2.1-.4.3-.8.4-1.2.2-.5.4-1,.5-1.5.2-.5.3-1.1.5-1.6.1-.4.2-.8.3-1.2.2-.6.3-1.2.5-1.8.1-.3.2-.7.2-1,.1-.6.3-1.2.4-1.9.1-.4.1-.7.2-1.1l.3-1.8c.1-.4.1-.8.2-1.3.1-.5.1-1.1.2-1.6,0-.5.1-1,.1-1.5s.1-1,.1-1.5v-.6l22.1,5c-.6,1.1-1.1,2.3-1.6,3.5ZM230.4,171.3c0-.2-.1-.5-.1-.7,0-.3-.1-.5-.1-.8s-.1-.6-.1-1c0-.3,0-.5-.1-.8,0-.3-.1-.7-.1-1v-1.8c0-.8,0-1.7.1-2.5v-.6c.1-.8.2-1.5.3-2.3,0-.2.1-.5.1-.7.1-.5.2-1.1.3-1.6.1-.3.1-.6.2-.9.2-.6.3-1.2.5-1.9.1-.4.3-.8.4-1.2.1-.3.2-.7.4-1,.2-.6.5-1.2.8-1.9.1-.3.3-.6.4-.9.2-.4.4-.8.6-1.2.3-.5.6-1,.9-1.6.2-.4.4-.7.7-1,.2-.3.4-.7.7-1,6.4-9,16.8-14.8,28.6-14.8h.05c-11.78.02-22.16,5.81-28.55,14.8-.3.3-.5.7-.7,1-.3.3-.5.6-.7,1-.3.6-.6,1.1-.9,1.6-.2.4-.4.8-.6,1.2-.1.3-.3.6-.4.9-.3.7-.6,1.3-.8,1.9-.2.3-.3.7-.4,1-.1.4-.3.8-.4,1.2-.2.7-.3,1.3-.5,1.9-.1.3-.1.6-.2.9-.1.5-.2,1.1-.3,1.6,0,.2-.1.5-.1.7-.1.8-.2,1.5-.3,2.3-.1.2-.1.4,0,.4-.1.8-.1,1.7-.1,2.5v1.8c0,.3.1.7.1,1,.1.3.1.5.1.8,0,.4.1.7.1,1s.1.5.1.8c0,.2.1.5.1.7,2.8,16.38,17.17,28.97,34.45,29-.02,0-.03,0-.05,0-17.2.2-31.6-12.4-34.5-28.8Z"/>
    </g>
  </g>
</svg>