<?xml version="1.0" encoding="UTF-8"?>
<svg id="_Слой_2" data-name="Слой 2" xmlns="http://www.w3.org/2000/svg" xmlns:xlink="http://www.w3.org/1999/xlink" viewBox="0 0 364.1 364.1">
  <defs>
    <style>
      .cls-1 {
        fill: url(#_Безымянный_градиент_2);
      }

      .cls-1, .cls-2, .cls-3, .cls-4, .cls-5 {
        stroke-width: 0px;
      }

      .cls-2 {
        fill: url(#_Безымянный_градиент_2-2);
      }

      .cls-3 {
        fill: url(#_Безымянный_градиент_2-5);
      }

      .cls-4 {
        fill: url(#_Безымянный_градиент_2-3);
      }

      .cls-5 {
        fill: url(#_Безымянный_градиент_2-4);
      }
    </style>
    <linearGradient id="_Безымянный_градиент_2" data-name="Безымянный градиент 2" x1="109.44" y1="182.36" x2="255.89" y2="182.36" gradientUnits="userSpaceOnUse">
      <stop offset="0" stop-color="#3652e2"/>
      <stop offset="1" stop-color="#b5289b"/>
    </linearGradient>
    <linearGradient id="_Безымянный_градиент_2-2" data-name="Безымянный градиент 2" x1="104.72" y1="182.4" x2="260.67" y2="182.4" xlink:href="#_Безымянный_градиент_2"/>
    <linearGradient id="_Безымянный_градиент_2-3" data-name="Безымянный градиент 2" x1="56.8" y1="182.05" x2="307.1" y2="182.05" xlink:href="#_Безымянный_градиент_2"/>
    <linearGradient id="_Безымянный_градиент_2-4" data-name="Безымянный градиент 2" x1="108.33" y1="182.05" x2="364.1" y2="182.05" xlink:href="#_Безымянный_градиент_2"/>
    <linearGradient id="_Безымянный_градиент_2-5" data-name="Безымянный градиент 2" x1="0" y1="164.35" x2="53.7" y2="164.35" xlink:href="#_Безымянный_градиент_2"/>
  </defs>
  <g id="Background">
    <g>
      <path class="cls-1" d="M207.9,207.6c-62.1,60.9-75.1,47.9-81.4,44.4-6.6-3.8-18-26.6-17-34.9,1-8.2,29.7-22.6,38.3-16.5,6,4.3,9.9,13,18.4,8.5s14.9-10,24-19.2c9.2-9.1,14.6-15.5,19.2-24,4.5-8.6-4.2-12.4-8.5-18.4-6-8.6,8.3-37.3,16.5-38.3,8.3-1,31.1,10.4,34.9,17,3.5,6.3,16.5,19.4-44.4,81.4h0Z"/>
      <path class="cls-2" d="M218.2,113.9h-.2l-.2.1c-2.8,1.2-9,9.7-12.2,19.8-2.1,6.7-1.5,10.2-.9,11,.9,1.3,2.2,2.6,3.6,3.9,4,4,10.1,10.1,5.3,19.4-4.9,9.2-10.8,15.9-20,25.1-9.2,9.2-15.9,15.1-25.2,20-2.3,1.2-4.5,1.8-6.7,1.8-5.7,0-9.6-3.9-12.7-7.1-1.3-1.4-2.6-2.6-3.9-3.5-.5-.4-1.7-.6-3-.6-9.7,0-26,9.3-27.9,13.7l-.1.1v.2c-.5,6.8,10.1,27.3,14.7,30,.3.2.7.4,1.1.6,1.9,1.1,3.9,2.3,7.4,2.3,9,0,28-8.1,67.3-46.6,24.4-24.9,39.4-44.4,44.6-58.1,3.7-9.8,1.4-13.7-.3-16.5-.2-.4-.4-.7-.6-1.1-2.7-4.6-22.2-14.7-29.7-14.7-.2.2-.3.2-.4.2h0ZM137.3,260.4c-6.1,0-9.9-2.3-12.2-3.7-.3-.2-.6-.4-.9-.5l-.1-.1c-8.4-4.9-20.5-29.6-19.3-39.6,1.3-10.7,25.2-22.1,37.3-22.1,3.4,0,6.3.8,8.5,2.3,1.9,1.4,3.6,3.1,5.2,4.6,2.2,2.2,4.3,4.3,6,4.3.8,0,1.7-.4,2.3-.7,8.2-4.3,14.3-9.8,22.9-18.3,8.5-8.5,14-14.7,18.3-22.9,1.4-2.7.9-3.9-3.6-8.4-1.5-1.5-3.2-3.2-4.6-5.1-5-7.1-.8-19.3,2.1-25.9,1.9-4.4,9-18.7,17.7-19.8.5-.1,1-.1,1.6-.1,9.9,0,33,11,38,19.5.2.3.3.6.5.9,2.2,3.7,6.4,10.7,1.1,24.7-5.8,15.1-21.1,35.2-46.8,61.5-33.9,33.2-58.1,49.4-74,49.4h0Z"/>
      <path class="cls-4" d="M182.1,307.3c13.4,0,26.5-2.1,39.1-6.2,1.2-.4,2.2-1.2,2.7-2.4.6-1.1.7-2.4.3-3.6-.6-1.9-2.4-3.2-4.5-3.2-.5,0-1,.1-1.5.2-11.6,3.8-23.8,5.8-36.2,5.8-63.9,0-115.8-52-115.8-115.8s52-115.8,115.8-115.8,115.8,52,115.8,115.8c0,21.1-5.7,41.8-16.6,59.7-1.3,2.2-.6,5.1,1.6,6.5.7.4,1.6.7,2.4.7,1.7,0,3.2-.9,4-2.3,11.7-19.4,17.9-41.8,17.9-64.6,0-69.1-56.2-125.3-125.3-125.3s-125,56.2-125,125.3,56.2,125.2,125.3,125.2h0Z"/>
      <path class="cls-5" d="M182.1,364.1c48.6,0,94.4-18.9,128.7-53.3,34.4-34.4,53.3-80.1,53.3-128.7s-18.9-94.4-53.3-128.7C276.4,18.9,230.7,0,182.1,0c-21.5,0-42.5,3.7-62.5,11-2.4.9-3.7,3.6-2.8,6,.7,1.9,2.5,3.1,4.4,3.1.6,0,1.1-.1,1.6-.3,18.9-6.9,38.9-10.4,59.2-10.4,95.2,0,172.6,77.4,172.6,172.6s-77.4,172.6-172.6,172.6c-23.3,0-45.9-4.6-67.2-13.6-.6-.2-1.2-.4-1.8-.4-1.9,0-3.6,1.1-4.3,2.9-1,2.4.1,5.2,2.5,6.2,22.4,9.6,46.3,14.4,70.9,14.4h0Z"/>
      <path class="cls-3" d="M24.6,268.5c.8,0,1.5-.2,2.2-.5,1.1-.6,1.9-1.6,2.3-2.8.4-1.2.3-2.5-.3-3.6-12.7-24.4-19.4-51.9-19.4-79.5,0-42.1,15.3-82.6,43.1-114.1.8-.9,1.2-2.2,1.2-3.4-.1-1.3-.6-2.4-1.6-3.2-.9-.8-2-1.2-3.1-1.2-1.4,0-2.6.6-3.5,1.6C16.1,95,0,137.7,0,182.1c0,29.2,7.1,58.2,20.4,83.9.9,1.5,2.5,2.5,4.2,2.5h0Z"/>
    </g>
  </g>
</svg>