<?xml version="1.0" encoding="UTF-8"?>
<svg id="_Слой_2" data-name="Слой 2" xmlns="http://www.w3.org/2000/svg" xmlns:xlink="http://www.w3.org/1999/xlink" viewBox="0 0 266.4 279.1">
  <defs>
    <style>
      .cls-1 {
        fill: url(#_Безымянный_градиент_2);
      }

      .cls-1, .cls-2, .cls-3, .cls-4 {
        stroke-width: 0px;
      }

      .cls-2 {
        fill: url(#_Безымянный_градиент_2-2);
      }

      .cls-3 {
        fill: url(#_Безымянный_градиент_2-3);
      }

      .cls-4 {
        fill: #fff;
      }
    </style>
    <linearGradient id="_Безымянный_градиент_2" data-name="Безымянный градиент 2" x1="91.5" y1="83.25" x2="180.3" y2="83.25" gradientUnits="userSpaceOnUse">
      <stop offset="0" stop-color="#3652e2"/>
      <stop offset="1" stop-color="#b5289b"/>
    </linearGradient>
    <linearGradient id="_Безымянный_градиент_2-2" data-name="Безымянный градиент 2" y1="129.75" y2="129.75" xlink:href="#_Безымянный_градиент_2"/>
    <linearGradient id="_Безымянный_градиент_2-3" data-name="Безымянный градиент 2" x1="0" y1="139.55" x2="266.4" y2="139.55" xlink:href="#_Безымянный_градиент_2"/>
  </defs>
  <g id="Background">
    <g>
      <path class="cls-4" d="M136.1,214.5c-.2.2-.4.3-.7.4-.7.4-1.4.6-2.2.6s-1.5-.2-2.2-.6c-.2-.1-.5-.3-.7-.4L9.4,120.5v136c0,7.2,5.9,13.1,13.1,13.1h221.3c7.2,0,13.1-5.9,13.1-13.1V120.5l-120.8,94h0Z"/>
      <polygon class="cls-4" points="206.6 147.8 206.6 36.6 59.9 36.6 59.9 147.8 133.2 204.8 206.6 147.8"/>
      <polygon class="cls-1" points="180.3 93 91.5 93 91.5 73.5 180.3 73.5 180.3 93"/>
      <polygon class="cls-2" points="180.3 139.5 91.5 139.5 91.5 120 180.3 120 180.3 139.5"/>
      <path class="cls-3" d="M260.8,102.8c-2.6-2.5-6.3-5.8-11.2-10-8-6.9-19.2-16.2-33.3-27.7l-.4-.3V31.8c0-2.6-2.1-4.7-4.7-4.7h-42.2l-.3-.2c-15.5-12.4-27.8-22.1-32.4-25.7l-.2-.2c-.8-.6-1.8-1-2.9-1-1,0-2.1.4-2.9,1l-.2.2c-3.5,2.8-16.4,12.9-32.4,25.7l-.3.2h-42.2c-2.6,0-4.7,2.1-4.7,4.7v33l-.4.3c-14.1,11.6-25.3,20.9-33.3,27.7-4.9,4.2-8.6,7.6-11.2,10-3.8,3.6-5.4,5.5-5.6,7.7v146c0,12.4,10.1,22.6,22.6,22.6h221.2c12.5,0,22.6-10.2,22.6-22.6V110.5c-.2-2.2-1.8-4.1-5.6-7.7ZM151.7,25.3c-.99-.78-1.95-1.53-2.89-2.27.94.74,1.9,1.49,2.89,2.27ZM136.15,13.05c.58.46,1.2.94,1.85,1.46.98.77,2.04,1.61,3.17,2.51.76.6,1.55,1.22,2.37,1.87-.82-.65-1.61-1.27-2.37-1.87-1.13-.9-2.19-1.73-3.17-2.51-.65-.52-1.27-1-1.85-1.46-.87-.69-1.66-1.3-2.35-1.85.69.54,1.48,1.16,2.35,1.85ZM59.9,36.6h146.6v111.2l-73.3,57.1-73.3-57.1V36.6ZM256.9,256.5c0,7.2-5.9,13.1-13.1,13.1H22.5c-7.2,0-13.1-5.9-13.1-13.1h-.1V120.5l120.9,94c.2.1.5.3.7.4.7.4,1.4.6,2.2.6s1.5-.2,2.2-.6c.3-.1.5-.2.7-.4l120.9-94v136Z"/>
    </g>
  </g>
</svg>