<?xml version="1.0" encoding="UTF-8"?>
<svg id="_Слой_2" data-name="Слой 2" xmlns="http://www.w3.org/2000/svg" xmlns:xlink="http://www.w3.org/1999/xlink" viewBox="0 0 309 257.75">
  <defs>
    <style>
      .cls-1 {
        fill: url(#_Безымянный_градиент_2);
      }

      .cls-1, .cls-2, .cls-3 {
        stroke-width: 0px;
      }

      .cls-2 {
        fill: url(#_Безымянный_градиент_2-2);
      }

      .cls-3 {
        fill: #fff;
      }
    </style>
    <linearGradient id="_Безымянный_градиент_2" data-name="Безымянный градиент 2" x1="0" y1="128.88" x2="309" y2="128.88" gradientUnits="userSpaceOnUse">
      <stop offset="0" stop-color="#3652e2"/>
      <stop offset="1" stop-color="#b5289b"/>
    </linearGradient>
    <linearGradient id="_Безымянный_градиент_2-2" data-name="Безымянный градиент 2" x1="26.3" y1="122" x2="288.2" y2="122" xlink:href="#_Безымянный_градиент_2"/>
  </defs>
  <g id="Background">
    <g>
      <path class="cls-1" d="M300,248.75H9V31.55h8.4v204.2c0,2.5,2,4.5,4.5,4.5h278.1v8.5h0ZM30.5,185.85c7.6-30.6,19.5-65.6,43.2-65.6,21.6,0,30.3,15.3,36.2,25.5,1,1.8,2.4,4.2,3.6,5.9.8,1.2,2.2,2,3.7,2h0c1.5,0,2.8-.7,3.7-1.9,3-4.3,6.6-11.9,9-17.1,3.7-7.8,7.5-15.9,12.3-22.5,7.1-9.7,15.6-14.6,25.2-14.6,19.9,0,27.9,15.7,33.1,26.1.9,1.7,2,4,3.2,5.9.7,1.3,2.1,2.1,3.5,2.2,1.5.1,2.9-.5,3.8-1.7,3.8-4.7,10.2-14.7,18.8-35.3,3.1-7.5,6.3-15.7,9.3-24.3.4-1.2.3-2.5-.3-3.6s-1.6-1.9-2.8-2.2l-15.1-4.1,49.2-47.6,18.3,66-18.6-5.1c-2.3-.6-4.7.6-5.4,2.9-2.9,8.3-7.5,21-13,33.7-15.2,34.8-28.2,49.6-43.3,49.6-18.1,0-25.7-14.9-30.7-24.7-2.1-4.2-4.2-8.1-6-10.1-.8-.9-2-1.4-3.2-1.4h0c-1.2,0-2.4.5-3.2,1.4-3.5,3.6-7.6,12-11.5,20.4-7.8,16.6-16.6,35.4-35.4,35.4-17.7,0-25.4-13.6-30.6-22.5-4.3-7.5-6.4-10.5-9.6-11.7-1.8-.7-3.9-.2-5.2,1.4-3.6,4.5-10.9,17.2-18.7,51.3-2.7,11.9-4.8,23.4-6.3,31.9h-21.3v-27.8c1.3-6.4,2.7-12.3,4.1-17.8h0ZM56.7,231.25c1.4-8.2,3.4-18.8,5.9-29.8,5.7-24.6,10.9-37.2,14.1-43.2.8,1.2,1.7,2.8,2.8,4.7,5.4,9.5,15.5,27.1,38.4,27.1,24.5,0,35.5-23.4,43.5-40.6,1.4-3,4-8.6,6.4-12.9.6,1.1,1.1,2.2,1.5,2.9,5.2,10.3,15,29.6,38.7,29.6,19.2,0,34.6-16.5,51.5-55,4.9-11.1,9-22.1,11.9-30.4l22.2,6c1.6.4,3.2,0,4.4-1.2,1.1-1.1,1.6-2.8,1.1-4.4L276.7,3.25c-.4-1.5-1.6-2.7-3.2-3.1-1.5-.4-3.2,0-4.3,1.1l-60.3,58.4c-1.2,1.1-1.6,2.8-1.2,4.4.4,1.6,1.6,2.8,3.2,3.2l18,4.9c-2,5.4-4.5,12.3-7.5,19.3-5.7,13.6-10.2,22.1-13.5,27.3-5.6-11-16-30.2-40.7-30.2-12.6,0-23.5,6.1-32.4,18.3-5.4,7.3-9.4,15.8-13.2,24-1.2,2.6-2.9,6.1-4.6,9.4-6.1-10.6-17.3-29-43.4-29s-38.5,26.9-47.2,55.3V27.05c0-2.5-2-4.5-4.5-4.5H4.5c-2.5,0-4.5,2-4.5,4.5v226.2c0,2.5,2,4.5,4.5,4.5h300c2.5,0,4.5-2,4.5-4.5v-17.4c0-2.5-2-4.5-4.5-4.5H56.7v-.1Z"/>
      <path class="cls-2" d="M53.8,199.45c7.8-34.1,15.1-46.8,18.7-51.3,1.2-1.5,3.3-2.1,5.2-1.4,3.2,1.3,5.3,4.2,9.6,11.7,5.1,9,12.9,22.5,30.6,22.5,18.8,0,27.6-18.8,35.4-35.4,3.9-8.4,8.1-16.8,11.5-20.4.8-.9,2-1.4,3.2-1.4h0c1.2,0,2.4.5,3.2,1.4,1.8,2,3.9,5.9,6,10.1,5,9.8,12.5,24.7,30.7,24.7,15.1,0,28-14.8,43.3-49.6,5.6-12.7,10.2-25.3,13-33.7.8-2.2,3.1-3.5,5.4-2.9l18.6,5.1-18.3-66-49.2,47.6,15.1,4.1c1.2.3,2.2,1.1,2.8,2.2s.7,2.4.3,3.6c-3,8.6-6.1,16.8-9.3,24.3-8.6,20.7-15,30.6-18.8,35.3-.9,1.2-2.4,1.8-3.8,1.7-1.5-.1-2.8-.9-3.5-2.2-1.1-1.9-2.3-4.2-3.2-5.9-5.3-10.4-13.2-26.1-33.1-26.1-9.6,0-18.1,4.9-25.2,14.6-4.9,6.6-8.6,14.7-12.3,22.5-2.4,5.1-6,12.8-9,17.1-.8,1.2-2.2,1.9-3.7,1.9h0c-1.5,0-2.9-.7-3.7-2-1.2-1.8-2.6-4.2-3.6-5.9-5.8-10.2-14.5-25.5-36.2-25.5-23.8,0-35.6,35.1-43.2,65.6-1.4,5.5-2.7,11.4-4,17.6v27.8h21.1c1.6-8.4,3.7-19.8,6.4-31.7h0Z"/>
      <path class="cls-3" d="M51.4,240.25h-29.5c-2.5,0-4.5-2-4.5-4.5V31.55h-8.4v217.2h291v-8.4H51.4v-.1Z"/>
    </g>
  </g>
</svg>