<!DOCTYPE svg PUBLIC "-//W3C//DTD SVG 20010904//EN" "http://www.w3.org/TR/2001/REC-SVG-20010904/DTD/svg10.dtd">
<svg version="1.0" xmlns="http://www.w3.org/2000/svg" width="130px" height="130px" viewBox="0 0 1300 1300" preserveAspectRatio="xMidYMid meet">
<g id="layer101" fill="#ff0000" stroke="none">
 <path d="M472 1281 c-114 -33 -190 -79 -282 -171 -135 -135 -190 -267 -190 -460 0 -193 55 -325 190 -460 135 -135 267 -190 460 -190 193 0 325 55 460 190 135 135 190 267 190 460 0 193 -55 325 -190 460 -93 93 -180 145 -296 174 -85 22 -260 20 -342 -3z m355 -57 c252 -75 424 -308 424 -574 0 -205 -96 -385 -267 -500 -153 -102 -339 -130 -511 -75 -255 80 -424 310 -424 575 0 205 96 385 266 499 158 105 328 130 512 75z"/>
 <path d="M260 1018 c0 -16 52 -75 172 -195 l173 -173 -173 -173 c-120 -120 -172 -179 -172 -195 0 -53 43 -24 218 149 l173 171 170 -169 c173 -171 219 -203 219 -151 0 16 -49 72 -172 195 l-173 173 173 173 c123 123 172 179 172 195 0 52 -47 20 -219 -151 l-169 -169 -174 171 c-175 173 -218 202 -218 149z"/>
 </g>

</svg>